<?xml version="1.0" standalone="no"?>
<!DOCTYPE svg PUBLIC "-//W3C//DTD SVG 1.1//EN" "http://www.w3.org/Graphics/SVG/1.1/DTD/svg11.dtd" >
<svg>
<metadata>
Created by FontForge 20120731 at Sat Jun 29 20:27:22 2019
 By www
Copyright (c) 2009 Typodermic Fonts. This font is not freely distributable. Visit typodermic.com for more info.
</metadata>
<defs>
<font id="DDTW00-CondensedSemiBold" horiz-adv-x="503" >
  <font-face 
    font-family="DDTW00-CondensedSemiBold"
    font-weight="600"
    font-stretch="condensed"
    units-per-em="1000"
    panose-1="2 11 7 6 4 0 0 2 0 4"
    ascent="800"
    descent="-200"
    x-height="532"
    cap-height="759"
    bbox="-140 -226 895 974"
    underline-thickness="50"
    underline-position="-125"
    unicode-range="U+0017-FB02"
  />
<missing-glyph horiz-adv-x="539" 
d="M240 67l-115 24l-28 -135l115 -23zM252 140q9 52 27 82t39.5 49t44.5 32.5t44 31.5q19 17 32.5 41t22 50.5t12.5 53.5t4 49q0 24 -7.5 46.5t-25.5 41.5t-49 34t-79 25q-22 5 -40.5 6.5t-35.5 1.5q-41 0 -68 -12.5t-44 -36.5t-27.5 -59t-19.5 -80l116 -23q12 53 26 82
t48 29q43 0 59 -20.5t16 -47.5q0 -38 -12.5 -73t-45.5 -56q-26 -17 -51 -32.5t-43 -35.5q-9 -10 -15.5 -22t-12.5 -30t-12 -43.5t-13 -61.5zM132 -200q-100 0 -100 88v832q0 89 100 89h277q101 0 101 -89v-832q0 -88 -101 -88h-277z" />
    <glyph glyph-name="copyright" unicode="&#x28;C&#x29;" horiz-adv-x="695" 
d="M347 -9q-99 0 -156.5 27.5t-87 78t-37.5 122.5t-8 161t8 161t37.5 122.5t87 78t156.5 27.5t157 -27.5t87.5 -78t38 -122.5t8.5 -161t-8.5 -161t-38 -122.5t-87.5 -78t-157 -27.5zM347 64q80 0 125.5 22.5t67.5 64t27 99.5t5 130q0 71 -5 129t-27 99t-67.5 63.5
t-125.5 22.5t-125 -22.5t-67 -63.5t-27 -99t-5 -129q0 -72 5 -130t27 -99.5t67 -64t125 -22.5zM458 328q0 -27 -3.5 -47.5t-14.5 -34t-32.5 -20t-57.5 -6.5q-43 0 -66.5 12t-34 33.5t-12.5 50.5t-2 64q0 34 2 62t12.5 48t34 31.5t66.5 11.5q38 0 60 -7t32.5 -20.5
t13.5 -33.5t3 -45h-73q0 30 -6.5 40t-29.5 10q-26 0 -31 -19.5t-5 -66.5v-50q0 -34 7 -50t29 -16q23 0 30 12t7 41h71z" />
    <glyph glyph-name="registered" unicode="&#x28;R&#x29;" horiz-adv-x="599" 
d="M300 119q-83 0 -131 23t-72.5 65t-31.5 102t-7 135t7 135t31.5 102.5t72.5 65t131 22.5q82 0 130.5 -22.5t73 -65t31.5 -102.5t7 -135t-7 -135t-31.5 -102t-73 -65t-130.5 -23zM300 187q65 0 102 18t55 52t22 81t4 106q0 58 -4 105.5t-22 81t-55 51.5t-102 18t-101.5 -18
t-54.5 -51.5t-22.5 -81t-4.5 -105.5q0 -59 4.5 -106t22.5 -81t54.5 -52t101.5 -18zM333 503q0 16 -4 27.5t-24 11.5h-26v-90h25q20 0 24.5 11.5t4.5 27.5v12zM338 298q-4 13 -4 40v33q0 17 -5 27t-25 10h-25v-110h-56v288h82q43 0 64 -15t21 -60v-10q0 -34 -11 -49.5
t-36 -18.5q9 -2 17 -4.5t14.5 -8t10.5 -15.5t4 -26v-34q0 -27 5 -47h-56z" />
    <glyph glyph-name="uni2117" unicode="&#x28;P&#x29;" horiz-adv-x="716" 
d="M357 -9q-102 0 -161 27.5t-89.5 78t-39 122.5t-8.5 161t8.5 161t39 122.5t89.5 78t161 27.5t161.5 -27.5t90.5 -78t39.5 -122.5t8.5 -161t-8.5 -161t-39.5 -122.5t-90.5 -78t-161.5 -27.5zM357 64q83 0 129.5 22.5t69.5 64t28 99.5t5 130q0 71 -5 129t-28 99t-69.5 63.5
t-129.5 22.5q-82 0 -128.5 -22.5t-69 -63.5t-28 -99t-5.5 -129q0 -72 5.5 -130t28 -99.5t69 -64t128.5 -22.5zM261 220v322h119q32 0 51.5 -7t29.5 -21t13 -36.5t3 -53.5v-5q0 -29 -4 -49.5t-15 -34.5t-31 -20.5t-53 -6.5h-44v-88h-69zM405 442q0 20 -6.5 33t-27.5 13h-41
v-127h40q26 0 30.5 14t4.5 40v27z" />
    <glyph glyph-name=".notdef" horiz-adv-x="539" 
d="M240 67l-115 24l-28 -135l115 -23zM252 140q9 52 27 82t39.5 49t44.5 32.5t44 31.5q19 17 32.5 41t22 50.5t12.5 53.5t4 49q0 24 -7.5 46.5t-25.5 41.5t-49 34t-79 25q-22 5 -40.5 6.5t-35.5 1.5q-41 0 -68 -12.5t-44 -36.5t-27.5 -59t-19.5 -80l116 -23q12 53 26 82
t48 29q43 0 59 -20.5t16 -47.5q0 -38 -12.5 -73t-45.5 -56q-26 -17 -51 -32.5t-43 -35.5q-9 -10 -15.5 -22t-12.5 -30t-12 -43.5t-13 -61.5zM132 -200q-100 0 -100 88v832q0 89 100 89h277q101 0 101 -89v-832q0 -88 -101 -88h-277z" />
    <glyph glyph-name="glyph1" horiz-adv-x="207" 
 />
    <glyph glyph-name="glyph2" horiz-adv-x="0" 
 />
    <glyph glyph-name="glyph2" horiz-adv-x="0" 
 />
    <glyph glyph-name="uni0017" horiz-adv-x="238" 
 />
    <glyph glyph-name="space" unicode=" " horiz-adv-x="238" 
 />
    <glyph glyph-name="exclam" unicode="!" horiz-adv-x="323" 
d="M103 220l-21 539h152l-22 -539h-109zM95 0v143h126v-143h-126z" />
    <glyph glyph-name="quotedbl" unicode="&#x22;" horiz-adv-x="400" 
d="M62 456l-16 303h108l-17 -303h-75zM262 456l-16 303h108l-17 -303h-75z" />
    <glyph glyph-name="numbersign" unicode="#" 
d="M227 0l45 223h-109l-45 -223h-81l45 223h-57v72h70l35 173h-76v73h91l43 218h81l-44 -218h110l43 218h80l-44 -218h63v-73h-76l-34 -173h81v-72h-96l-44 -223h-81zM320 468h-109l-34 -173h108z" />
    <glyph glyph-name="dollar" unicode="$" 
d="M207 0v112q-29 2 -55.5 9t-46.5 22t-32.5 40.5t-12.5 65.5q0 7 0.5 17.5t1.5 19.5h131q-1 -6 -1 -12.5v-11.5q0 -32 15.5 -45t44.5 -13q26 0 40.5 12.5t14.5 40.5q0 33 -18.5 49.5t-46 26t-59.5 17.5t-59.5 24.5t-46 45t-18.5 80.5q0 45 11 74.5t30.5 47.5t47 26.5
t59.5 11.5v99h94v-100q42 -5 67.5 -17.5t39 -32.5t18 -47.5t4.5 -61.5h-127q0 15 -1.5 29t-6.5 24t-15.5 16t-28.5 6q-56 0 -56 -56q0 -32 22.5 -46.5t54.5 -24t67 -19t60 -30.5q27 -23 36 -55t9 -69q0 -86 -37.5 -122.5t-105.5 -41.5v-111h-94z" />
    <glyph glyph-name="percent" unicode="%" horiz-adv-x="754" 
d="M175 384q-36 0 -57 9t-31.5 31.5t-13.5 60t-3 94.5t3 94.5t13.5 60t31.5 31.5t57 9q37 0 58 -9t31.5 -31.5t13.5 -60t3 -94.5t-3 -94.5t-13.5 -60t-31.5 -31.5t-58 -9zM212 627q0 51 -6 74t-31 23t-31 -23t-6 -74v-76q0 -62 5 -90t32 -28t32 28t5 90v76zM146 -21l378 801
h80l-377 -801h-81zM577 -15q-36 0 -57 9t-31.5 31.5t-13.5 60t-3 94.5t3 94.5t13.5 60t31.5 31.5t57 9q37 0 58 -9t31.5 -31.5t13.5 -60t3 -94.5t-3 -94.5t-13.5 -60t-31.5 -31.5t-58 -9zM614 228q0 51 -6 74t-31 23t-31 -23t-6 -74v-76q0 -62 5 -90t32 -28t32 28t5 90v76z
" />
    <glyph glyph-name="ampersand" unicode="&#x26;" horiz-adv-x="650" 
d="M488 0q-4 5 -13.5 19.5t-14.5 19.5q-32 -28 -73 -38t-86 -10q-83 0 -133 13t-76 38.5t-34 64.5t-8 90q0 37 6.5 66t21 53.5t38 47t57.5 48.5q-40 42 -57 89.5t-17 106.5q0 35 7 64.5t26 51t53.5 33.5t88.5 12q49 0 81 -11.5t50.5 -31.5t26 -47t7.5 -58
q0 -76 -29.5 -126.5t-86.5 -89.5l127 -156q2 14 3 30.5t1 32.5v70h106v-70q0 -45 -5.5 -87t-19.5 -83l111 -142h-158zM233 333q-31 -26 -40.5 -51.5t-9.5 -63.5v-31q0 -26 6 -43t19.5 -27.5t36 -14.5t56.5 -4q28 0 50.5 5.5t42.5 20.5zM265 483q31 25 44.5 52.5t13.5 68.5
q0 32 -11.5 46t-42.5 14q-33 0 -43 -15.5t-10 -45.5q0 -36 13 -65t36 -55z" />
    <glyph glyph-name="quotesingle" unicode="'" horiz-adv-x="200" 
d="M62 456l-16 303h108l-17 -303h-75z" />
    <glyph glyph-name="parenleft" unicode="(" horiz-adv-x="382" 
d="M301 -134q-55 22 -93.5 62.5t-63 101.5t-35.5 143.5t-11 187.5q0 99 8.5 180.5t30 144.5t57.5 109t91 75l48 -73q-43 -26 -70 -69t-42 -99.5t-20.5 -124.5t-5.5 -143q0 -77 6.5 -145t23.5 -123t46 -95t73 -59z" />
    <glyph glyph-name="parenright" unicode=")" horiz-adv-x="382" 
d="M37 -61q45 19 73.5 59t45.5 95t23.5 123t6.5 145q0 75 -5.5 143t-20.5 124.5t-41.5 99.5t-68.5 69l47 73q54 -29 90 -75t57.5 -109t30 -144.5t8.5 -180.5q0 -105 -11 -187.5t-35.5 -143.5t-63 -101.5t-93.5 -62.5z" />
    <glyph glyph-name="asterisk" unicode="*" horiz-adv-x="475" 
d="M299 404l-63 109l-66 -107l-83 62l87 95l-128 31l33 91l120 -55l-16 129h107l-16 -130l125 55l29 -92l-130 -29l86 -98z" />
    <glyph glyph-name="plus" unicode="+" 
d="M206 142v180h-176v95h176v179h91v-179h175v-95h-175v-180h-91z" />
    <glyph glyph-name="comma" unicode="," horiz-adv-x="263" 
d="M89 -107l21 107h-43v143h127v-122l-52 -128h-53z" />
    <glyph glyph-name="hyphen" unicode="-" horiz-adv-x="319" 
d="M37 260v96h245v-96h-245z" />
    <glyph glyph-name="period" unicode="." horiz-adv-x="263" 
d="M67 0v143h127v-143h-127z" />
    <glyph glyph-name="slash" unicode="/" horiz-adv-x="363" 
d="M13 -41l247 811h85l-249 -811h-83z" />
    <glyph glyph-name="zero" unicode="0" 
d="M252 -9q-72 0 -113 18t-62 62.5t-26.5 119.5t-5.5 189t5.5 189.5t26.5 120t62 62.5t113 18t113 -18t61.5 -62.5t26 -120t5.5 -189.5t-5.5 -189t-26 -119.5t-61.5 -62.5t-113 -18zM314 468q0 49 -1.5 85.5t-7.5 60.5t-18.5 36t-34.5 12t-34.5 -12t-18.5 -36t-7.5 -60.5
t-1.5 -85.5v-156q0 -56 1 -96.5t7 -66.5t18.5 -39t35.5 -13t35.5 13t18.5 39t7 66.5t1 96.5v156z" />
    <glyph glyph-name="one" unicode="1" horiz-adv-x="485" 
d="M222 0v524q0 37 1.5 62.5t2.5 46.5q-11 -16 -26.5 -37t-37.5 -45l-70 -79l-76 75l192 212h162v-759h-148z" />
    <glyph glyph-name="two" unicode="2" 
d="M49 0v108q0 57 11.5 103t43.5 88q30 37 62.5 58t69.5 45q25 16 40 33.5t22.5 38t9.5 45t2 53.5q0 12 -1 27t-6 28t-16 21.5t-31 8.5t-32 -8t-18 -21t-8 -30t-2 -36v-32h-138q0 9 -0.5 21t-0.5 22q0 55 10.5 92.5t33.5 60.5t60.5 33.5t91.5 10.5q47 0 84 -9t62.5 -30.5
t39 -58t13.5 -91.5q0 -66 -11.5 -125t-53.5 -104q-26 -28 -60 -47.5t-64.5 -40.5t-51.5 -49.5t-21 -74.5v-28h264v-112h-405z" />
    <glyph glyph-name="three" unicode="3" 
d="M183 195q0 -20 2 -38t9 -31.5t20 -21t35 -7.5q24 0 37 7.5t20 20.5t8.5 31t1.5 39q0 27 -1 52.5t-7 46t-19 32.5t-37 12h-91v112h91q23 0 35.5 11.5t18 29.5t6.5 40t1 42q0 19 -1.5 35t-8 28t-19.5 19t-35 7t-34.5 -7t-19 -19t-8 -28.5t-1.5 -34.5v-19h-133v14q0 39 4 75
t23.5 64.5t59.5 45.5t112 17t112.5 -17t60.5 -45t24.5 -64.5t4.5 -75.5q0 -33 -4 -59.5t-15.5 -47.5t-31.5 -35.5t-51 -22.5q37 -12 59.5 -31.5t33.5 -46.5t14.5 -59.5t3.5 -69.5q0 -45 -7 -82.5t-29.5 -64.5t-64 -42t-110.5 -15t-110.5 15t-63.5 42t-28.5 64.5t-6.5 82.5
v35h140v-36z" />
    <glyph glyph-name="four" unicode="4" 
d="M280 0v133h-244v145l177 481h204v-513h52v-113h-52v-133h-137zM280 476q0 50 1 85.5t2.5 62t4 47t4.5 39.5q-4 -19 -9 -38.5t-12.5 -45t-18 -59.5t-25.5 -81l-78 -240h131v230z" />
    <glyph glyph-name="five" unicode="5" 
d="M311 294q0 20 -1 41.5t-6.5 39.5t-17.5 29.5t-34 11.5q-18 0 -30 -6t-19.5 -16.5t-11 -23.5t-5.5 -28h-122l24 417h355v-113h-233l-12 -194q17 35 45.5 50.5t64.5 15.5q56 0 86 -24.5t44 -65t16.5 -92t2.5 -105.5q0 -45 -3.5 -88t-23 -76.5t-62.5 -54.5t-122 -21
q-44 0 -79.5 7t-60.5 26.5t-38.5 53t-13.5 86.5v31h138v-15q0 -15 1.5 -30t7.5 -27t17 -19.5t30 -7.5q24 0 36.5 11t18.5 28.5t7 39t1 42.5v77z" />
    <glyph glyph-name="six" unicode="6" 
d="M318 581v9q0 13 -1.5 26.5t-7.5 24t-18.5 17.5t-34.5 7q-24 0 -37 -10.5t-19 -30.5t-7 -48.5t-1 -64.5v-98q21 37 48.5 51t66.5 14q47 0 77 -13.5t47 -42t23.5 -72.5t6.5 -105q0 -67 -7 -115t-29.5 -79t-64 -45.5t-109.5 -14.5q-70 0 -110.5 21t-60.5 68t-25.5 124
t-5.5 188q0 83 3.5 152.5t23 119.5t62 78t120.5 28q72 0 111.5 -16t57.5 -41.5t21 -57.5t3 -64v-10h-133zM320 263q0 21 -1.5 42t-7.5 37t-19 26t-35 10q-25 0 -38.5 -11.5t-19.5 -32.5t-7 -50t-1 -63q0 -30 1.5 -53t8 -38.5t19.5 -24t36 -8.5t36 7.5t19 21t7.5 32t1.5 41.5
v64z" />
    <glyph glyph-name="seven" unicode="7" 
d="M130 0q15 82 34.5 167t44.5 167.5t54 161.5t63 150h-272v113h399v-115q-63 -151 -103 -316.5t-62 -327.5h-158z" />
    <glyph glyph-name="eight" unicode="8" 
d="M352 404q37 -12 59.5 -32t33.5 -46.5t14.5 -59.5t3.5 -70q0 -45 -7 -82.5t-29.5 -64.5t-64 -42t-110.5 -15t-111 15t-64.5 42t-29.5 64.5t-7 82.5q0 37 3.5 70t15 59.5t33.5 46.5t60 32q-32 8 -52 22.5t-31.5 35t-15.5 47t-4 59.5q0 39 5 75.5t25 64.5t61 45t112 17
t111.5 -17t60.5 -45t25 -64.5t5 -75.5q0 -33 -4 -59.5t-15.5 -47t-31.5 -35t-51 -22.5zM252 97q24 0 37 8.5t19 24t7 37t1 46.5q0 31 -1.5 56t-7.5 42t-19 26t-36 9t-36 -9t-19 -26t-7.5 -42t-1.5 -56q0 -25 1 -46.5t7 -37t19 -24t37 -8.5zM252 451q22 0 34.5 8.5t18.5 24.5
t7 37t1 47q0 20 -1 37t-7 30t-18.5 20t-34.5 7t-34.5 -7t-18.5 -20t-7 -30t-1 -37q0 -26 1 -47t7 -37t18 -24.5t35 -8.5z" />
    <glyph glyph-name="nine" unicode="9" 
d="M314 366q-20 -35 -47 -49t-70 -14q-47 0 -76.5 14t-47 42.5t-24 71.5t-6.5 100q0 63 7.5 108t30 74t64 43t109.5 14q75 0 116 -22t60 -70t22 -124t3 -185q0 -84 -3.5 -153.5t-23 -119.5t-61.5 -77.5t-120 -27.5q-72 0 -111 16t-57 41.5t-21 57t-3 63.5v11h132v-10
q0 -13 1.5 -26.5t7.5 -24.5t18.5 -18t35.5 -7q24 0 37 10.5t19 31t7 49t1 64.5v117zM186 517q0 -24 1.5 -45t7.5 -36.5t18.5 -24t35.5 -8.5q22 0 35 8.5t20 26t8.5 43t1.5 58.5q0 27 -1.5 49.5t-8 39t-19 25.5t-34.5 9q-23 0 -36 -7t-19.5 -19.5t-8 -30t-1.5 -37.5v-51z" />
    <glyph glyph-name="colon" unicode=":" horiz-adv-x="265" 
d="M68 0v143h127v-143h-127zM68 386v143h127v-143h-127z" />
    <glyph glyph-name="semicolon" unicode=";" horiz-adv-x="264" 
d="M90 -107l20 107h-42v143h126v-122l-52 -128h-52zM68 386v143h126v-143h-126z" />
    <glyph glyph-name="less" unicode="&#x3c;" 
d="M30 336v75l442 247v-115l-316 -169l316 -170v-115z" />
    <glyph glyph-name="equal" unicode="=" 
d="M30 217v94h442v-94h-442zM30 428v94h442v-94h-442z" />
    <glyph glyph-name="greater" unicode="&#x3e;" 
d="M30 89v115l319 170l-319 169v115l442 -247v-75z" />
    <glyph glyph-name="question" unicode="?" horiz-adv-x="494" 
d="M175 0v143h126v-143h-126zM178 217v54q0 37 3 66.5t17 53.5q15 25 36.5 44.5t41.5 41.5q19 20 24 39.5t5 45.5q0 21 -1.5 39t-7.5 31.5t-18 21.5t-33 8t-33 -8.5t-18 -22.5t-7.5 -31t-1.5 -35v-24h-129v24q0 43 4.5 80.5t24 65.5t59 43.5t108.5 15.5q65 0 103.5 -15
t58 -38.5t25 -53t5.5 -58.5q0 -44 -4.5 -87t-31.5 -78q-17 -21 -36 -38.5t-35.5 -36.5t-27.5 -42t-11 -55v-51h-120z" />
    <glyph glyph-name="at" unicode="@" horiz-adv-x="649" 
d="M577 -58q-32 -30 -85.5 -49t-116.5 -19q-77 0 -130 15t-87 43t-52.5 68t-27 90.5t-10 110t-1.5 127.5q0 49 1.5 97t9 91t24 79.5t47.5 63t78.5 41.5t116.5 15q77 0 123 -22t70.5 -58t32 -82.5t7.5 -96.5v-275q0 -21 1 -42t3 -41h-93l-6 63q-11 -30 -38 -48.5t-58 -18.5
q-47 0 -72.5 16t-37 43.5t-13.5 65t-2 80.5q0 48 2 85t13.5 62t37 37.5t72.5 12.5q35 0 57.5 -9.5t36.5 -32.5v22q0 62 -29 90t-107 28q-64 0 -98.5 -16t-50.5 -46t-18.5 -73.5t-2.5 -97.5v-101q0 -74 4 -129.5t23.5 -92t60 -55t113.5 -18.5q37 0 68.5 7t57 18.5t45 24.5
t31.5 25v-98zM475 379q-11 23 -25.5 31.5t-34.5 8.5q-36 0 -44.5 -22t-8.5 -59v-64q0 -16 1 -33.5t6.5 -31.5t16 -23.5t29.5 -9.5q24 0 38.5 9.5t21.5 25.5v168z" />
    <glyph glyph-name="A" unicode="A" horiz-adv-x="574" 
d="M391 0l-28 169h-154l-29 -169h-150l153 759h214l148 -759h-154zM318 449q-6 35 -10.5 61.5t-7.5 49t-5.5 44.5t-5.5 48q-3 -26 -6 -48t-6.5 -44.5t-8 -49t-10.5 -61.5l-31 -166h119z" />
    <glyph glyph-name="B" unicode="B" horiz-adv-x="581" 
d="M299 445q27 0 42 7.5t22.5 21t9 32.5t1.5 41q0 19 -2 37t-9.5 31t-22.5 21t-41 8h-83v-199h83zM67 0v759h259q72 0 111.5 -18t57.5 -45.5t21 -60.5t3 -63q0 -36 -5 -65.5t-18.5 -52t-36.5 -37t-59 -21.5q40 -5 66 -20.5t41 -40.5t21 -57t6 -70q0 -37 -3 -74t-21.5 -67
t-58.5 -48.5t-114 -18.5h-270zM300 113q29 0 45 5.5t24 18.5t10 34t2 53q0 30 -2 51.5t-10 35.5t-24.5 20.5t-45.5 6.5h-83v-225h84z" />
    <glyph glyph-name="C" unicode="C" horiz-adv-x="570" 
d="M512 271q0 -62 -4.5 -113t-26 -88.5t-66 -58t-123.5 -20.5q-87 0 -134.5 24.5t-69.5 73t-26 121t-4 169.5t3.5 170t25.5 122t69.5 74t135.5 25q77 0 121 -19t66 -54t27.5 -83.5t5.5 -106.5h-139q-1 41 -4 69.5t-11 46.5t-24 26t-42 8q-30 0 -47 -12.5t-24.5 -44t-9 -85
t-1.5 -135.5t1 -135.5t8.5 -85t24 -44.5t48.5 -13q27 0 43 9t24.5 29t11 52t2.5 79h139z" />
    <glyph glyph-name="D" unicode="D" horiz-adv-x="585" 
d="M67 0v759h237q67 0 110 -17.5t68 -56.5t34.5 -102.5t9.5 -154.5v-97q0 -92 -9.5 -155t-34.5 -102t-68 -56.5t-110 -17.5h-237zM290 114q28 0 45 13.5t26.5 37t12.5 55.5t3 70v178q0 38 -3 70t-12.5 55.5t-26.5 37t-45 13.5h-73v-530h73z" />
    <glyph glyph-name="E" unicode="E" horiz-adv-x="504" 
d="M67 0v759h378v-126h-240v-170h230v-127h-230v-212h244v-124h-382z" />
    <glyph glyph-name="F" unicode="F" horiz-adv-x="474" 
d="M67 0v759h377v-118h-227v-212h210v-116h-210v-313h-150z" />
    <glyph glyph-name="G" unicode="G" horiz-adv-x="590" 
d="M289 0q-85 0 -132 23t-69 70.5t-26 118.5t-4 167q0 97 4 170t26.5 122t71 74t136.5 25q77 0 122 -19.5t67.5 -54.5t28.5 -83t6 -106h-139q-1 41 -5 69.5t-13 46.5t-25 26t-42 8q-29 0 -46 -10t-26 -34t-11.5 -63t-2.5 -97v-140q0 -57 2.5 -94.5t11 -60t25.5 -32t46 -9.5
h90v174h-81v112h219v-403h-234z" />
    <glyph glyph-name="H" unicode="H" horiz-adv-x="594" 
d="M375 0v336h-158v-336h-150v759h150v-306h158v306h149v-759h-149z" />
    <glyph glyph-name="I" unicode="I" horiz-adv-x="297" 
d="M74 0v759h149v-759h-149z" />
    <glyph glyph-name="J" unicode="J" horiz-adv-x="529" 
d="M317 759h148v-560q0 -63 -14.5 -103.5t-42.5 -64t-69 -32t-95 -8.5q-56 0 -96.5 8.5t-66.5 32t-38 64t-12 103.5v72h137v-72q0 -57 18.5 -75.5t56.5 -18.5q22 0 36 4t22.5 14.5t12 28.5t3.5 47v560z" />
    <glyph glyph-name="K" unicode="K" horiz-adv-x="579" 
d="M389 0l-116 249q-24 51 -37 80.5t-23 53.5q2 -25 2.5 -58.5t0.5 -92.5v-232h-149v759h149v-193v-49.5t-0.5 -37t-1 -30t-1.5 -27.5q5 13 10.5 25t13 27t17.5 34.5t24 46.5l109 204h156l-189 -337l199 -422h-164z" />
    <glyph glyph-name="L" unicode="L" horiz-adv-x="453" 
d="M67 0v759h150v-638h211v-121h-361z" />
    <glyph glyph-name="M" unicode="M" horiz-adv-x="805" 
d="M609 0v471v61t0.5 50t1 43.5t1.5 41.5q-4 -21 -8 -41.5t-8.5 -43l-10 -50t-12.5 -61.5l-100 -471h-150l-93 471q-6 34 -11.5 60t-10 48.5t-8.5 43.5t-8 44q1 -24 2 -45t1.5 -43.5t0.5 -48.5v-59v-471h-132v759h226l71 -375q9 -44 14.5 -76.5t10 -59.5l8.5 -51t8 -51
q4 27 8 50.5t8.5 50.5t10.5 59.5t15 77.5l72 375h224v-759h-131z" />
    <glyph glyph-name="N" unicode="N" horiz-adv-x="627" 
d="M388 0l-146 414q-14 39 -24 68t-17.5 53t-14 45t-13.5 43q1 -24 2 -45.5t1.5 -47t0.5 -57v-73.5v-400h-113v759h195l130 -390l19.5 -58.5t15 -48t12.5 -43.5t12 -44q-2 24 -2.5 45t-1 44.5t-0.5 51.5v64v379h119v-759h-175z" />
    <glyph glyph-name="O" unicode="O" horiz-adv-x="584" 
d="M292 -9q-87 0 -134.5 24.5t-69 73t-25.5 121t-4 169.5t3.5 170t25.5 122t69.5 74t134.5 25q88 0 135.5 -25t69.5 -74t25.5 -122t3.5 -170t-4 -169.5t-26 -121t-69.5 -73t-134.5 -24.5zM374 419q0 72 -1.5 118t-9.5 73t-24.5 37t-46.5 10q-29 0 -45.5 -10t-24.5 -37
t-9.5 -73t-1.5 -118v-66q0 -74 1.5 -122.5t9.5 -77t24.5 -40t45.5 -11.5q30 0 46.5 11.5t24.5 40t9.5 77t1.5 122.5v66z" />
    <glyph glyph-name="P" unicode="P" horiz-adv-x="551" 
d="M67 0v759h255q62 0 99.5 -13.5t57.5 -42t26 -73t6 -105.5v-48q0 -55 -6.5 -97t-27.5 -70t-61.5 -42t-107.5 -14h-91v-254h-150zM364 531q0 21 -1.5 41t-8 35.5t-21 24.5t-40.5 9h-76v-274h75q26 0 40.5 8t21.5 21.5t8.5 31.5t1.5 38v65z" />
    <glyph glyph-name="Q" unicode="Q" horiz-adv-x="584" 
d="M511 -200q-19 -5 -42 -7.5t-47 -2.5q-43 0 -79 14t-61.5 41t-40 65t-14.5 86q-63 9 -97 37t-49.5 76t-18.5 115.5t-3 154.5q0 97 3.5 170t25.5 122t69.5 74t134.5 25q88 0 135.5 -25t69.5 -74t25.5 -122t3.5 -170q0 -95 -3.5 -166.5t-24 -120t-65 -74t-125.5 -27.5
q4 -26 16 -43t29.5 -27t39 -14t45.5 -4q47 0 73 10v-113zM374 419q0 72 -1.5 118t-9.5 73t-24.5 37t-46.5 10q-29 0 -45.5 -10t-24.5 -37t-9.5 -73t-1.5 -118v-66q0 -74 1.5 -122.5t9.5 -77t24.5 -40t45.5 -11.5q30 0 46.5 11.5t24.5 40t9.5 77t1.5 122.5v66z" />
    <glyph glyph-name="R" unicode="R" horiz-adv-x="567" 
d="M363 543q0 21 -2 39t-10 32t-23 22t-41 8h-70v-240h69q27 0 42.5 9t23 23.5t9.5 34t2 40.5v32zM376 0q-5 18 -7.5 44.5t-2.5 60.5v87q0 22 -2.5 41t-11 33t-24 22t-42.5 8h-69v-296h-150v759h220q57 0 99.5 -8.5t71 -30.5t42.5 -60t14 -97v-27q0 -91 -32 -132t-99 -49
q23 -3 46 -9.5t41 -21.5t29.5 -41.5t11.5 -69.5v-88q0 -39 2.5 -70.5t6.5 -54.5h-144z" />
    <glyph glyph-name="S" unicode="S" horiz-adv-x="557" 
d="M350 535q1 5 1.5 12.5t0.5 24.5t-3 32.5t-11 27.5t-21.5 19t-34.5 7q-24 0 -39 -7.5t-23.5 -20t-11.5 -29t-3 -35.5q0 -33 10 -54t27.5 -34.5t40.5 -21.5t49 -17t52.5 -20.5t51.5 -30.5q41 -32 53.5 -76t12.5 -98q0 -114 -52.5 -168.5t-169.5 -54.5q-52 0 -93.5 8t-71 30
t-45 60t-15.5 97q0 26 1 39t2 18h142q-1 -3 -2 -14t-1 -19q0 -21 3 -40.5t11.5 -34.5t24 -24t41.5 -9q48 0 63 27t15 69q0 35 -11 61.5t-51 47.5q-35 18 -75.5 31.5t-75.5 36.5t-58.5 62t-23.5 108v20q0 58 15 97t43.5 63t69.5 34.5t92 10.5q43 0 81 -7t66.5 -27t45.5 -55
t17 -92q0 -25 -1 -38t-2 -16h-137z" />
    <glyph glyph-name="T" unicode="T" horiz-adv-x="499" 
d="M176 0v638h-153v121h453v-121h-153v-638h-147z" />
    <glyph glyph-name="U" unicode="U" horiz-adv-x="587" 
d="M375 759h148v-560q0 -63 -15.5 -103.5t-45 -64t-72 -32t-96.5 -8.5q-57 0 -100 8.5t-72.5 32t-44 64t-14.5 103.5v560h148v-560q0 -57 21 -75.5t61 -18.5q43 0 62.5 19t19.5 75v560z" />
    <glyph glyph-name="V" unicode="V" horiz-adv-x="574" 
d="M175 0q-6 31 -17.5 91t-25.5 133.5t-29.5 154.5t-29.5 155t-25.5 133.5t-17.5 91.5h153l68 -415q6 -39 11 -70.5t9 -59t7.5 -53.5t6.5 -55q3 29 6.5 55t8 53.5t10 59t12.5 70.5l71 415h152l-155 -759h-215z" />
    <glyph glyph-name="W" unicode="W" horiz-adv-x="851" 
d="M525 0l-72 429q-6 36 -10 64.5t-7 52.5t-5 46t-4 45q-2 -23 -4.5 -45t-5.5 -46t-7.5 -52.5t-10.5 -64.5l-75 -429h-179q-5 31 -15 91t-21.5 133.5t-24.5 154.5t-25 155t-21.5 133.5t-14.5 91.5h142l60 -448q9 -74 12 -118.5t5 -78.5q2 34 6.5 78.5t16.5 118.5l74 448h181
l72 -448q12 -74 16 -118.5t6 -78.5q1 34 4 78.5t13 118.5l58 448h139l-121 -759h-182z" />
    <glyph glyph-name="X" unicode="X" horiz-adv-x="558" 
d="M374 0l-50 133q-11 30 -19 52.5t-14 41.5t-10.5 35.5t-8.5 33.5q-4 -17 -8.5 -33.5t-10 -35t-13.5 -40t-18 -48.5l-54 -139h-144l177 394l-164 365h156l42 -108q12 -30 20 -53t14 -41.5t10 -34t7 -30.5q3 15 7 30.5t9.5 34t13.5 41.5t20 53l42 108h144l-165 -360
l177 -399h-160z" />
    <glyph glyph-name="Y" unicode="Y" horiz-adv-x="557" 
d="M201 0v256l-177 503h149l67 -222q9 -29 15 -51t10.5 -40t7.5 -34l6 -32q3 16 5.5 32t7 34t10.5 40t15 51l71 222h144l-184 -503v-256h-147z" />
    <glyph glyph-name="Z" unicode="Z" horiz-adv-x="493" 
d="M38 0v132l260 507h-242v120h394v-120l-264 -521h268v-118h-416z" />
    <glyph glyph-name="bracketleft" unicode="[" horiz-adv-x="347" 
d="M98 -133v1003h212v-85h-117v-833h117v-85h-212z" />
    <glyph glyph-name="backslash" unicode="\" horiz-adv-x="358" 
d="M265 -41l-248 811h84l248 -811h-84z" />
    <glyph glyph-name="bracketright" unicode="]" horiz-adv-x="348" 
d="M37 -133v85h119v833h-119v85h213v-1003h-213z" />
    <glyph glyph-name="asciicircum" unicode="^" horiz-adv-x="512" 
d="M349 399l-96 258l-94 -258h-92l138 360h96l143 -360h-95z" />
    <glyph glyph-name="underscore" unicode="_" horiz-adv-x="480" 
d="M15 -124v73h451v-73h-451z" />
    <glyph glyph-name="grave" unicode="`" horiz-adv-x="361" 
d="M77 631v84l225 -76v-43z" />
    <glyph glyph-name="a" unicode="a" horiz-adv-x="521" 
d="M329 0q-2 14 -3 29.5t-2 31.5q-20 -39 -54.5 -54.5t-76.5 -15.5q-44 0 -71 13t-41.5 36t-19.5 54.5t-5 68.5q0 44 8.5 76t28 52.5t50.5 30.5t77 10q30 0 53 -4.5t46 -12.5v54q0 17 -1.5 32.5t-7.5 27t-18.5 18.5t-33.5 7q-32 0 -46.5 -15.5t-14.5 -41.5q0 -10 1 -14h-124
q0 56 16.5 88t42.5 47.5t58 19.5t64 4q18 0 39 -1.5t42 -5.5t41 -11.5t36 -19.5q15 -12 22.5 -29t11.5 -35.5t4.5 -37t0.5 -33.5v-276q0 -23 3.5 -48t8.5 -45h-135zM319 234q-23 13 -52 13q-40 0 -57 -17t-17 -68q0 -41 13 -58.5t45 -17.5q24 0 42 10.5t26 32.5v105z" />
    <glyph glyph-name="b" unicode="b" horiz-adv-x="520" 
d="M324 306q0 41 -2.5 67.5t-8.5 41.5t-17.5 21t-29.5 6q-36 0 -47 -27.5t-11 -86.5v-130q0 -58 13 -83.5t45 -25.5q18 0 29.5 6.5t17.5 23.5t8.5 47t2.5 77v63zM72 0v759h136v-287q20 33 48 51.5t73 18.5q49 0 75.5 -20t38.5 -55t14 -83.5t2 -106.5t-2 -110t-15 -91
t-40.5 -62t-78.5 -23q-42 0 -70.5 14t-50.5 55v-60h-130z" />
    <glyph glyph-name="c" unicode="c" horiz-adv-x="513" 
d="M455 181q-1 -48 -7 -83.5t-25.5 -59t-57 -35.5t-101.5 -12q-76 0 -117 21t-60 58.5t-22 89t-3 113.5q0 58 3 107.5t22 85.5t60 56t117 20q67 0 105 -12.5t57 -36.5t24 -59t6 -80h-129q0 27 -2.5 44.5t-9.5 27.5t-19.5 13.5t-31.5 3.5q-24 0 -37 -8.5t-19 -27t-7 -47
t-1 -67.5v-89q0 -30 2.5 -51.5t9.5 -36t19.5 -21t32.5 -6.5q21 0 33.5 4.5t19 15t9 28t2.5 44.5h127z" />
    <glyph glyph-name="d" unicode="d" horiz-adv-x="524" 
d="M317 328q0 59 -11 86.5t-48 27.5q-18 0 -29 -6t-17.5 -21t-9 -41.5t-2.5 -67.5v-63q0 -47 2.5 -77t9 -47t17.5 -23.5t29 -6.5q33 0 46 25.5t13 83.5v130zM322 0v60q-22 -41 -50 -55t-71 -14q-51 0 -78.5 23t-40.5 62t-15 91t-2 110t2 106.5t14 83.5t38.5 55t75.5 20
q46 0 74 -18.5t48 -51.5v287h135v-759h-130z" />
    <glyph glyph-name="e" unicode="e" horiz-adv-x="524" 
d="M193 240q0 -38 2 -66.5t9 -47.5t20 -28t36 -9q21 0 34.5 4t21 13.5t10.5 25.5t3 40h133q-1 -42 -8 -75.5t-28 -57t-60 -36t-104 -12.5q-76 0 -117 21t-60 58.5t-22 89t-3 113.5q0 58 3 107.5t22 85.5t60 56t117 20t117 -17t60 -49.5t22.5 -80.5t3.5 -110v-45h-272z
M327 315q0 33 -1.5 57t-8.5 39.5t-20 23.5t-37 8q-22 0 -35.5 -8.5t-20.5 -25t-9 -40t-2 -54.5h134z" />
    <glyph glyph-name="f" unicode="f" horiz-adv-x="338" 
d="M88 0v437h-57v95h58v60q0 38 6 69.5t22.5 54.5t44.5 35.5t73 12.5q39 0 69 -8v-96q-5 1 -11 2t-13 1q-29 0 -42 -14.5t-13 -42.5v-74h76v-95h-76v-437h-137z" />
    <glyph glyph-name="g" unicode="g" horiz-adv-x="509" 
d="M308 75q-17 -35 -49.5 -51t-68.5 -16q-50 0 -77.5 22.5t-40 59.5t-14.5 85.5t-2 101.5q0 51 2 99t14.5 85t40.5 59t80 22q38 0 70.5 -16t51.5 -52v58h129v-589q0 -92 -49 -130.5t-140 -38.5q-34 0 -67 4t-59.5 18.5t-42.5 41.5t-16 74q0 5 0.5 10t1.5 7h125q-2 -2 -2 -13
q0 -20 12.5 -31.5t43.5 -11.5q39 0 48 17t9 51v134zM308 333q0 21 -1.5 40.5t-7.5 35t-17.5 25t-30.5 9.5q-22 0 -34.5 -11t-18.5 -33t-7 -55t-1 -77t1 -74.5t6.5 -50t18 -28.5t35.5 -9q19 0 30 9.5t17 25t8 35.5t2 40v118z" />
    <glyph glyph-name="h" unicode="h" horiz-adv-x="522" 
d="M322 0v376q0 12 -1 24t-6.5 21.5t-16.5 15.5t-31 6q-19 0 -30.5 -6t-17.5 -15.5t-8 -21.5t-3 -23v-377h-136v759h136v-285q18 33 52 50.5t73 17.5q38 0 62.5 -9.5t38 -27t18.5 -42.5t5 -56v-407h-135z" />
    <glyph glyph-name="i" unicode="i" horiz-adv-x="285" 
d="M74 0v532h137v-532h-137zM74 638v121h137v-121h-137z" />
    <glyph glyph-name="j" unicode="j" horiz-adv-x="302" 
d="M6 -122q6 -2 12 -3t12 -1q58 0 58 64v594h136v-585q0 -38 -6.5 -69.5t-23.5 -54.5t-46 -36t-74 -13q-20 0 -36.5 1.5t-31.5 6.5v96zM87 638v121h137v-121h-137z" />
    <glyph glyph-name="k" unicode="k" horiz-adv-x="513" 
d="M334 0l-75 165q-12 28 -20.5 47.5t-14.5 35t-11 27.5t-9 25q1 -14 1.5 -27t1 -29.5t0.5 -38v-52.5v-153h-135v759h135v-320v-48.5t-0.5 -33t-1 -23t-1.5 -19.5q4 9 8.5 17.5t11.5 20.5t17.5 29t26.5 43l67 107h133l-137 -213l153 -319h-150z" />
    <glyph glyph-name="l" unicode="l" horiz-adv-x="281" 
d="M72 0v759h136v-759h-136z" />
    <glyph glyph-name="m" unicode="m" horiz-adv-x="749" 
d="M548 0v377q0 11 -1.5 22t-6.5 20t-15 14.5t-27 5.5q-29 0 -41 -20t-14 -41v-378h-129v377q0 12 -1.5 23.5t-7 20.5t-15.5 15t-27 6q-18 0 -28.5 -6t-16 -15.5t-7.5 -21.5t-3 -23v-376h-136v532h136v-59q16 34 46.5 51.5t68.5 17.5q56 0 82.5 -21t35.5 -56q17 42 50 59.5
t71 17.5q37 0 61 -9.5t37 -27t18 -42.5t5 -56v-407h-135z" />
    <glyph glyph-name="n" unicode="n" horiz-adv-x="522" 
d="M322 0v376q0 12 -1 24t-6.5 21.5t-16.5 15.5t-31 6q-19 0 -30.5 -6t-17.5 -15.5t-8 -21.5t-3 -23v-377h-136v532h136v-58q18 33 52 50.5t73 17.5q38 0 62.5 -9.5t38 -27t18.5 -42.5t5 -56v-407h-135z" />
    <glyph glyph-name="o" unicode="o" horiz-adv-x="530" 
d="M264 -9q-76 0 -117 21t-60.5 58.5t-23 89t-3.5 113.5q0 58 3.5 107.5t23 85.5t60.5 56t117 20t117.5 -20t61 -56t23 -85.5t3.5 -107.5q0 -62 -3.5 -113.5t-23 -89t-61 -58.5t-117.5 -21zM330 284q0 47 -2 77.5t-9 48.5t-20 25.5t-35 7.5t-35 -7.5t-20 -25.5t-9 -48.5
t-2 -77.5v-23q0 -52 2 -85t9 -52.5t20 -27t35 -7.5t35 7.5t20 27t9 52.5t2 85v23z" />
    <glyph glyph-name="p" unicode="p" horiz-adv-x="522" 
d="M324 290q0 47 -2.5 77t-8.5 47t-17.5 23.5t-29.5 6.5q-32 0 -45 -25.5t-13 -83.5v-130q0 -59 11 -86.5t47 -27.5q18 0 29.5 6t17.5 21t8.5 41.5t2.5 67.5v63zM72 -226v758h130v-59q22 41 50.5 55t70.5 14q51 0 78.5 -23t40.5 -62t15 -91t2 -110t-2 -106.5t-14 -84
t-38.5 -55t-75.5 -19.5q-45 0 -73 18.5t-48 51.5v-287h-136z" />
    <glyph glyph-name="q" unicode="q" horiz-adv-x="522" 
d="M314 335q0 58 -13 83.5t-45 25.5q-18 0 -29.5 -6.5t-18 -23.5t-9 -47t-2.5 -77v-63q0 -41 2.5 -67.5t9 -41.5t18 -21t29.5 -6q36 0 47 27.5t11 86.5v130zM314 -226v287q-20 -33 -48 -51.5t-73 -18.5q-49 0 -75.5 19.5t-38.5 55t-14 84t-2 106.5t2 110t15 91t40 62t78 23
q43 0 71 -14t51 -55v59h130v-758h-136z" />
    <glyph glyph-name="r" unicode="r" horiz-adv-x="404" 
d="M72 0v532h136v-59q21 38 56 53.5t76 15.5q8 0 18.5 -1t18.5 -3v-118q-28 11 -55 11q-21 0 -40.5 -5t-35.5 -16.5t-26.5 -29t-11.5 -41.5v-339h-136z" />
    <glyph glyph-name="s" unicode="s" horiz-adv-x="481" 
d="M285 380q1 6 1.5 11.5t0.5 10.5q0 23 -11 38.5t-40 15.5q-53 0 -53 -56q0 -31 21.5 -46.5t52 -25t64 -19t58.5 -29.5q27 -23 37 -55t10 -70q0 -55 -14.5 -87.5t-39.5 -49.5t-58.5 -22t-70.5 -5q-33 0 -67.5 3.5t-62.5 17t-45.5 41t-17.5 75.5q0 8 0.5 18.5t1.5 19.5h128
q-1 -5 -1.5 -12t-0.5 -12q0 -30 14 -45.5t47 -15.5q25 0 41.5 13t16.5 41q0 33 -18.5 49.5t-46 26.5t-59.5 18t-59.5 24.5t-46 45t-18.5 80.5t14 84t39 49.5t59 23.5t73 6q37 0 69 -5.5t56 -20t38 -39.5t14 -64v-17t-1 -16h-125z" />
    <glyph glyph-name="t" unicode="t" horiz-adv-x="337" 
d="M296 -2q-17 -3 -39.5 -5t-46.5 -2q-39 0 -65 10t-41 26t-21 36.5t-6 42.5v331h-57v95h57v160h136v-160h90v-95h-90v-292q0 -25 8 -41t37 -16q9 0 20 1t18 3v-94z" />
    <glyph glyph-name="u" unicode="u" horiz-adv-x="520" 
d="M311 0v59q-17 -34 -48.5 -51t-70.5 -17q-38 0 -62.5 9.5t-38.5 26.5t-19 42t-5 56v407h136v-376q0 -12 1 -24t6 -21.5t15.5 -15t29.5 -5.5q18 0 29 6t16.5 15.5t7.5 21t3 23.5v376h137v-532h-137z" />
    <glyph glyph-name="v" unicode="v" horiz-adv-x="470" 
d="M140 0q-5 22 -13.5 64t-19.5 93.5t-22.5 108t-22.5 108.5t-19.5 94t-13.5 64h135l39 -233q7 -41 12 -73t8.5 -57.5t6 -47t4.5 -42.5q2 21 5 42.5t6.5 47t8.5 57.5t12 73l40 233h134l-115 -532h-185z" />
    <glyph glyph-name="w" unicode="w" horiz-adv-x="725" 
d="M433 0l-43 230q-6 35 -10.5 61t-8 48t-6 41.5t-4.5 42.5q-2 -23 -4.5 -42.5t-5.5 -41.5t-8 -48t-12 -61l-45 -230h-166l-95 532h124l43 -299q4 -27 6 -46.5t3.5 -36.5t2.5 -33t2 -34q2 18 4 34t4.5 33t5.5 36.5t8 46.5l55 299h159l52 -302q4 -26 7.5 -45t6 -35.5t4 -32
t3.5 -34.5q0 19 1 34.5t2.5 32t4.5 35.5t7 45l46 302h121q-4 -22 -12 -64t-17.5 -94t-20 -108.5t-20 -108t-17.5 -93.5t-12 -64h-165z" />
    <glyph glyph-name="x" unicode="x" horiz-adv-x="509" 
d="M330 0l-37 78q-21 44 -30 69.5t-15 47.5q-7 -22 -17 -47.5t-31 -69.5l-38 -78h-136l154 275l-145 257h148l29 -63q19 -39 29 -63.5t17 -44.5q7 20 17 44.5t29 63.5l30 63h138l-144 -253q7 -11 19 -33t26.5 -49.5t30.5 -57t30.5 -57t26.5 -49.5t19 -33h-150z" />
    <glyph glyph-name="y" unicode="y" horiz-adv-x="500" 
d="M147 -226l54 192l-171 566h134l61 -252q7 -30 12.5 -52.5t9.5 -41.5t7 -36t5 -35q2 18 4.5 35t5.5 36t8 41.5t11 51.5l54 253h135l-200 -758h-130z" />
    <glyph glyph-name="z" unicode="z" horiz-adv-x="436" 
d="M45 0v106l205 331h-196v95h331v-95l-200 -343h204v-94h-344z" />
    <glyph glyph-name="braceleft" unicode="{" horiz-adv-x="365" 
d="M263 -133q-24 0 -47.5 7.5t-42.5 25t-30.5 47.5t-11.5 75v206q0 47 -6.5 69t-24.5 22h-41v95h41q20 0 25.5 23.5t5.5 61.5v229q0 40 11 67.5t29.5 44t42 23.5t48.5 7h63v-86h-56q-23 0 -34 -21t-11 -72v-216q0 -43 -13 -69t-40 -40q31 -20 42 -46.5t11 -74.5v-199
q0 -30 3 -48t8.5 -28t14 -13t19.5 -3h57v-87h-63z" />
    <glyph glyph-name="bar" unicode="|" horiz-adv-x="286" 
d="M96 -177v1053h94v-1053h-94z" />
    <glyph glyph-name="braceright" unicode="}" horiz-adv-x="365" 
d="M38 -133v87h58q11 0 19.5 3t14.5 13t9 28t3 48v199q0 24 2 42t8 32.5t16 25.5t26 21q-26 14 -39 40t-13 69v216q0 51 -11.5 72t-34.5 21h-56v86h63q24 0 47.5 -7t42 -23.5t30 -44t11.5 -67.5v-229q0 -38 5.5 -61.5t25.5 -23.5h41v-95h-41q-17 0 -24 -22t-7 -69v-206
q0 -45 -12 -75t-30.5 -47.5t-42 -25t-47.5 -7.5h-64z" />
    <glyph glyph-name="asciitilde" unicode="~" 
d="M472 326q-50 -42 -114 -42q-28 0 -54 7.5t-52.5 16t-53.5 16t-57 7.5q-40 0 -63.5 -12t-47.5 -39v94q26 22 54.5 31.5t60.5 9.5q28 0 54.5 -7t53 -15.5t53 -15.5t56.5 -7q40 0 63 11.5t47 38.5v-94z" />
    <glyph glyph-name="uni00A0" unicode="&#xa0;" horiz-adv-x="238" 
 />
    <glyph glyph-name="exclamdown" unicode="&#xa1;" horiz-adv-x="323" 
d="M213.006 539.014l20.999 -538.968h-151.99l21.998 538.968h108.993zM221.006 759v-142.991h-125.992v142.991h125.992z" />
    <glyph glyph-name="cent" unicode="&#xa2;" 
d="M210 0v113q-58 7 -89.5 30t-46 60t-17 85.5t-2.5 105.5q0 53 2.5 99t17 81t46 57t89.5 28v100h94v-99q50 -5 79 -19t43 -37.5t18 -56t5 -72.5h-128q0 27 -2.5 44.5t-9.5 27t-19.5 13t-31.5 3.5q-41 0 -53 -25.5t-12 -83.5v-120q0 -63 11.5 -94t53.5 -31q20 0 32.5 4
t19.5 14.5t9.5 28.5t2.5 45h126q-1 -43 -6 -76t-20 -56.5t-43 -38t-75 -18.5v-112h-94z" />
    <glyph glyph-name="sterling" unicode="&#xa3;" 
d="M441 0q-47 0 -94.5 9t-88.5 42q-23 -35 -54 -47.5t-69 -12.5q-51 0 -79.5 23t-28.5 80q0 63 25.5 90.5t77.5 27.5q21 0 41 -4.5t34 -13.5q-2 35 -10 64t-19 58h-99v74h66q-23 45 -39.5 91t-16.5 105q0 43 5.5 77t25.5 58t58.5 36.5t104.5 12.5q60 0 98 -10.5t59.5 -32
t29.5 -55t8 -78.5v-34h-124q0 21 -1.5 39t-7.5 31t-19.5 20t-37.5 7t-38 -7t-20.5 -20t-8.5 -30t-2 -36q0 -49 15.5 -91t33.5 -83h161v-74h-135q6 -21 10.5 -43t4.5 -46q0 -42 -13 -78q30 -21 57.5 -26.5t61.5 -5.5h60v-117h-32zM194 120q-12 11 -26 19.5t-32 8.5
q-21 0 -28 -11.5t-7 -28.5t5.5 -31t25.5 -14q24 0 39 18t23 39z" />
    <glyph glyph-name="currency" unicode="&#xa4;" horiz-adv-x="644" 
d="M439 168q-26 -15 -55 -24t-61 -9t-61.5 9t-55.5 24l-67 -73l-80 80l72 68q-15 25 -23.5 54.5t-8.5 61.5t8.5 61.5t23.5 55.5l-71 66l79 79l65 -71q26 16 56 25t63 9q32 0 61.5 -9t55.5 -25l65 71l78 -79q-1 -2 -11.5 -11.5t-22.5 -21t-23 -21.5t-12 -11q16 -26 24.5 -56
t8.5 -62q0 -33 -8.5 -62.5t-24.5 -54.5l70 -67l-78 -80zM477 359q0 32 -12 60t-33 49t-49 33t-60 12t-60 -12t-48.5 -33t-32.5 -49t-12 -60t12 -60t32.5 -48.5t48.5 -32.5t60 -12t60 12t49 32.5t33 48.5t12 60z" />
    <glyph glyph-name="yen" unicode="&#xa5;" 
d="M322 121v-121h-145v121h-138v94h138v115h-138v94h115l-136 335h147l91 -261l91 261h138l-141 -335h116v-94h-138v-115h138v-94h-138z" />
    <glyph glyph-name="brokenbar" unicode="&#xa6;" horiz-adv-x="286" 
d="M96 -177v462h94v-462h-94zM96 434v442h94v-442h-94z" />
    <glyph glyph-name="section" unicode="&#xa7;" horiz-adv-x="506" 
d="M183 13q0 -30 12 -52t49 -22q21 0 33.5 6.5t19.5 17.5t9.5 25t2.5 30q0 42 -19 62t-48 32.5t-64 24.5t-67 37q-36 29 -47 62.5t-11 85.5q0 41 11.5 73t31.5 55q-27 27 -35 65.5t-8 76.5q0 52 13.5 86.5t38.5 54.5t60 28.5t79 8.5q38 0 71.5 -7t58 -26t38.5 -53t14 -88
v-30h-119v26q0 33 -12.5 56.5t-49.5 23.5q-39 0 -51 -22.5t-12 -54.5q0 -43 18.5 -63.5t47.5 -33.5t64 -24.5t67 -36.5q35 -28 47 -64.5t12 -84.5q0 -41 -12 -72.5t-30 -54.5q23 -24 32.5 -56.5t9.5 -67.5q0 -60 -14.5 -98.5t-40.5 -60t-61 -29.5t-77 -8q-38 0 -71 6
t-57.5 23t-39 48t-14.5 81v46h120v-32zM293 219q8 11 10.5 25t2.5 30q0 29 -8.5 47.5t-23.5 31.5t-35 21.5t-43 17.5q-7 -10 -9.5 -24.5t-2.5 -30.5q0 -28 7.5 -47t22 -31.5t34.5 -21.5t45 -18z" />
    <glyph glyph-name="dieresis" unicode="&#xa8;" horiz-adv-x="439" 
d="M273 597v118h98v-118h-98zM67 597v118h98v-118h-98z" />
    <glyph glyph-name="ordfeminine" unicode="&#xaa;" horiz-adv-x="347" 
d="M211 300l-3 34q-11 -22 -30 -30.5t-42 -8.5q-24 0 -39 7t-23 20t-10.5 30.5t-2.5 37.5q0 49 19.5 71t70.5 22q17 0 29.5 -2.5t24.5 -7.5v30q0 19 -5 33t-28 14q-34 0 -34 -32q0 -5 1 -7h-68q0 31 9 48.5t23 26t32 10.5t35 2q20 0 45 -3.5t42 -17.5q17 -13 19.5 -35
t2.5 -39v-152q0 -13 1.5 -26.5t4.5 -24.5h-74zM205 429q-11 7 -28 7q-22 0 -31.5 -9t-9.5 -38q0 -23 7 -32.5t25 -9.5q28 0 37 24v58z" />
    <glyph glyph-name="guillemotleft" unicode="&#xab;" horiz-adv-x="618" 
d="M216 91l-178 232l178 231l53 -50l-135 -181l137 -179zM525 91l-178 232l178 231l53 -50l-135 -181l137 -179z" />
    <glyph glyph-name="logicalnot" unicode="&#xac;" 
d="M321 0v369h-275v141h412v-510h-137z" />
    <glyph glyph-name="macron" unicode="&#xaf;" horiz-adv-x="408" 
d="M67 627v69h274v-69h-274z" />
    <glyph glyph-name="degree" unicode="&#xb0;" horiz-adv-x="383" 
d="M190 509q-32 0 -55 10.5t-37.5 28t-21.5 41t-7 50.5t7 51t21.5 42t37.5 28t55 10q34 0 57.5 -10t38 -28t21 -42t6.5 -51t-6.5 -50.5t-21 -41t-38 -28t-57.5 -10.5zM190 569q32 0 47 20.5t15 49.5t-14.5 48.5t-47.5 19.5q-31 0 -45 -19.5t-14 -48.5t14 -49.5t45 -20.5z
" />
    <glyph glyph-name="plusminus" unicode="&#xb1;" 
d="M206 142v180h-176v95h176v179h91v-179h175v-95h-175v-180h-91zM30 1v95h442v-95h-442z" />
    <glyph glyph-name="uni00B2" unicode="&#xb2;" horiz-adv-x="303" 
d="M47 389v54q0 30 7 51t20 37.5t31 30t40 27.5q27 17 34 36t7 50q0 8 -0.5 16.5t-3.5 15t-10 11t-19 4.5q-22 0 -29 -14.5t-7 -37.5v-16h-66v21q0 54 22.5 76.5t77.5 22.5q49 0 76 -20t27 -75q0 -35 -7.5 -63.5t-27.5 -48.5q-15 -14 -33 -23.5t-34 -20.5t-27 -26t-11 -40
v-17h141v-51h-208z" />
    <glyph glyph-name="uni00B3" unicode="&#xb3;" horiz-adv-x="302" 
d="M110 487q0 -23 7 -38.5t33 -15.5q28 0 34 15t6 39q0 14 -1.5 27t-5.5 23.5t-12 16.5t-20 6h-46v52h46q13 0 20 6t11 15t5 20.5t1 22.5q0 20 -6 34t-32 14q-27 0 -32.5 -14t-5.5 -34v-10h-63v7q0 19 2 37t12 32.5t30.5 23t57.5 8.5t57.5 -8.5t31 -22.5t13 -32.5t2.5 -37.5
q0 -35 -11.5 -55t-44.5 -28q39 -11 49.5 -37t10.5 -66q0 -23 -3.5 -41.5t-15 -32t-33 -21t-56.5 -7.5t-56.5 7.5t-32.5 21t-14.5 32t-3.5 41.5v17h66v-17z" />
    <glyph glyph-name="acute" unicode="&#xb4;" horiz-adv-x="361" 
d="M57 596v43l225 76v-84z" />
    <glyph glyph-name="mu" unicode="&#xb5;" horiz-adv-x="518" 
d="M313 0v58q-14 -23 -39.5 -39.5t-69.5 -20.5v-224h-135v758h135v-376q0 -12 1 -24t6.5 -21.5t16 -15.5t28.5 -6q19 0 30 6t16.5 16t7.5 21.5t3 23.5v376h137v-532h-137z" />
    <glyph glyph-name="paragraph" unicode="&#xb6;" horiz-adv-x="569" 
d="M374 -142v817h-106v-734q0 -41 -16.5 -62t-60.5 -21h-80v78h47q15 0 15 20v559q-57 8 -81.5 41t-24.5 79q0 25 7 47.5t21.5 39.5t37 27t53.5 10h315v-29l-34 -56v-816h-93z" />
    <glyph glyph-name="periodcentered" unicode="&#xb7;" horiz-adv-x="263" 
d="M67 313v143h127v-143h-127z" />
    <glyph glyph-name="cedilla" unicode="&#xb8;" horiz-adv-x="263" 
d="M79 -226l31 78h-43v114h127v-98l-61 -94h-54z" />
    <glyph glyph-name="uni00B9" unicode="&#xb9;" horiz-adv-x="292" 
d="M136 389v262q0 15 0.5 31t1.5 28q-7 -9 -16.5 -20.5t-18.5 -22.5l-37 -42l-36 34l99 109h77v-379h-70z" />
    <glyph glyph-name="ordmasculine" unicode="&#xba;" horiz-adv-x="351" 
d="M175 295q-42 0 -64.5 11.5t-33 32t-12.5 49t-2 62.5q0 32 2 59.5t12.5 47t33 30.5t64.5 11t65 -11t33.5 -30.5t12.5 -47t2 -59.5q0 -34 -2 -62.5t-12.5 -49t-33.5 -32t-65 -11.5zM212 456q0 52 -6.5 70t-30.5 18t-30 -18t-6 -70v-12q0 -57 6 -76t30 -19t30.5 19t6.5 76
v12z" />
    <glyph glyph-name="guillemotright" unicode="&#xbb;" horiz-adv-x="618" 
d="M38 144l137 179l-135 181l53 50l178 -231l-178 -232zM347 144l137 179l-135 181l53 50l178 -231l-178 -232z" />
    <glyph glyph-name="onequarter" unicode="&#xbc;" horiz-adv-x="805" 
d="M176 389v262q0 15 0.5 31t1.5 28q-7 -9 -16.5 -20.5t-18.5 -22.5l-37 -42l-36 34l99 109h77v-379h-70zM182 -21l378 801h80l-377 -801h-81zM641 -10v68h-128v62l97 249h96v-259h28v-52h-28v-68h-65zM644 226q0 51 1 78t3 41q-5 -14 -13 -40t-25 -74l-44 -121h78v116z" />
    <glyph glyph-name="onehalf" unicode="&#xbd;" horiz-adv-x="788" 
d="M176 389v262q0 15 0.5 31t1.5 28q-7 -9 -16.5 -20.5t-18.5 -22.5l-37 -42l-36 34l99 109h77v-379h-70zM172 -21l378 801h80l-377 -801h-81zM509 -10v54q0 30 7 51t20 37.5t31 30t40 27.5q27 17 34 36t7 50q0 8 -0.5 16.5t-3.5 15t-10 11t-19 4.5q-22 0 -29 -14.5
t-7 -37.5v-16h-66v21q0 54 22.5 76.5t77.5 22.5q49 0 76 -20t27 -75q0 -35 -7.5 -63.5t-27.5 -48.5q-15 -14 -33 -23.5t-34 -20.5t-27 -26t-11 -40v-17h141v-51h-208z" />
    <glyph glyph-name="threequarters" unicode="&#xbe;" horiz-adv-x="761" 
d="M136 487q0 -23 7 -38.5t33 -15.5q28 0 34 15t6 39q0 14 -1.5 27t-5.5 23.5t-12 16.5t-20 6h-46v52h46q13 0 20 6t11 15t5 20.5t1 22.5q0 20 -6 34t-32 14q-27 0 -32.5 -14t-5.5 -34v-10h-63v7q0 19 2 37t12 32.5t30.5 23t57.5 8.5t57.5 -8.5t31 -22.5t13 -32.5t2.5 -37.5
q0 -35 -11.5 -55t-44.5 -28q39 -11 49.5 -37t10.5 -66q0 -23 -3.5 -41.5t-15 -32t-33 -21t-56.5 -7.5t-56.5 7.5t-32.5 21t-14.5 32t-3.5 41.5v17h66v-17zM158 -21l378 801h80l-377 -801h-81zM597 -10v68h-128v62l97 249h96v-259h28v-52h-28v-68h-65zM600 226q0 51 1 78
t3 41q-5 -14 -13 -40t-25 -74l-44 -121h78v116z" />
    <glyph glyph-name="questiondown" unicode="&#xbf;" horiz-adv-x="494" 
d="M320.011 759v-142.991h-125.992v142.991h125.992zM317.011 542.014v-53.9971q0 -36.998 -3 -66.4961q-2.99902 -29.498 -16.999 -53.4971q-14.999 -24.998 -36.4971 -44.4971q-21.499 -19.499 -41.498 -41.4971q-18.999 -19.999 -23.998 -39.498q-5 -19.498 -5 -45.4971
q0 -20.999 1.5 -38.9971q1.5 -17.999 7.49902 -31.498q6 -13.5 17.999 -21.499q12 -8 32.998 -8q20.999 0 32.998 8.5q11.999 8.49902 17.999 22.498q6 14 7.5 30.999q1.5 16.998 1.5 34.9971v23.999h128.992v-23.999q0 -42.9971 -4.5 -80.4951
q-4.5 -37.4971 -23.999 -65.4961q-19.499 -27.998 -58.9961 -43.4971q-39.498 -15.499 -108.493 -15.499q-64.9961 0 -103.494 14.999q-38.4971 14.999 -57.9961 38.498q-19.499 23.498 -24.999 52.9971q-5.49902 29.498 -5.49902 58.4961q0 43.9971 4.49902 86.9941
q4.5 42.998 31.499 77.9961q16.998 20.998 35.9971 38.4971t35.498 36.498t27.498 41.9971q11 22.999 11 54.9971v50.9971h119.992z" />
    <glyph glyph-name="Agrave" unicode="&#xc0;" horiz-adv-x="574" 
d="M391 0l-28 169h-154l-29 -169h-150l153 759h214l148 -759h-154zM318 449q-6 35 -10.5 61.5t-7.5 49t-5.5 44.5t-5.5 48q-3 -26 -6 -48t-6.5 -44.5t-8 -49t-10.5 -61.5l-31 -166h119zM154 858v84l225 -76v-43z" />
    <glyph glyph-name="Aacute" unicode="&#xc1;" horiz-adv-x="574" 
d="M391 0l-28 169h-154l-29 -169h-150l153 759h214l148 -759h-154zM318 449q-6 35 -10.5 61.5t-7.5 49t-5.5 44.5t-5.5 48q-3 -26 -6 -48t-6.5 -44.5t-8 -49t-10.5 -61.5l-31 -166h119zM194 823v43l225 76v-84z" />
    <glyph glyph-name="Acircumflex" unicode="&#xc2;" horiz-adv-x="574" 
d="M391 0l-28 169h-154l-29 -169h-150l153 759h214l148 -759h-154zM318 449q-6 35 -10.5 61.5t-7.5 49t-5.5 44.5t-5.5 48q-3 -26 -6 -48t-6.5 -44.5t-8 -49t-10.5 -61.5l-31 -166h119zM287 888l-144 -73v47l144 112l143 -112v-47z" />
    <glyph glyph-name="Atilde" unicode="&#xc3;" horiz-adv-x="574" 
d="M391 0l-28 169h-154l-29 -169h-150l153 759h214l148 -759h-154zM318 449q-6 35 -10.5 61.5t-7.5 49t-5.5 44.5t-5.5 48q-3 -26 -6 -48t-6.5 -44.5t-8 -49t-10.5 -61.5l-31 -166h119zM424 872q-31 -32 -72 -32q-17 0 -33 6t-32.5 12.5t-33 12.5t-35.5 6q-25 0 -39 -9.5
t-30 -29.5v73q17 17 34.5 24t36.5 7q18 0 34.5 -6t32.5 -12.5t33 -12.5t35 -6q25 0 39.5 10t29.5 30v-73z" />
    <glyph glyph-name="Adieresis" unicode="&#xc4;" horiz-adv-x="574" 
d="M391 0l-28 169h-154l-29 -169h-150l153 759h214l148 -759h-154zM318 449q-6 35 -10.5 61.5t-7.5 49t-5.5 44.5t-5.5 48q-3 -26 -6 -48t-6.5 -44.5t-8 -49t-10.5 -61.5l-31 -166h119zM341 824v118h98v-118h-98zM135 824v118h98v-118h-98z" />
    <glyph glyph-name="Aring" unicode="&#xc5;" horiz-adv-x="574" 
d="M391 0l-28 169h-154l-29 -169h-150l153 759h214l148 -759h-154zM318 449q-6 35 -10.5 61.5t-7.5 49t-5.5 44.5t-5.5 48q-3 -26 -6 -48t-6.5 -44.5t-8 -49t-10.5 -61.5l-31 -166h119zM378 883q0 -15 -2.5 -31t-12 -29t-27.5 -21.5t-49 -8.5t-49 8.5t-27.5 21.5t-12.5 29
t-3 31t3 31.5t12.5 29.5t27.5 21.5t49 8.5t49 -8.5t27.5 -21.5t12 -29.5t2.5 -31.5zM287 827q33 0 41 17.5t8 38.5q0 10 -1.5 20.5t-6.5 18.5t-15 13t-26 5q-17 0 -27 -5t-15 -13t-6.5 -18.5t-1.5 -20.5q0 -11 1.5 -21t6.5 -17.5t15 -12.5t27 -5z" />
    <glyph glyph-name="AE" unicode="&#xc6;" horiz-adv-x="767" 
d="M360 0v170h-141l-39 -170h-150l194 759h483v-126h-209v-170h199v-127h-199v-212h212v-124h-350zM360 633h-40l-76 -350h116v350z" />
    <glyph glyph-name="Ccedilla" unicode="&#xc7;" horiz-adv-x="570" 
d="M512 271q0 -62 -4.5 -113t-26 -88.5t-66 -58t-123.5 -20.5q-87 0 -134.5 24.5t-69.5 73t-26 121t-4 169.5t3.5 170t25.5 122t69.5 74t135.5 25q77 0 121 -19t66 -54t27.5 -83.5t5.5 -106.5h-139q-1 41 -4 69.5t-11 46.5t-24 26t-42 8q-30 0 -47 -12.5t-24.5 -44t-9 -85
t-1.5 -135.5t1 -135.5t8.5 -85t24 -44.5t48.5 -13q27 0 43 9t24.5 29t11 52t2.5 79h139zM240 -226l31 78h-43v114h127v-98l-61 -94h-54z" />
    <glyph glyph-name="Egrave" unicode="&#xc8;" horiz-adv-x="504" 
d="M67 0v759h378v-126h-240v-170h230v-127h-230v-212h244v-124h-382zM119 858v84l225 -76v-43z" />
    <glyph glyph-name="Eacute" unicode="&#xc9;" horiz-adv-x="504" 
d="M67 0v759h378v-126h-240v-170h230v-127h-230v-212h244v-124h-382zM159 823v43l225 76v-84z" />
    <glyph glyph-name="Ecircumflex" unicode="&#xca;" horiz-adv-x="504" 
d="M67 0v759h378v-126h-240v-170h230v-127h-230v-212h244v-124h-382zM257 888l-144 -73v47l144 112l143 -112v-47z" />
    <glyph glyph-name="Edieresis" unicode="&#xcb;" horiz-adv-x="504" 
d="M67 0v759h378v-126h-240v-170h230v-127h-230v-212h244v-124h-382zM314 824v118h98v-118h-98zM108 824v118h98v-118h-98z" />
    <glyph glyph-name="Igrave" unicode="&#xcc;" horiz-adv-x="297" 
d="M74 0v759h149v-759h-149zM17 858v84l225 -76v-43z" />
    <glyph glyph-name="Iacute" unicode="&#xcd;" horiz-adv-x="297" 
d="M74 0v759h149v-759h-149zM57 823v43l225 76v-84z" />
    <glyph glyph-name="Icircumflex" unicode="&#xce;" horiz-adv-x="297" 
d="M74 0v759h149v-759h-149zM150 888l-144 -73v47l144 112l143 -112v-47z" />
    <glyph glyph-name="Idieresis" unicode="&#xcf;" horiz-adv-x="297" 
d="M74 0v759h149v-759h-149zM204 824v118h98v-118h-98zM-2 824v118h98v-118h-98z" />
    <glyph glyph-name="Eth" unicode="&#xd0;" horiz-adv-x="574" 
d="M58 0v336h-37v127h37v296h236q66 0 109 -17.5t68 -56.5t35 -102.5t10 -154.5v-97q0 -92 -10 -155t-35 -102t-68 -56.5t-109 -17.5h-236zM281 114q28 0 45 13.5t26 37.5t12 57t3 72v170q0 39 -3 72t-12 57t-26 37.5t-45 13.5h-74v-181h84v-127h-84v-222h74z" />
    <glyph glyph-name="Ntilde" unicode="&#xd1;" horiz-adv-x="627" 
d="M388 0l-146 414q-14 39 -24 68t-17.5 53t-14 45t-13.5 43q1 -24 2 -45.5t1.5 -47t0.5 -57v-73.5v-400h-113v759h195l130 -390l19.5 -58.5t15 -48t12.5 -43.5t12 -44q-2 24 -2.5 45t-1 44.5t-0.5 51.5v64v379h119v-759h-175zM451 872q-31 -32 -72 -32q-17 0 -33 6
t-32.5 12.5t-33 12.5t-35.5 6q-25 0 -39 -9.5t-30 -29.5v73q17 17 34.5 24t36.5 7q18 0 34.5 -6t32.5 -12.5t33 -12.5t35 -6q25 0 39.5 10t29.5 30v-73z" />
    <glyph glyph-name="Ograve" unicode="&#xd2;" horiz-adv-x="584" 
d="M292 -9q-87 0 -134.5 24.5t-69 73t-25.5 121t-4 169.5t3.5 170t25.5 122t69.5 74t134.5 25q88 0 135.5 -25t69.5 -74t25.5 -122t3.5 -170t-4 -169.5t-26 -121t-69.5 -73t-134.5 -24.5zM374 419q0 72 -1.5 118t-9.5 73t-24.5 37t-46.5 10q-29 0 -45.5 -10t-24.5 -37
t-9.5 -73t-1.5 -118v-66q0 -74 1.5 -122.5t9.5 -77t24.5 -40t45.5 -11.5q30 0 46.5 11.5t24.5 40t9.5 77t1.5 122.5v66zM159 858v84l225 -76v-43z" />
    <glyph glyph-name="Oacute" unicode="&#xd3;" horiz-adv-x="584" 
d="M292 -9q-87 0 -134.5 24.5t-69 73t-25.5 121t-4 169.5t3.5 170t25.5 122t69.5 74t134.5 25q88 0 135.5 -25t69.5 -74t25.5 -122t3.5 -170t-4 -169.5t-26 -121t-69.5 -73t-134.5 -24.5zM374 419q0 72 -1.5 118t-9.5 73t-24.5 37t-46.5 10q-29 0 -45.5 -10t-24.5 -37
t-9.5 -73t-1.5 -118v-66q0 -74 1.5 -122.5t9.5 -77t24.5 -40t45.5 -11.5q30 0 46.5 11.5t24.5 40t9.5 77t1.5 122.5v66zM199 823v43l225 76v-84z" />
    <glyph glyph-name="Ocircumflex" unicode="&#xd4;" horiz-adv-x="584" 
d="M292 -9q-87 0 -134.5 24.5t-69 73t-25.5 121t-4 169.5t3.5 170t25.5 122t69.5 74t134.5 25q88 0 135.5 -25t69.5 -74t25.5 -122t3.5 -170t-4 -169.5t-26 -121t-69.5 -73t-134.5 -24.5zM374 419q0 72 -1.5 118t-9.5 73t-24.5 37t-46.5 10q-29 0 -45.5 -10t-24.5 -37
t-9.5 -73t-1.5 -118v-66q0 -74 1.5 -122.5t9.5 -77t24.5 -40t45.5 -11.5q30 0 46.5 11.5t24.5 40t9.5 77t1.5 122.5v66zM292 888l-144 -73v47l144 112l143 -112v-47z" />
    <glyph glyph-name="Otilde" unicode="&#xd5;" horiz-adv-x="584" 
d="M292 -9q-87 0 -134.5 24.5t-69 73t-25.5 121t-4 169.5t3.5 170t25.5 122t69.5 74t134.5 25q88 0 135.5 -25t69.5 -74t25.5 -122t3.5 -170t-4 -169.5t-26 -121t-69.5 -73t-134.5 -24.5zM374 419q0 72 -1.5 118t-9.5 73t-24.5 37t-46.5 10q-29 0 -45.5 -10t-24.5 -37
t-9.5 -73t-1.5 -118v-66q0 -74 1.5 -122.5t9.5 -77t24.5 -40t45.5 -11.5q30 0 46.5 11.5t24.5 40t9.5 77t1.5 122.5v66zM429 872q-31 -32 -72 -32q-17 0 -33 6t-32.5 12.5t-33 12.5t-35.5 6q-25 0 -39 -9.5t-30 -29.5v73q17 17 34.5 24t36.5 7q18 0 34.5 -6t32.5 -12.5
t33 -12.5t35 -6q25 0 39.5 10t29.5 30v-73z" />
    <glyph glyph-name="Odieresis" unicode="&#xd6;" horiz-adv-x="584" 
d="M292 -9q-87 0 -134.5 24.5t-69 73t-25.5 121t-4 169.5t3.5 170t25.5 122t69.5 74t134.5 25q88 0 135.5 -25t69.5 -74t25.5 -122t3.5 -170t-4 -169.5t-26 -121t-69.5 -73t-134.5 -24.5zM374 419q0 72 -1.5 118t-9.5 73t-24.5 37t-46.5 10q-29 0 -45.5 -10t-24.5 -37
t-9.5 -73t-1.5 -118v-66q0 -74 1.5 -122.5t9.5 -77t24.5 -40t45.5 -11.5q30 0 46.5 11.5t24.5 40t9.5 77t1.5 122.5v66zM346 824v118h98v-118h-98zM140 824v118h98v-118h-98z" />
    <glyph glyph-name="multiply" unicode="&#xd7;" 
d="M380 177l-128 127l-124 -125l-67 68l124 124l-126 127l64 64l127 -127l123 124l68 -67l-124 -124l127 -127z" />
    <glyph glyph-name="Oslash" unicode="&#xd8;" horiz-adv-x="584" 
d="M84 -60l40 98q-24 22 -37.5 54.5t-19.5 75t-7 95.5t-1 116q0 97 3.5 170t25.5 122t69.5 74t134.5 25q72 0 119 -18l31 77l54 -20l-35 -87q24 -23 37.5 -55.5t19.5 -75.5t7 -96t1 -116q0 -97 -4 -169.5t-26 -121t-69.5 -73t-134.5 -24.5q-36 0 -64.5 4t-51.5 12l-37 -91z
M358 622q-8 20 -24 27.5t-42 7.5q-29 0 -45.5 -10t-24.5 -37t-9.5 -73t-1.5 -118v-66v-96zM374 419v43.5t-1 38.5l-146 -364q9 -20 24.5 -27.5t40.5 -7.5q30 0 46.5 11.5t24.5 40t9.5 77t1.5 122.5v66z" />
    <glyph glyph-name="Ugrave" unicode="&#xd9;" horiz-adv-x="587" 
d="M375 759h148v-560q0 -63 -15.5 -103.5t-45 -64t-72 -32t-96.5 -8.5q-57 0 -100 8.5t-72.5 32t-44 64t-14.5 103.5v560h148v-560q0 -57 21 -75.5t61 -18.5q43 0 62.5 19t19.5 75v560zM161 858v84l225 -76v-43z" />
    <glyph glyph-name="Uacute" unicode="&#xda;" horiz-adv-x="587" 
d="M375 759h148v-560q0 -63 -15.5 -103.5t-45 -64t-72 -32t-96.5 -8.5q-57 0 -100 8.5t-72.5 32t-44 64t-14.5 103.5v560h148v-560q0 -57 21 -75.5t61 -18.5q43 0 62.5 19t19.5 75v560zM201 823v43l225 76v-84z" />
    <glyph glyph-name="Ucircumflex" unicode="&#xdb;" horiz-adv-x="587" 
d="M375 759h148v-560q0 -63 -15.5 -103.5t-45 -64t-72 -32t-96.5 -8.5q-57 0 -100 8.5t-72.5 32t-44 64t-14.5 103.5v560h148v-560q0 -57 21 -75.5t61 -18.5q43 0 62.5 19t19.5 75v560zM294 888l-144 -73v47l144 112l143 -112v-47z" />
    <glyph glyph-name="Udieresis" unicode="&#xdc;" horiz-adv-x="587" 
d="M375 759h148v-560q0 -63 -15.5 -103.5t-45 -64t-72 -32t-96.5 -8.5q-57 0 -100 8.5t-72.5 32t-44 64t-14.5 103.5v560h148v-560q0 -57 21 -75.5t61 -18.5q43 0 62.5 19t19.5 75v560zM347 824v118h98v-118h-98zM141 824v118h98v-118h-98z" />
    <glyph glyph-name="Yacute" unicode="&#xdd;" horiz-adv-x="557" 
d="M201 0v256l-177 503h149l67 -222q9 -29 15 -51t10.5 -40t7.5 -34l6 -32q3 16 5.5 32t7 34t10.5 40t15 51l71 222h144l-184 -503v-256h-147zM186 823v43l225 76v-84z" />
    <glyph glyph-name="Thorn" unicode="&#xde;" horiz-adv-x="547" 
d="M67 0v759h150v-123h105q62 0 99.5 -13.5t57.5 -42t26 -73t6 -105.5v-58q0 -55 -6.5 -97t-27.5 -70t-61.5 -42t-107.5 -14h-91v-121h-150zM364 408q0 21 -1.5 41t-8 35.5t-21 24.5t-40.5 9h-76v-281h75q26 0 40.5 8t21.5 21.5t8.5 31.5t1.5 38v72z" />
    <glyph glyph-name="germandbls" unicode="&#xdf;" horiz-adv-x="601" 
d="M254 103q14 -11 37 -16t42 -5q43 0 62 24t19 65q0 37 -9.5 64.5t-30.5 54.5q-17 21 -31.5 41t-25 41t-16.5 45t-6 54v125q0 13 -1 25t-5.5 21t-13.5 14t-25 5q-17 0 -26 -5t-13.5 -14t-5.5 -21t-1 -25v-596h-135v591q0 39 8 71t28 54.5t53.5 35t85.5 12.5q91 0 132 -40.5
t41 -133.5v-94q0 -29 4.5 -53.5t20.5 -50.5q13 -23 30 -43t31 -42q22 -34 28 -65.5t6 -71.5q0 -51 -12 -85t-36 -55t-59.5 -30t-81.5 -9q-24 0 -49 2.5t-45 9.5v100z" />
    <glyph glyph-name="agrave" unicode="&#xe0;" horiz-adv-x="521" 
d="M329 0q-2 14 -3 29.5t-2 31.5q-20 -39 -54.5 -54.5t-76.5 -15.5q-44 0 -71 13t-41.5 36t-19.5 54.5t-5 68.5q0 44 8.5 76t28 52.5t50.5 30.5t77 10q30 0 53 -4.5t46 -12.5v54q0 17 -1.5 32.5t-7.5 27t-18.5 18.5t-33.5 7q-32 0 -46.5 -15.5t-14.5 -41.5q0 -10 1 -14h-124
q0 56 16.5 88t42.5 47.5t58 19.5t64 4q18 0 39 -1.5t42 -5.5t41 -11.5t36 -19.5q15 -12 22.5 -29t11.5 -35.5t4.5 -37t0.5 -33.5v-276q0 -23 3.5 -48t8.5 -45h-135zM319 234q-23 13 -52 13q-40 0 -57 -17t-17 -68q0 -41 13 -58.5t45 -17.5q24 0 42 10.5t26 32.5v105z
M128 631v84l225 -76v-43z" />
    <glyph glyph-name="aacute" unicode="&#xe1;" horiz-adv-x="521" 
d="M329 0q-2 14 -3 29.5t-2 31.5q-20 -39 -54.5 -54.5t-76.5 -15.5q-44 0 -71 13t-41.5 36t-19.5 54.5t-5 68.5q0 44 8.5 76t28 52.5t50.5 30.5t77 10q30 0 53 -4.5t46 -12.5v54q0 17 -1.5 32.5t-7.5 27t-18.5 18.5t-33.5 7q-32 0 -46.5 -15.5t-14.5 -41.5q0 -10 1 -14h-124
q0 56 16.5 88t42.5 47.5t58 19.5t64 4q18 0 39 -1.5t42 -5.5t41 -11.5t36 -19.5q15 -12 22.5 -29t11.5 -35.5t4.5 -37t0.5 -33.5v-276q0 -23 3.5 -48t8.5 -45h-135zM319 234q-23 13 -52 13q-40 0 -57 -17t-17 -68q0 -41 13 -58.5t45 -17.5q24 0 42 10.5t26 32.5v105z
M168 596v43l225 76v-84z" />
    <glyph glyph-name="acircumflex" unicode="&#xe2;" horiz-adv-x="521" 
d="M329 0q-2 14 -3 29.5t-2 31.5q-20 -39 -54.5 -54.5t-76.5 -15.5q-44 0 -71 13t-41.5 36t-19.5 54.5t-5 68.5q0 44 8.5 76t28 52.5t50.5 30.5t77 10q30 0 53 -4.5t46 -12.5v54q0 17 -1.5 32.5t-7.5 27t-18.5 18.5t-33.5 7q-32 0 -46.5 -15.5t-14.5 -41.5q0 -10 1 -14h-124
q0 56 16.5 88t42.5 47.5t58 19.5t64 4q18 0 39 -1.5t42 -5.5t41 -11.5t36 -19.5q15 -12 22.5 -29t11.5 -35.5t4.5 -37t0.5 -33.5v-276q0 -23 3.5 -48t8.5 -45h-135zM319 234q-23 13 -52 13q-40 0 -57 -17t-17 -68q0 -41 13 -58.5t45 -17.5q24 0 42 10.5t26 32.5v105z
M264 661l-144 -73v47l144 112l143 -112v-47z" />
    <glyph glyph-name="atilde" unicode="&#xe3;" horiz-adv-x="521" 
d="M329 0q-2 14 -3 29.5t-2 31.5q-20 -39 -54.5 -54.5t-76.5 -15.5q-44 0 -71 13t-41.5 36t-19.5 54.5t-5 68.5q0 44 8.5 76t28 52.5t50.5 30.5t77 10q30 0 53 -4.5t46 -12.5v54q0 17 -1.5 32.5t-7.5 27t-18.5 18.5t-33.5 7q-32 0 -46.5 -15.5t-14.5 -41.5q0 -10 1 -14h-124
q0 56 16.5 88t42.5 47.5t58 19.5t64 4q18 0 39 -1.5t42 -5.5t41 -11.5t36 -19.5q15 -12 22.5 -29t11.5 -35.5t4.5 -37t0.5 -33.5v-276q0 -23 3.5 -48t8.5 -45h-135zM319 234q-23 13 -52 13q-40 0 -57 -17t-17 -68q0 -41 13 -58.5t45 -17.5q24 0 42 10.5t26 32.5v105z
M403 645q-31 -32 -72 -32q-17 0 -33 6t-32.5 12.5t-33 12.5t-35.5 6q-25 0 -39 -9.5t-30 -29.5v73q17 17 34.5 24t36.5 7q18 0 34.5 -6t32.5 -12.5t33 -12.5t35 -6q25 0 39.5 10t29.5 30v-73z" />
    <glyph glyph-name="adieresis" unicode="&#xe4;" horiz-adv-x="521" 
d="M329 0q-2 14 -3 29.5t-2 31.5q-20 -39 -54.5 -54.5t-76.5 -15.5q-44 0 -71 13t-41.5 36t-19.5 54.5t-5 68.5q0 44 8.5 76t28 52.5t50.5 30.5t77 10q30 0 53 -4.5t46 -12.5v54q0 17 -1.5 32.5t-7.5 27t-18.5 18.5t-33.5 7q-32 0 -46.5 -15.5t-14.5 -41.5q0 -10 1 -14h-124
q0 56 16.5 88t42.5 47.5t58 19.5t64 4q18 0 39 -1.5t42 -5.5t41 -11.5t36 -19.5q15 -12 22.5 -29t11.5 -35.5t4.5 -37t0.5 -33.5v-276q0 -23 3.5 -48t8.5 -45h-135zM319 234q-23 13 -52 13q-40 0 -57 -17t-17 -68q0 -41 13 -58.5t45 -17.5q24 0 42 10.5t26 32.5v105z
M314 597v118h98v-118h-98zM108 597v118h98v-118h-98z" />
    <glyph glyph-name="aring" unicode="&#xe5;" horiz-adv-x="521" 
d="M329 0q-2 14 -3 29.5t-2 31.5q-20 -39 -54.5 -54.5t-76.5 -15.5q-44 0 -71 13t-41.5 36t-19.5 54.5t-5 68.5q0 44 8.5 76t28 52.5t50.5 30.5t77 10q30 0 53 -4.5t46 -12.5v54q0 17 -1.5 32.5t-7.5 27t-18.5 18.5t-33.5 7q-32 0 -46.5 -15.5t-14.5 -41.5q0 -10 1 -14h-124
q0 56 16.5 88t42.5 47.5t58 19.5t64 4q18 0 39 -1.5t42 -5.5t41 -11.5t36 -19.5q15 -12 22.5 -29t11.5 -35.5t4.5 -37t0.5 -33.5v-276q0 -23 3.5 -48t8.5 -45h-135zM319 234q-23 13 -52 13q-40 0 -57 -17t-17 -68q0 -41 13 -58.5t45 -17.5q24 0 42 10.5t26 32.5v105z
M352 656q0 -15 -2.5 -31t-12 -29t-27.5 -21.5t-49 -8.5t-49 8.5t-27.5 21.5t-12.5 29t-3 31t3 31.5t12.5 29.5t27.5 21.5t49 8.5t49 -8.5t27.5 -21.5t12 -29.5t2.5 -31.5zM261 600q33 0 41 17.5t8 38.5q0 10 -1.5 20.5t-6.5 18.5t-15 13t-26 5q-17 0 -27 -5t-15 -13
t-6.5 -18.5t-1.5 -20.5q0 -11 1.5 -21t6.5 -17.5t15 -12.5t27 -5z" />
    <glyph glyph-name="ae" unicode="&#xe6;" horiz-adv-x="786" 
d="M453 240q0 -40 2 -68.5t8.5 -47t20 -27t36.5 -8.5q40 0 53.5 17.5t14.5 65.5h132q-1 -42 -7.5 -75.5t-27.5 -57t-60 -36t-103 -12.5q-67 0 -106 16t-60 43q-26 -34 -64 -46.5t-98 -12.5q-44 0 -69.5 13t-39.5 36t-18 54.5t-4 68.5q0 44 8 76t26.5 52.5t49 30.5t76.5 10
q27 0 49.5 -3t43.5 -11q0 18 0.5 35t0.5 34q0 27 -10.5 47t-47.5 20q-36 0 -48.5 -18.5t-12.5 -52.5h-123q0 56 16.5 88t43 47.5t59 19.5t64.5 4q31 0 70 -9.5t66 -34.5q19 20 51.5 32t76.5 12q75 0 116 -17t60 -49.5t22.5 -80.5t3.5 -110v-45h-271zM199 162
q0 -39 10.5 -57.5t45.5 -18.5q22 0 39.5 9.5t25.5 29.5q-2 26 -3 55t-1 58q-21 9 -46 9q-39 0 -55 -16t-16 -62v-7zM586 315q0 33 -1.5 57t-8.5 39.5t-20 23.5t-36 8t-36 -8.5t-20 -25t-9 -40t-2 -54.5h133z" />
    <glyph glyph-name="ccedilla" unicode="&#xe7;" horiz-adv-x="513" 
d="M455 181q-1 -48 -7 -83.5t-25.5 -59t-57 -35.5t-101.5 -12q-76 0 -117 21t-60 58.5t-22 89t-3 113.5q0 58 3 107.5t22 85.5t60 56t117 20q67 0 105 -12.5t57 -36.5t24 -59t6 -80h-129q0 27 -2.5 44.5t-9.5 27.5t-19.5 13.5t-31.5 3.5q-24 0 -37 -8.5t-19 -27t-7 -47
t-1 -67.5v-89q0 -30 2.5 -51.5t9.5 -36t19.5 -21t32.5 -6.5q21 0 33.5 4.5t19 15t9 28t2.5 44.5h127zM215 -226l31 78h-43v114h127v-98l-61 -94h-54z" />
    <glyph glyph-name="egrave" unicode="&#xe8;" horiz-adv-x="524" 
d="M193 240q0 -38 2 -66.5t9 -47.5t20 -28t36 -9q21 0 34.5 4t21 13.5t10.5 25.5t3 40h133q-1 -42 -8 -75.5t-28 -57t-60 -36t-104 -12.5q-76 0 -117 21t-60 58.5t-22 89t-3 113.5q0 58 3 107.5t22 85.5t60 56t117 20t117 -17t60 -49.5t22.5 -80.5t3.5 -110v-45h-272z
M327 315q0 33 -1.5 57t-8.5 39.5t-20 23.5t-37 8q-22 0 -35.5 -8.5t-20.5 -25t-9 -40t-2 -54.5h134zM129 631v84l225 -76v-43z" />
    <glyph glyph-name="eacute" unicode="&#xe9;" horiz-adv-x="524" 
d="M193 240q0 -38 2 -66.5t9 -47.5t20 -28t36 -9q21 0 34.5 4t21 13.5t10.5 25.5t3 40h133q-1 -42 -8 -75.5t-28 -57t-60 -36t-104 -12.5q-76 0 -117 21t-60 58.5t-22 89t-3 113.5q0 58 3 107.5t22 85.5t60 56t117 20t117 -17t60 -49.5t22.5 -80.5t3.5 -110v-45h-272z
M327 315q0 33 -1.5 57t-8.5 39.5t-20 23.5t-37 8q-22 0 -35.5 -8.5t-20.5 -25t-9 -40t-2 -54.5h134zM169 596v43l225 76v-84z" />
    <glyph glyph-name="ecircumflex" unicode="&#xea;" horiz-adv-x="524" 
d="M193 240q0 -38 2 -66.5t9 -47.5t20 -28t36 -9q21 0 34.5 4t21 13.5t10.5 25.5t3 40h133q-1 -42 -8 -75.5t-28 -57t-60 -36t-104 -12.5q-76 0 -117 21t-60 58.5t-22 89t-3 113.5q0 58 3 107.5t22 85.5t60 56t117 20t117 -17t60 -49.5t22.5 -80.5t3.5 -110v-45h-272z
M327 315q0 33 -1.5 57t-8.5 39.5t-20 23.5t-37 8q-22 0 -35.5 -8.5t-20.5 -25t-9 -40t-2 -54.5h134zM262 661l-144 -73v47l144 112l143 -112v-47z" />
    <glyph glyph-name="edieresis" unicode="&#xeb;" horiz-adv-x="524" 
d="M193 240q0 -38 2 -66.5t9 -47.5t20 -28t36 -9q21 0 34.5 4t21 13.5t10.5 25.5t3 40h133q-1 -42 -8 -75.5t-28 -57t-60 -36t-104 -12.5q-76 0 -117 21t-60 58.5t-22 89t-3 113.5q0 58 3 107.5t22 85.5t60 56t117 20t117 -17t60 -49.5t22.5 -80.5t3.5 -110v-45h-272z
M327 315q0 33 -1.5 57t-8.5 39.5t-20 23.5t-37 8q-22 0 -35.5 -8.5t-20.5 -25t-9 -40t-2 -54.5h134zM316 597v118h98v-118h-98zM110 597v118h98v-118h-98z" />
    <glyph glyph-name="igrave" unicode="&#xec;" horiz-adv-x="305" 
d="M94 0v532h137v-532h-137zM31 631v84l225 -76v-43z" />
    <glyph glyph-name="iacute" unicode="&#xed;" horiz-adv-x="305" 
d="M74 0v532h137v-532h-137zM51 596v43l225 76v-84z" />
    <glyph glyph-name="icircumflex" unicode="&#xee;" horiz-adv-x="341" 
d="M102 0v532h137v-532h-137zM172 661l-144 -73v47l144 112l143 -112v-47z" />
    <glyph glyph-name="idieresis" unicode="&#xef;" horiz-adv-x="341" 
d="M102 0v532h137v-532h-137zM226 597v118h98v-118h-98zM20 597v118h98v-118h-98z" />
    <glyph glyph-name="eth" unicode="&#xf0;" horiz-adv-x="533" 
d="M376 681q57 -65 75 -165.5t18 -239.5q0 -72 -5 -125.5t-25.5 -89t-61 -53t-111.5 -17.5q-67 0 -107 16.5t-61 46t-27.5 70.5t-6.5 90q0 59 2.5 114t17.5 97t47 67.5t91 25.5q42 0 70 -11t49 -46q-5 49 -24 88t-50 68l-107 -67l-27 46l88 55q-24 15 -51 25t-57 17l44 91
q57 -8 100.5 -24.5t77.5 -40.5l82 51l27 -47zM330 320q0 24 -2 44t-9 34.5t-20 22.5t-34 8q-23 0 -35.5 -9.5t-18.5 -25.5t-7 -37.5t-1 -45.5v-118q0 -21 1 -40t7 -33.5t19 -22.5t36 -8q24 0 37 7.5t19 21.5t7 33t1 42v127z" />
    <glyph glyph-name="ntilde" unicode="&#xf1;" horiz-adv-x="522" 
d="M322 0v376q0 12 -1 24t-6.5 21.5t-16.5 15.5t-31 6q-19 0 -30.5 -6t-17.5 -15.5t-8 -21.5t-3 -23v-377h-136v532h136v-58q18 33 52 50.5t73 17.5q38 0 62.5 -9.5t38 -27t18.5 -42.5t5 -56v-407h-135zM413 645q-31 -32 -72 -32q-17 0 -33 6t-32.5 12.5t-33 12.5t-35.5 6
q-25 0 -39 -9.5t-30 -29.5v73q17 17 34.5 24t36.5 7q18 0 34.5 -6t32.5 -12.5t33 -12.5t35 -6q25 0 39.5 10t29.5 30v-73z" />
    <glyph glyph-name="ograve" unicode="&#xf2;" horiz-adv-x="530" 
d="M264 -9q-76 0 -117 21t-60.5 58.5t-23 89t-3.5 113.5q0 58 3.5 107.5t23 85.5t60.5 56t117 20t117.5 -20t61 -56t23 -85.5t3.5 -107.5q0 -62 -3.5 -113.5t-23 -89t-61 -58.5t-117.5 -21zM330 284q0 47 -2 77.5t-9 48.5t-20 25.5t-35 7.5t-35 -7.5t-20 -25.5t-9 -48.5
t-2 -77.5v-23q0 -52 2 -85t9 -52.5t20 -27t35 -7.5t35 7.5t20 27t9 52.5t2 85v23zM132 631v84l225 -76v-43z" />
    <glyph glyph-name="oacute" unicode="&#xf3;" horiz-adv-x="530" 
d="M264 -9q-76 0 -117 21t-60.5 58.5t-23 89t-3.5 113.5q0 58 3.5 107.5t23 85.5t60.5 56t117 20t117.5 -20t61 -56t23 -85.5t3.5 -107.5q0 -62 -3.5 -113.5t-23 -89t-61 -58.5t-117.5 -21zM330 284q0 47 -2 77.5t-9 48.5t-20 25.5t-35 7.5t-35 -7.5t-20 -25.5t-9 -48.5
t-2 -77.5v-23q0 -52 2 -85t9 -52.5t20 -27t35 -7.5t35 7.5t20 27t9 52.5t2 85v23zM172 596v43l225 76v-84z" />
    <glyph glyph-name="ocircumflex" unicode="&#xf4;" horiz-adv-x="530" 
d="M264 -9q-76 0 -117 21t-60.5 58.5t-23 89t-3.5 113.5q0 58 3.5 107.5t23 85.5t60.5 56t117 20t117.5 -20t61 -56t23 -85.5t3.5 -107.5q0 -62 -3.5 -113.5t-23 -89t-61 -58.5t-117.5 -21zM330 284q0 47 -2 77.5t-9 48.5t-20 25.5t-35 7.5t-35 -7.5t-20 -25.5t-9 -48.5
t-2 -77.5v-23q0 -52 2 -85t9 -52.5t20 -27t35 -7.5t35 7.5t20 27t9 52.5t2 85v23zM265 661l-144 -73v47l144 112l143 -112v-47z" />
    <glyph glyph-name="otilde" unicode="&#xf5;" horiz-adv-x="530" 
d="M264 -9q-76 0 -117 21t-60.5 58.5t-23 89t-3.5 113.5q0 58 3.5 107.5t23 85.5t60.5 56t117 20t117.5 -20t61 -56t23 -85.5t3.5 -107.5q0 -62 -3.5 -113.5t-23 -89t-61 -58.5t-117.5 -21zM330 284q0 47 -2 77.5t-9 48.5t-20 25.5t-35 7.5t-35 -7.5t-20 -25.5t-9 -48.5
t-2 -77.5v-23q0 -52 2 -85t9 -52.5t20 -27t35 -7.5t35 7.5t20 27t9 52.5t2 85v23zM402 645q-31 -32 -72 -32q-17 0 -33 6t-32.5 12.5t-33 12.5t-35.5 6q-25 0 -39 -9.5t-30 -29.5v73q17 17 34.5 24t36.5 7q18 0 34.5 -6t32.5 -12.5t33 -12.5t35 -6q25 0 39.5 10t29.5 30v-73
z" />
    <glyph glyph-name="odieresis" unicode="&#xf6;" horiz-adv-x="530" 
d="M264 -9q-76 0 -117 21t-60.5 58.5t-23 89t-3.5 113.5q0 58 3.5 107.5t23 85.5t60.5 56t117 20t117.5 -20t61 -56t23 -85.5t3.5 -107.5q0 -62 -3.5 -113.5t-23 -89t-61 -58.5t-117.5 -21zM330 284q0 47 -2 77.5t-9 48.5t-20 25.5t-35 7.5t-35 -7.5t-20 -25.5t-9 -48.5
t-2 -77.5v-23q0 -52 2 -85t9 -52.5t20 -27t35 -7.5t35 7.5t20 27t9 52.5t2 85v23zM319 597v118h98v-118h-98zM113 597v118h98v-118h-98z" />
    <glyph glyph-name="divide" unicode="&#xf7;" 
d="M30 322v95h442v-95h-442zM188 520v143h127v-143h-127zM188 80v143h127v-143h-127z" />
    <glyph glyph-name="oslash" unicode="&#xf8;" horiz-adv-x="534" 
d="M84 -60l39 86q-23 17 -36 42.5t-19 57t-7 68.5t-1 79q0 58 3.5 107.5t23 85.5t60.5 56t117 20q52 0 91 -11l43 93l54 -21l-45 -97q23 -17 35.5 -41t18.5 -53.5t7 -64.5t1 -74q0 -62 -3.5 -113.5t-23 -89t-61 -58.5t-117.5 -21q-26 0 -47.5 2.5t-39.5 7.5l-39 -86z
M308 428q-14 15 -44 15q-22 0 -35 -7.5t-20 -25.5t-9 -48.5t-2 -77.5v-23v-37.5t1 -31.5zM330 284v27t-1 24l-106 -234q12 -12 41 -12q22 0 35 7.5t20 27t9 52.5t2 85v23z" />
    <glyph glyph-name="ugrave" unicode="&#xf9;" horiz-adv-x="520" 
d="M311 0v59q-17 -34 -48.5 -51t-70.5 -17q-38 0 -62.5 9.5t-38.5 26.5t-19 42t-5 56v407h136v-376q0 -12 1 -24t6 -21.5t15.5 -15t29.5 -5.5q18 0 29 6t16.5 15.5t7.5 21t3 23.5v376h137v-532h-137zM127 631v84l225 -76v-43z" />
    <glyph glyph-name="uacute" unicode="&#xfa;" horiz-adv-x="520" 
d="M311 0v59q-17 -34 -48.5 -51t-70.5 -17q-38 0 -62.5 9.5t-38.5 26.5t-19 42t-5 56v407h136v-376q0 -12 1 -24t6 -21.5t15.5 -15t29.5 -5.5q18 0 29 6t16.5 15.5t7.5 21t3 23.5v376h137v-532h-137zM167 596v43l225 76v-84z" />
    <glyph glyph-name="ucircumflex" unicode="&#xfb;" horiz-adv-x="520" 
d="M311 0v59q-17 -34 -48.5 -51t-70.5 -17q-38 0 -62.5 9.5t-38.5 26.5t-19 42t-5 56v407h136v-376q0 -12 1 -24t6 -21.5t15.5 -15t29.5 -5.5q18 0 29 6t16.5 15.5t7.5 21t3 23.5v376h137v-532h-137zM260 661l-144 -73v47l144 112l143 -112v-47z" />
    <glyph glyph-name="udieresis" unicode="&#xfc;" horiz-adv-x="520" 
d="M311 0v59q-17 -34 -48.5 -51t-70.5 -17q-38 0 -62.5 9.5t-38.5 26.5t-19 42t-5 56v407h136v-376q0 -12 1 -24t6 -21.5t15.5 -15t29.5 -5.5q18 0 29 6t16.5 15.5t7.5 21t3 23.5v376h137v-532h-137zM314 597v118h98v-118h-98zM108 597v118h98v-118h-98z" />
    <glyph glyph-name="yacute" unicode="&#xfd;" horiz-adv-x="500" 
d="M147 -226l54 192l-171 566h134l61 -252q7 -30 12.5 -52.5t9.5 -41.5t7 -36t5 -35q2 18 4.5 35t5.5 36t8 41.5t11 51.5l54 253h135l-200 -758h-130zM167 596v43l225 76v-84z" />
    <glyph glyph-name="thorn" unicode="&#xfe;" horiz-adv-x="525" 
d="M74 -226v985h136v-287q21 32 50 51t71 19q49 0 75.5 -20t38.5 -56t14 -86t2 -110v-6q0 -61 -2 -111.5t-14 -86.5t-38.5 -55.5t-75.5 -19.5q-42 0 -71 18.5t-50 50.5v-286h-136zM326 320q0 67 -11.5 94.5t-47.5 27.5q-35 0 -46 -27.5t-11 -86.5v-130q0 -56 11 -82.5
t46 -26.5q38 0 48.5 29.5t10.5 96.5v105z" />
    <glyph glyph-name="ydieresis" unicode="&#xff;" horiz-adv-x="500" 
d="M147 -226l54 192l-171 566h134l61 -252q7 -30 12.5 -52.5t9.5 -41.5t7 -36t5 -35q2 18 4.5 35t5.5 36t8 41.5t11 51.5l54 253h135l-200 -758h-130zM314 597v118h98v-118h-98zM108 597v118h98v-118h-98z" />
    <glyph glyph-name="Amacron" unicode="&#x100;" horiz-adv-x="574" 
d="M391 0l-28 169h-154l-29 -169h-150l153 759h214l148 -759h-154zM318 449q-6 35 -10.5 61.5t-7.5 49t-5.5 44.5t-5.5 48q-3 -26 -6 -48t-6.5 -44.5t-8 -49t-10.5 -61.5l-31 -166h119zM150 854v69h274v-69h-274z" />
    <glyph glyph-name="amacron" unicode="&#x101;" horiz-adv-x="521" 
d="M329 0q-2 14 -3 29.5t-2 31.5q-20 -39 -54.5 -54.5t-76.5 -15.5q-44 0 -71 13t-41.5 36t-19.5 54.5t-5 68.5q0 44 8.5 76t28 52.5t50.5 30.5t77 10q30 0 53 -4.5t46 -12.5v54q0 17 -1.5 32.5t-7.5 27t-18.5 18.5t-33.5 7q-32 0 -46.5 -15.5t-14.5 -41.5q0 -10 1 -14h-124
q0 56 16.5 88t42.5 47.5t58 19.5t64 4q18 0 39 -1.5t42 -5.5t41 -11.5t36 -19.5q15 -12 22.5 -29t11.5 -35.5t4.5 -37t0.5 -33.5v-276q0 -23 3.5 -48t8.5 -45h-135zM319 234q-23 13 -52 13q-40 0 -57 -17t-17 -68q0 -41 13 -58.5t45 -17.5q24 0 42 10.5t26 32.5v105z
M128 627v69h274v-69h-274z" />
    <glyph glyph-name="Abreve" unicode="&#x102;" horiz-adv-x="574" 
d="M391 0l-28 169h-154l-29 -169h-150l153 759h214l148 -759h-154zM318 449q-6 35 -10.5 61.5t-7.5 49t-5.5 44.5t-5.5 48q-3 -26 -6 -48t-6.5 -44.5t-8 -49t-10.5 -61.5l-31 -166h119zM448 974q-6 -75 -48 -117t-113 -42t-112.5 42t-49.5 117h61q15 -90 101 -90
q87 0 102 90h59z" />
    <glyph glyph-name="abreve" unicode="&#x103;" horiz-adv-x="521" 
d="M329 0q-2 14 -3 29.5t-2 31.5q-20 -39 -54.5 -54.5t-76.5 -15.5q-44 0 -71 13t-41.5 36t-19.5 54.5t-5 68.5q0 44 8.5 76t28 52.5t50.5 30.5t77 10q30 0 53 -4.5t46 -12.5v54q0 17 -1.5 32.5t-7.5 27t-18.5 18.5t-33.5 7q-32 0 -46.5 -15.5t-14.5 -41.5q0 -10 1 -14h-124
q0 56 16.5 88t42.5 47.5t58 19.5t64 4q18 0 39 -1.5t42 -5.5t41 -11.5t36 -19.5q15 -12 22.5 -29t11.5 -35.5t4.5 -37t0.5 -33.5v-276q0 -23 3.5 -48t8.5 -45h-135zM319 234q-23 13 -52 13q-40 0 -57 -17t-17 -68q0 -41 13 -58.5t45 -17.5q24 0 42 10.5t26 32.5v105z
M422 747q-6 -75 -48 -117t-113 -42t-112.5 42t-49.5 117h61q15 -90 101 -90q87 0 102 90h59z" />
    <glyph glyph-name="Aogonek" unicode="&#x104;" horiz-adv-x="574" 
d="M465 -226q-25 0 -48 4.5t-40 16t-27.5 31.5t-10.5 50q0 33 16 56t41 38l-33 199h-154l-29 -169h-150l153 759h214l148 -759q-35 -9 -60 -17t-41 -17.5t-23 -21.5t-7 -29q0 -42 56 -42h75v-99h-80zM318 449q-6 35 -10.5 61.5t-7.5 49t-5.5 44.5t-5.5 48q-3 -26 -6 -48
t-6.5 -44.5t-8 -49t-10.5 -61.5l-31 -166h119z" />
    <glyph glyph-name="aogonek" unicode="&#x105;" horiz-adv-x="521" 
d="M384 -226q-25 0 -48 4.5t-40 16t-27.5 31.5t-10.5 50q0 38 21 63t52 39q-1 8 -2 19.5l-2 23t-2 22.5t-1 18q-20 -39 -54.5 -54.5t-76.5 -15.5q-44 0 -71 13t-41.5 36t-19.5 54.5t-5 68.5q0 44 8.5 76t28 52.5t50.5 30.5t77 10q30 0 53 -4.5t46 -12.5v54q0 17 -1.5 32.5
t-7.5 27t-18.5 18.5t-33.5 7q-32 0 -46.5 -15.5t-14.5 -41.5q0 -10 1 -14h-124q0 56 16.5 88t42.5 47.5t58 19.5t64 4q18 0 39 -1.5t42 -5.5t41 -11.5t36 -19.5q15 -12 22.5 -29t11.5 -35.5t4.5 -37t0.5 -33.5v-276q0 -23 3.5 -48t8.5 -45q-35 -9 -60 -17t-41 -17.5
t-23 -21.5t-7 -29q0 -42 56 -42h75v-99h-80zM319 234q-23 13 -52 13q-40 0 -57 -17t-17 -68q0 -41 13 -58.5t45 -17.5q24 0 42 10.5t26 32.5v105z" />
    <glyph glyph-name="Cacute" unicode="&#x106;" horiz-adv-x="570" 
d="M512 271q0 -62 -4.5 -113t-26 -88.5t-66 -58t-123.5 -20.5q-87 0 -134.5 24.5t-69.5 73t-26 121t-4 169.5t3.5 170t25.5 122t69.5 74t135.5 25q77 0 121 -19t66 -54t27.5 -83.5t5.5 -106.5h-139q-1 41 -4 69.5t-11 46.5t-24 26t-42 8q-30 0 -47 -12.5t-24.5 -44t-9 -85
t-1.5 -135.5t1 -135.5t8.5 -85t24 -44.5t48.5 -13q27 0 43 9t24.5 29t11 52t2.5 79h139zM192 823v43l225 76v-84z" />
    <glyph glyph-name="cacute" unicode="&#x107;" horiz-adv-x="513" 
d="M455 181q-1 -48 -7 -83.5t-25.5 -59t-57 -35.5t-101.5 -12q-76 0 -117 21t-60 58.5t-22 89t-3 113.5q0 58 3 107.5t22 85.5t60 56t117 20q67 0 105 -12.5t57 -36.5t24 -59t6 -80h-129q0 27 -2.5 44.5t-9.5 27.5t-19.5 13.5t-31.5 3.5q-24 0 -37 -8.5t-19 -27t-7 -47
t-1 -67.5v-89q0 -30 2.5 -51.5t9.5 -36t19.5 -21t32.5 -6.5q21 0 33.5 4.5t19 15t9 28t2.5 44.5h127zM164 596v43l225 76v-84z" />
    <glyph glyph-name="Ccircumflex" unicode="&#x108;" horiz-adv-x="570" 
d="M512 271q0 -62 -4.5 -113t-26 -88.5t-66 -58t-123.5 -20.5q-87 0 -134.5 24.5t-69.5 73t-26 121t-4 169.5t3.5 170t25.5 122t69.5 74t135.5 25q77 0 121 -19t66 -54t27.5 -83.5t5.5 -106.5h-139q-1 41 -4 69.5t-11 46.5t-24 26t-42 8q-30 0 -47 -12.5t-24.5 -44t-9 -85
t-1.5 -135.5t1 -135.5t8.5 -85t24 -44.5t48.5 -13q27 0 43 9t24.5 29t11 52t2.5 79h139zM290 888l-144 -73v47l144 112l143 -112v-47z" />
    <glyph glyph-name="ccircumflex" unicode="&#x109;" horiz-adv-x="513" 
d="M455 181q-1 -48 -7 -83.5t-25.5 -59t-57 -35.5t-101.5 -12q-76 0 -117 21t-60 58.5t-22 89t-3 113.5q0 58 3 107.5t22 85.5t60 56t117 20q67 0 105 -12.5t57 -36.5t24 -59t6 -80h-129q0 27 -2.5 44.5t-9.5 27.5t-19.5 13.5t-31.5 3.5q-24 0 -37 -8.5t-19 -27t-7 -47
t-1 -67.5v-89q0 -30 2.5 -51.5t9.5 -36t19.5 -21t32.5 -6.5q21 0 33.5 4.5t19 15t9 28t2.5 44.5h127zM265 661l-144 -73v47l144 112l143 -112v-47z" />
    <glyph glyph-name="Cdotaccent" unicode="&#x10a;" horiz-adv-x="570" 
d="M512 271q0 -62 -4.5 -113t-26 -88.5t-66 -58t-123.5 -20.5q-87 0 -134.5 24.5t-69.5 73t-26 121t-4 169.5t3.5 170t25.5 122t69.5 74t135.5 25q77 0 121 -19t66 -54t27.5 -83.5t5.5 -106.5h-139q-1 41 -4 69.5t-11 46.5t-24 26t-42 8q-30 0 -47 -12.5t-24.5 -44t-9 -85
t-1.5 -135.5t1 -135.5t8.5 -85t24 -44.5t48.5 -13q27 0 43 9t24.5 29t11 52t2.5 79h139zM244 824v118h99v-118h-99z" />
    <glyph glyph-name="cdotaccent" unicode="&#x10b;" horiz-adv-x="513" 
d="M455 181q-1 -48 -7 -83.5t-25.5 -59t-57 -35.5t-101.5 -12q-76 0 -117 21t-60 58.5t-22 89t-3 113.5q0 58 3 107.5t22 85.5t60 56t117 20q67 0 105 -12.5t57 -36.5t24 -59t6 -80h-129q0 27 -2.5 44.5t-9.5 27.5t-19.5 13.5t-31.5 3.5q-24 0 -37 -8.5t-19 -27t-7 -47
t-1 -67.5v-89q0 -30 2.5 -51.5t9.5 -36t19.5 -21t32.5 -6.5q21 0 33.5 4.5t19 15t9 28t2.5 44.5h127zM217 597v118h99v-118h-99z" />
    <glyph glyph-name="Ccaron" unicode="&#x10c;" horiz-adv-x="570" 
d="M512 271q0 -62 -4.5 -113t-26 -88.5t-66 -58t-123.5 -20.5q-87 0 -134.5 24.5t-69.5 73t-26 121t-4 169.5t3.5 170t25.5 122t69.5 74t135.5 25q77 0 121 -19t66 -54t27.5 -83.5t5.5 -106.5h-139q-1 41 -4 69.5t-11 46.5t-24 26t-42 8q-30 0 -47 -12.5t-24.5 -44t-9 -85
t-1.5 -135.5t1 -135.5t8.5 -85t24 -44.5t48.5 -13q27 0 43 9t24.5 29t11 52t2.5 79h139zM295 815l-144 110v49l144 -75l143 75v-49z" />
    <glyph glyph-name="ccaron" unicode="&#x10d;" horiz-adv-x="513" 
d="M455 181q-1 -48 -7 -83.5t-25.5 -59t-57 -35.5t-101.5 -12q-76 0 -117 21t-60 58.5t-22 89t-3 113.5q0 58 3 107.5t22 85.5t60 56t117 20q67 0 105 -12.5t57 -36.5t24 -59t6 -80h-129q0 27 -2.5 44.5t-9.5 27.5t-19.5 13.5t-31.5 3.5q-24 0 -37 -8.5t-19 -27t-7 -47
t-1 -67.5v-89q0 -30 2.5 -51.5t9.5 -36t19.5 -21t32.5 -6.5q21 0 33.5 4.5t19 15t9 28t2.5 44.5h127zM267 588l-144 110v49l144 -75l143 75v-49z" />
    <glyph glyph-name="Dcaron" unicode="&#x10e;" horiz-adv-x="585" 
d="M67 0v759h237q67 0 110 -17.5t68 -56.5t34.5 -102.5t9.5 -154.5v-97q0 -92 -9.5 -155t-34.5 -102t-68 -56.5t-110 -17.5h-237zM290 114q28 0 45 13.5t26.5 37t12.5 55.5t3 70v178q0 38 -3 70t-12.5 55.5t-26.5 37t-45 13.5h-73v-530h73zM273 815l-144 110v49l144 -75
l143 75v-49z" />
    <glyph glyph-name="dcaron" unicode="&#x10f;" horiz-adv-x="645" 
d="M317 328q0 59 -11 86.5t-48 27.5q-18 0 -29 -6t-17.5 -21t-9 -41.5t-2.5 -67.5v-63q0 -47 2.5 -77t9 -47t17.5 -23.5t29 -6.5q33 0 46 25.5t13 83.5v130zM322 0v60q-22 -41 -50 -55t-71 -14q-51 0 -78.5 23t-40.5 62t-15 91t-2 110t2 106.5t14 83.5t38.5 55t75.5 20
q46 0 74 -18.5t48 -51.5v287h135v-759h-130zM542 508l22 107h-42v144h127v-122l-52 -129h-55z" />
    <glyph glyph-name="Dcroat" unicode="&#x110;" horiz-adv-x="574" 
d="M58 0v336h-37v127h37v296h236q66 0 109 -17.5t68 -56.5t35 -102.5t10 -154.5v-97q0 -92 -10 -155t-35 -102t-68 -56.5t-109 -17.5h-236zM281 114q28 0 45 13.5t26 37.5t12 57t3 72v170q0 39 -3 72t-12 57t-26 37.5t-45 13.5h-74v-181h84v-127h-84v-222h74z" />
    <glyph glyph-name="dcroat" unicode="&#x111;" horiz-adv-x="524" 
d="M322 0v60q-22 -41 -50 -55t-71 -14q-51 0 -78.5 23t-40.5 62t-15 91t-2 110t2 106.5t14 83.5t38.5 55t75.5 20q46 0 74 -18.5t48 -51.5v135h-67v69h67v83h135v-83h72v-69h-72v-607h-130zM317 328q0 59 -11 86.5t-48 27.5q-18 0 -29 -6t-17.5 -21t-9 -41.5t-2.5 -67.5v-63
q0 -47 2.5 -77t9 -47t17.5 -23.5t29 -6.5q33 0 46 25.5t13 83.5v130z" />
    <glyph glyph-name="Emacron" unicode="&#x112;" horiz-adv-x="504" 
d="M67 0v759h378v-126h-240v-170h230v-127h-230v-212h244v-124h-382zM121 854v69h274v-69h-274z" />
    <glyph glyph-name="emacron" unicode="&#x113;" horiz-adv-x="524" 
d="M193 240q0 -38 2 -66.5t9 -47.5t20 -28t36 -9q21 0 34.5 4t21 13.5t10.5 25.5t3 40h133q-1 -42 -8 -75.5t-28 -57t-60 -36t-104 -12.5q-76 0 -117 21t-60 58.5t-22 89t-3 113.5q0 58 3 107.5t22 85.5t60 56t117 20t117 -17t60 -49.5t22.5 -80.5t3.5 -110v-45h-272z
M327 315q0 33 -1.5 57t-8.5 39.5t-20 23.5t-37 8q-22 0 -35.5 -8.5t-20.5 -25t-9 -40t-2 -54.5h134zM125 627v69h274v-69h-274z" />
    <glyph glyph-name="Ebreve" unicode="&#x114;" horiz-adv-x="504" 
d="M67 0v759h378v-126h-240v-170h230v-127h-230v-212h244v-124h-382zM423 974q-6 -75 -48 -117t-113 -42t-112.5 42t-49.5 117h61q15 -90 101 -90q87 0 102 90h59z" />
    <glyph glyph-name="ebreve" unicode="&#x115;" horiz-adv-x="524" 
d="M193 240q0 -38 2 -66.5t9 -47.5t20 -28t36 -9q21 0 34.5 4t21 13.5t10.5 25.5t3 40h133q-1 -42 -8 -75.5t-28 -57t-60 -36t-104 -12.5q-76 0 -117 21t-60 58.5t-22 89t-3 113.5q0 58 3 107.5t22 85.5t60 56t117 20t117 -17t60 -49.5t22.5 -80.5t3.5 -110v-45h-272z
M327 315q0 33 -1.5 57t-8.5 39.5t-20 23.5t-37 8q-22 0 -35.5 -8.5t-20.5 -25t-9 -40t-2 -54.5h134zM423 747q-6 -75 -48 -117t-113 -42t-112.5 42t-49.5 117h61q15 -90 101 -90q87 0 102 90h59z" />
    <glyph glyph-name="Edotaccent" unicode="&#x116;" horiz-adv-x="504" 
d="M67 0v759h378v-126h-240v-170h230v-127h-230v-212h244v-124h-382zM212 824v118h99v-118h-99z" />
    <glyph glyph-name="edotaccent" unicode="&#x117;" horiz-adv-x="524" 
d="M193 240q0 -38 2 -66.5t9 -47.5t20 -28t36 -9q21 0 34.5 4t21 13.5t10.5 25.5t3 40h133q-1 -42 -8 -75.5t-28 -57t-60 -36t-104 -12.5q-76 0 -117 21t-60 58.5t-22 89t-3 113.5q0 58 3 107.5t22 85.5t60 56t117 20t117 -17t60 -49.5t22.5 -80.5t3.5 -110v-45h-272z
M327 315q0 33 -1.5 57t-8.5 39.5t-20 23.5t-37 8q-22 0 -35.5 -8.5t-20.5 -25t-9 -40t-2 -54.5h134zM212 597v118h99v-118h-99z" />
    <glyph glyph-name="Eogonek" unicode="&#x118;" horiz-adv-x="504" 
d="M369 -226q-25 0 -48 4.5t-40 16t-27.5 31.5t-10.5 50q0 31 14.5 53t36.5 36.5t49 23t53 11.5h-329v759h378v-126h-240v-170h230v-127h-230v-212h244v-124q-35 -9 -60 -17t-41 -17.5t-23 -21.5t-7 -29q0 -42 56 -42h75v-99h-80z" />
    <glyph glyph-name="eogonek" unicode="&#x119;" horiz-adv-x="524" 
d="M274 -226q-25 0 -48 4.5t-40 16t-27.5 31.5t-10.5 50q0 24 9 43t24.5 33t35 23.5t40.5 15.5q-74 1 -114 22t-58.5 58.5t-21.5 88.5t-3 113q0 58 3 107.5t22 85.5t60 56t117 20t117 -17t60 -49.5t22.5 -80.5t3.5 -110v-45h-272q0 -38 2 -66.5t9 -47.5t20 -28t36 -9
q21 0 34.5 4t21 13.5t10.5 25.5t3 40h133q-1 -33 -5 -61t-15.5 -50t-32.5 -37t-55 -24q-35 -9 -60 -17t-41 -17.5t-23 -21.5t-7 -29q0 -42 56 -42h75v-99h-80zM327 315q0 33 -1.5 57t-8.5 39.5t-20 23.5t-37 8q-22 0 -35.5 -8.5t-20.5 -25t-9 -40t-2 -54.5h134z" />
    <glyph glyph-name="Ecaron" unicode="&#x11a;" horiz-adv-x="504" 
d="M67 0v759h378v-126h-240v-170h230v-127h-230v-212h244v-124h-382zM262 815l-144 110v49l144 -75l143 75v-49z" />
    <glyph glyph-name="ecaron" unicode="&#x11b;" horiz-adv-x="524" 
d="M193 240q0 -38 2 -66.5t9 -47.5t20 -28t36 -9q21 0 34.5 4t21 13.5t10.5 25.5t3 40h133q-1 -42 -8 -75.5t-28 -57t-60 -36t-104 -12.5q-76 0 -117 21t-60 58.5t-22 89t-3 113.5q0 58 3 107.5t22 85.5t60 56t117 20t117 -17t60 -49.5t22.5 -80.5t3.5 -110v-45h-272z
M327 315q0 33 -1.5 57t-8.5 39.5t-20 23.5t-37 8q-22 0 -35.5 -8.5t-20.5 -25t-9 -40t-2 -54.5h134zM262 588l-144 110v49l144 -75l143 75v-49z" />
    <glyph glyph-name="Gcircumflex" unicode="&#x11c;" horiz-adv-x="590" 
d="M289 0q-85 0 -132 23t-69 70.5t-26 118.5t-4 167q0 97 4 170t26.5 122t71 74t136.5 25q77 0 122 -19.5t67.5 -54.5t28.5 -83t6 -106h-139q-1 41 -5 69.5t-13 46.5t-25 26t-42 8q-29 0 -46 -10t-26 -34t-11.5 -63t-2.5 -97v-140q0 -57 2.5 -94.5t11 -60t25.5 -32t46 -9.5
h90v174h-81v112h219v-403h-234zM295 888l-144 -73v47l144 112l143 -112v-47z" />
    <glyph glyph-name="gcircumflex" unicode="&#x11d;" horiz-adv-x="509" 
d="M308 75q-17 -35 -49.5 -51t-68.5 -16q-50 0 -77.5 22.5t-40 59.5t-14.5 85.5t-2 101.5q0 51 2 99t14.5 85t40.5 59t80 22q38 0 70.5 -16t51.5 -52v58h129v-589q0 -92 -49 -130.5t-140 -38.5q-34 0 -67 4t-59.5 18.5t-42.5 41.5t-16 74q0 5 0.5 10t1.5 7h125q-2 -2 -2 -13
q0 -20 12.5 -31.5t43.5 -11.5q39 0 48 17t9 51v134zM308 333q0 21 -1.5 40.5t-7.5 35t-17.5 25t-30.5 9.5q-22 0 -34.5 -11t-18.5 -33t-7 -55t-1 -77t1 -74.5t6.5 -50t18 -28.5t35.5 -9q19 0 30 9.5t17 25t8 35.5t2 40v118zM255 661l-144 -73v47l144 112l143 -112v-47z" />
    <glyph glyph-name="Gbreve" unicode="&#x11e;" horiz-adv-x="590" 
d="M289 0q-85 0 -132 23t-69 70.5t-26 118.5t-4 167q0 97 4 170t26.5 122t71 74t136.5 25q77 0 122 -19.5t67.5 -54.5t28.5 -83t6 -106h-139q-1 41 -5 69.5t-13 46.5t-25 26t-42 8q-29 0 -46 -10t-26 -34t-11.5 -63t-2.5 -97v-140q0 -57 2.5 -94.5t11 -60t25.5 -32t46 -9.5
h90v174h-81v112h219v-403h-234zM456 974q-6 -75 -48 -117t-113 -42t-112.5 42t-49.5 117h61q15 -90 101 -90q87 0 102 90h59z" />
    <glyph glyph-name="gbreve" unicode="&#x11f;" horiz-adv-x="509" 
d="M308 75q-17 -35 -49.5 -51t-68.5 -16q-50 0 -77.5 22.5t-40 59.5t-14.5 85.5t-2 101.5q0 51 2 99t14.5 85t40.5 59t80 22q38 0 70.5 -16t51.5 -52v58h129v-589q0 -92 -49 -130.5t-140 -38.5q-34 0 -67 4t-59.5 18.5t-42.5 41.5t-16 74q0 5 0.5 10t1.5 7h125q-2 -2 -2 -13
q0 -20 12.5 -31.5t43.5 -11.5q39 0 48 17t9 51v134zM308 333q0 21 -1.5 40.5t-7.5 35t-17.5 25t-30.5 9.5q-22 0 -34.5 -11t-18.5 -33t-7 -55t-1 -77t1 -74.5t6.5 -50t18 -28.5t35.5 -9q19 0 30 9.5t17 25t8 35.5t2 40v118zM416 747q-6 -75 -48 -117t-113 -42t-112.5 42
t-49.5 117h61q15 -90 101 -90q87 0 102 90h59z" />
    <glyph glyph-name="Gdotaccent" unicode="&#x120;" horiz-adv-x="590" 
d="M289 0q-85 0 -132 23t-69 70.5t-26 118.5t-4 167q0 97 4 170t26.5 122t71 74t136.5 25q77 0 122 -19.5t67.5 -54.5t28.5 -83t6 -106h-139q-1 41 -5 69.5t-13 46.5t-25 26t-42 8q-29 0 -46 -10t-26 -34t-11.5 -63t-2.5 -97v-140q0 -57 2.5 -94.5t11 -60t25.5 -32t46 -9.5
h90v174h-81v112h219v-403h-234zM245 824v118h99v-118h-99z" />
    <glyph glyph-name="gdotaccent" unicode="&#x121;" horiz-adv-x="509" 
d="M308 75q-17 -35 -49.5 -51t-68.5 -16q-50 0 -77.5 22.5t-40 59.5t-14.5 85.5t-2 101.5q0 51 2 99t14.5 85t40.5 59t80 22q38 0 70.5 -16t51.5 -52v58h129v-589q0 -92 -49 -130.5t-140 -38.5q-34 0 -67 4t-59.5 18.5t-42.5 41.5t-16 74q0 5 0.5 10t1.5 7h125q-2 -2 -2 -13
q0 -20 12.5 -31.5t43.5 -11.5q39 0 48 17t9 51v134zM308 333q0 21 -1.5 40.5t-7.5 35t-17.5 25t-30.5 9.5q-22 0 -34.5 -11t-18.5 -33t-7 -55t-1 -77t1 -74.5t6.5 -50t18 -28.5t35.5 -9q19 0 30 9.5t17 25t8 35.5t2 40v118zM205 597v118h99v-118h-99z" />
    <glyph glyph-name="uni0122" unicode="&#x122;" horiz-adv-x="590" 
d="M289 0q-85 0 -132 23t-69 70.5t-26 118.5t-4 167q0 97 4 170t26.5 122t71 74t136.5 25q77 0 122 -19.5t67.5 -54.5t28.5 -83t6 -106h-139q-1 41 -5 69.5t-13 46.5t-25 26t-42 8q-29 0 -46 -10t-26 -34t-11.5 -63t-2.5 -97v-140q0 -57 2.5 -94.5t11 -60t25.5 -32t46 -9.5
h90v174h-81v112h219v-403h-234zM253 -226l31 78h-43v114h127v-98l-61 -94h-54z" />
    <glyph glyph-name="uni0123" unicode="&#x123;" horiz-adv-x="509" 
d="M308 75q-17 -35 -49.5 -51t-68.5 -16q-50 0 -77.5 22.5t-40 59.5t-14.5 85.5t-2 101.5q0 51 2 99t14.5 85t40.5 59t80 22q38 0 70.5 -16t51.5 -52v58h129v-589q0 -92 -49 -130.5t-140 -38.5q-34 0 -67 4t-59.5 18.5t-42.5 41.5t-16 74q0 5 0.5 10t1.5 7h125q-2 -2 -2 -13
q0 -20 12.5 -31.5t43.5 -11.5q39 0 48 17t9 51v134zM308 333q0 21 -1.5 40.5t-7.5 35t-17.5 25t-30.5 9.5q-22 0 -34.5 -11t-18.5 -33t-7 -55t-1 -77t1 -74.5t6.5 -50t18 -28.5t35.5 -9q19 0 30 9.5t17 25t8 35.5t2 40v118zM306.005 758.986l-30.998 -77.9951h42.9971
v-113.993h-126.992v97.9941l60.9961 93.9941h53.9971z" />
    <glyph glyph-name="Hcircumflex" unicode="&#x124;" horiz-adv-x="594" 
d="M375 0v336h-158v-336h-150v759h150v-306h158v306h149v-759h-149zM297 888l-144 -73v47l144 112l143 -112v-47z" />
    <glyph glyph-name="hcircumflex" unicode="&#x125;" horiz-adv-x="522" 
d="M322 0v376q0 12 -1 24t-6.5 21.5t-16.5 15.5t-31 6q-19 0 -30.5 -6t-17.5 -15.5t-8 -21.5t-3 -23v-377h-136v759h136v-285q18 33 52 50.5t73 17.5q38 0 62.5 -9.5t38 -27t18.5 -42.5t5 -56v-407h-135zM216 888l-144 -73v47l144 112l143 -112v-47z" />
    <glyph glyph-name="Hbar" unicode="&#x126;" horiz-adv-x="594" 
d="M375 0v336h-158v-336h-150v759h150v-116h158v116h149v-759h-149zM375 574h-158v-121h158v121z" />
    <glyph glyph-name="hbar" unicode="&#x127;" horiz-adv-x="522" 
d="M322 0v376q0 12 -1 24t-6.5 21.5t-16.5 15.5t-31 6q-19 0 -30.5 -6t-17.5 -15.5t-8 -21.5t-3 -23v-377h-136v603h-72v69h72v87h136v-87h66v-69h-66v-129q18 33 52 50.5t73 17.5q38 0 62.5 -9.5t38 -27t18.5 -42.5t5 -56v-407h-135z" />
    <glyph glyph-name="Itilde" unicode="&#x128;" horiz-adv-x="297" 
d="M74 0v759h149v-759h-149zM287 872q-31 -32 -72 -32q-17 0 -33 6t-32.5 12.5t-33 12.5t-35.5 6q-25 0 -39 -9.5t-30 -29.5v73q17 17 34.5 24t36.5 7q18 0 34.5 -6t32.5 -12.5t33 -12.5t35 -6q25 0 39.5 10t29.5 30v-73z" />
    <glyph glyph-name="itilde" unicode="&#x129;" horiz-adv-x="341" 
d="M102 0v532h137v-532h-137zM309 645q-31 -32 -72 -32q-17 0 -33 6t-32.5 12.5t-33 12.5t-35.5 6q-25 0 -39 -9.5t-30 -29.5v73q17 17 34.5 24t36.5 7q18 0 34.5 -6t32.5 -12.5t33 -12.5t35 -6q25 0 39.5 10t29.5 30v-73z" />
    <glyph glyph-name="Imacron" unicode="&#x12a;" horiz-adv-x="297" 
d="M74 0v759h149v-759h-149zM13 854v69h274v-69h-274z" />
    <glyph glyph-name="imacron" unicode="&#x12b;" horiz-adv-x="341" 
d="M102 0v532h137v-532h-137zM35 627v69h274v-69h-274z" />
    <glyph glyph-name="Ibreve" unicode="&#x12c;" horiz-adv-x="297" 
d="M74 0v759h149v-759h-149zM311 974q-6 -75 -48 -117t-113 -42t-112.5 42t-49.5 117h61q15 -90 101 -90q87 0 102 90h59z" />
    <glyph glyph-name="ibreve" unicode="&#x12d;" horiz-adv-x="341" 
d="M102 0v532h137v-532h-137zM333 747q-6 -75 -48 -117t-113 -42t-112.5 42t-49.5 117h61q15 -90 101 -90q87 0 102 90h59z" />
    <glyph glyph-name="Iogonek" unicode="&#x12e;" horiz-adv-x="297" 
d="M143 -226q-25 0 -48 4.5t-40 16t-27.5 31.5t-10.5 50q0 33 16 56t41 38v789h149v-759q-35 -9 -60 -17t-41 -17.5t-23 -21.5t-7 -29q0 -42 56 -42h75v-99h-80z" />
    <glyph glyph-name="iogonek" unicode="&#x12f;" horiz-adv-x="285" 
d="M131 -226q-25 0 -48 4.5t-40 16t-27.5 31.5t-10.5 50q0 37 20 61t49 39v556h137v-532q-35 -9 -60 -17t-41 -17.5t-23 -21.5t-7 -29q0 -42 56 -42h75v-99h-80zM74 638v121h137v-121h-137z" />
    <glyph glyph-name="Idotaccent" unicode="&#x130;" horiz-adv-x="297" 
d="M74 0v759h149v-759h-149zM99 824v118h99v-118h-99z" />
    <glyph glyph-name="dotlessi" unicode="&#x131;" horiz-adv-x="285" 
d="M74 0v532h137v-532h-137z" />
    <glyph glyph-name="IJ" unicode="&#x132;" horiz-adv-x="826" 
d="M74 0v759h149v-759h-149zM614 759h148v-560q0 -63 -14.5 -103.5t-42.5 -64t-69 -32t-95 -8.5q-56 0 -96.5 8.5t-66.5 32t-38 64t-12 103.5v72h137v-72q0 -57 18.5 -75.5t56.5 -18.5q22 0 36 4t22.5 14.5t12 28.5t3.5 47v560z" />
    <glyph glyph-name="ij" unicode="&#x133;" horiz-adv-x="587" 
d="M74 0v532h137v-532h-137zM74 638v121h137v-121h-137zM291 -122q6 -2 12 -3t12 -1q58 0 58 64v594h136v-585q0 -38 -6.5 -69.5t-23.5 -54.5t-46 -36t-74 -13q-20 0 -36.5 1.5t-31.5 6.5v96zM372 638v121h137v-121h-137z" />
    <glyph glyph-name="Jcircumflex" unicode="&#x134;" horiz-adv-x="529" 
d="M317 759h148v-560q0 -63 -14.5 -103.5t-42.5 -64t-69 -32t-95 -8.5q-56 0 -96.5 8.5t-66.5 32t-38 64t-12 103.5v72h137v-72q0 -57 18.5 -75.5t56.5 -18.5q22 0 36 4t22.5 14.5t12 28.5t3.5 47v560zM325 888l-144 -73v47l144 112l143 -112v-47z" />
    <glyph glyph-name="jcircumflex" unicode="&#x135;" horiz-adv-x="302" 
d="M6 -122q6 -2 12 -3t12 -1q58 0 58 64v594h136v-585q0 -38 -6.5 -69.5t-23.5 -54.5t-46 -36t-74 -13q-20 0 -36.5 1.5t-31.5 6.5v96zM123 661l-144 -73v47l144 112l143 -112v-47z" />
    <glyph glyph-name="uni0136" unicode="&#x136;" horiz-adv-x="579" 
d="M389 0l-116 249q-24 51 -37 80.5t-23 53.5q2 -25 2.5 -58.5t0.5 -92.5v-232h-149v759h149v-193v-49.5t-0.5 -37t-1 -30t-1.5 -27.5q5 13 10.5 25t13 27t17.5 34.5t24 46.5l109 204h156l-189 -337l199 -422h-164zM253 -226l31 78h-43v114h127v-98l-61 -94h-54z" />
    <glyph glyph-name="uni0137" unicode="&#x137;" horiz-adv-x="513" 
d="M334 0l-75 165q-12 28 -20.5 47.5t-14.5 35t-11 27.5t-9 25q1 -14 1.5 -27t1 -29.5t0.5 -38v-52.5v-153h-135v759h135v-320v-48.5t-0.5 -33t-1 -23t-1.5 -19.5q4 9 8.5 17.5t11.5 20.5t17.5 29t26.5 43l67 107h133l-137 -213l153 -319h-150zM218 -226l31 78h-43v114h127
v-98l-61 -94h-54z" />
    <glyph glyph-name="Lacute" unicode="&#x139;" horiz-adv-x="453" 
d="M67 0v759h150v-638h211v-121h-361zM35 823v43l225 76v-84z" />
    <glyph glyph-name="lacute" unicode="&#x13a;" horiz-adv-x="281" 
d="M72 0v759h136v-759h-136zM49 823v43l225 76v-84z" />
    <glyph glyph-name="uni013B" unicode="&#x13b;" horiz-adv-x="453" 
d="M67 0v759h150v-638h211v-121h-361zM195 -226l31 78h-43v114h127v-98l-61 -94h-54z" />
    <glyph glyph-name="uni013C" unicode="&#x13c;" horiz-adv-x="281" 
d="M72 0v759h136v-759h-136zM89 -226l31 78h-43v114h127v-98l-61 -94h-54z" />
    <glyph glyph-name="Lcaron" unicode="&#x13d;" horiz-adv-x="453" 
d="M67 0v759h150v-638h211v-121h-361zM291 508l22 107h-42v144h127v-122l-52 -129h-55z" />
    <glyph glyph-name="lcaron" unicode="&#x13e;" horiz-adv-x="400" 
d="M72 0v759h136v-759h-136zM297 508l22 107h-42v144h127v-122l-52 -129h-55z" />
    <glyph glyph-name="Ldot" unicode="&#x13f;" horiz-adv-x="453" 
d="M67 0v759h150v-638h211v-121h-361zM265 351v118h99v-118h-99z" />
    <glyph glyph-name="ldot" unicode="&#x140;" horiz-adv-x="344" 
d="M72 0v759h136v-759h-136zM245 334v118h99v-118h-99z" />
    <glyph glyph-name="Lslash" unicode="&#x141;" horiz-adv-x="464" 
d="M80 0v320l-50 -14v71l50 15v367h148v-326l113 32v-72l-113 -32v-241h212v-120h-360z" />
    <glyph glyph-name="lslash" unicode="&#x142;" horiz-adv-x="310" 
d="M81 0v353l-52 -16v72l52 14v336h137v-297l58 18v-73l-58 -16v-391h-137z" />
    <glyph glyph-name="Nacute" unicode="&#x143;" horiz-adv-x="627" 
d="M388 0l-146 414q-14 39 -24 68t-17.5 53t-14 45t-13.5 43q1 -24 2 -45.5t1.5 -47t0.5 -57v-73.5v-400h-113v759h195l130 -390l19.5 -58.5t15 -48t12.5 -43.5t12 -44q-2 24 -2.5 45t-1 44.5t-0.5 51.5v64v379h119v-759h-175zM221 823v43l225 76v-84z" />
    <glyph glyph-name="nacute" unicode="&#x144;" horiz-adv-x="522" 
d="M322 0v376q0 12 -1 24t-6.5 21.5t-16.5 15.5t-31 6q-19 0 -30.5 -6t-17.5 -15.5t-8 -21.5t-3 -23v-377h-136v532h136v-58q18 33 52 50.5t73 17.5q38 0 62.5 -9.5t38 -27t18.5 -42.5t5 -56v-407h-135zM168 596v43l225 76v-84z" />
    <glyph glyph-name="uni0145" unicode="&#x145;" horiz-adv-x="627" 
d="M388 0l-146 414q-14 39 -24 68t-17.5 53t-14 45t-13.5 43q1 -24 2 -45.5t1.5 -47t0.5 -57v-73.5v-400h-113v759h195l130 -390l19.5 -58.5t15 -48t12.5 -43.5t12 -44q-2 24 -2.5 45t-1 44.5t-0.5 51.5v64v379h119v-759h-175zM262 -226l31 78h-43v114h127v-98l-61 -94h-54z
" />
    <glyph glyph-name="uni0146" unicode="&#x146;" horiz-adv-x="522" 
d="M322 0v376q0 12 -1 24t-6.5 21.5t-16.5 15.5t-31 6q-19 0 -30.5 -6t-17.5 -15.5t-8 -21.5t-3 -23v-377h-136v532h136v-58q18 33 52 50.5t73 17.5q38 0 62.5 -9.5t38 -27t18.5 -42.5t5 -56v-407h-135zM219 -226l31 78h-43v114h127v-98l-61 -94h-54z" />
    <glyph glyph-name="Ncaron" unicode="&#x147;" horiz-adv-x="627" 
d="M388 0l-146 414q-14 39 -24 68t-17.5 53t-14 45t-13.5 43q1 -24 2 -45.5t1.5 -47t0.5 -57v-73.5v-400h-113v759h195l130 -390l19.5 -58.5t15 -48t12.5 -43.5t12 -44q-2 24 -2.5 45t-1 44.5t-0.5 51.5v64v379h119v-759h-175zM314 815l-144 110v49l144 -75l143 75v-49z" />
    <glyph glyph-name="ncaron" unicode="&#x148;" horiz-adv-x="522" 
d="M322 0v376q0 12 -1 24t-6.5 21.5t-16.5 15.5t-31 6q-19 0 -30.5 -6t-17.5 -15.5t-8 -21.5t-3 -23v-377h-136v532h136v-58q18 33 52 50.5t73 17.5q38 0 62.5 -9.5t38 -27t18.5 -42.5t5 -56v-407h-135zM271 588l-144 110v49l144 -75l143 75v-49z" />
    <glyph glyph-name="Eng" unicode="&#x14a;" horiz-adv-x="627" 
d="M290 -120q12 -3 24.5 -5t24.5 -2q51 0 75.5 18t27.5 61l-189 458q-16 39 -28.5 70t-22 57t-17 48.5t-13.5 43.5q1 -23 2 -45.5t1.5 -49.5t1 -59.5t0.5 -74.5v-400h-113v759h195l130 -364q11 -32 19.5 -56.5t15 -45.5t12.5 -41t12 -42q-2 22 -2.5 42.5t-1 43t-0.5 49v61.5
v353h119v-777q0 -47 -8.5 -85.5t-29.5 -65.5t-57.5 -42t-92.5 -15q-24 0 -45 2t-40 7v97z" />
    <glyph glyph-name="eng" unicode="&#x14b;" horiz-adv-x="522" 
d="M239 -122q6 -2 12 -3t12 -1q57 0 59 64v438q0 12 -1 24t-6.5 21.5t-16.5 15.5t-31 6q-19 0 -30.5 -6t-17.5 -15.5t-8 -21.5t-3 -23v-377h-136v532h136v-58q18 33 52 50.5t73 17.5q38 0 62.5 -9.5t38 -27t18.5 -42.5t5 -56v-460q0 -38 -6.5 -69.5t-23.5 -54.5t-46 -36
t-74 -13q-20 0 -36.5 1.5t-31.5 6.5v96z" />
    <glyph glyph-name="Omacron" unicode="&#x14c;" horiz-adv-x="584" 
d="M292 -9q-87 0 -134.5 24.5t-69 73t-25.5 121t-4 169.5t3.5 170t25.5 122t69.5 74t134.5 25q88 0 135.5 -25t69.5 -74t25.5 -122t3.5 -170t-4 -169.5t-26 -121t-69.5 -73t-134.5 -24.5zM374 419q0 72 -1.5 118t-9.5 73t-24.5 37t-46.5 10q-29 0 -45.5 -10t-24.5 -37
t-9.5 -73t-1.5 -118v-66q0 -74 1.5 -122.5t9.5 -77t24.5 -40t45.5 -11.5q30 0 46.5 11.5t24.5 40t9.5 77t1.5 122.5v66zM155 854v69h274v-69h-274z" />
    <glyph glyph-name="omacron" unicode="&#x14d;" horiz-adv-x="530" 
d="M264 -9q-76 0 -117 21t-60.5 58.5t-23 89t-3.5 113.5q0 58 3.5 107.5t23 85.5t60.5 56t117 20t117.5 -20t61 -56t23 -85.5t3.5 -107.5q0 -62 -3.5 -113.5t-23 -89t-61 -58.5t-117.5 -21zM330 284q0 47 -2 77.5t-9 48.5t-20 25.5t-35 7.5t-35 -7.5t-20 -25.5t-9 -48.5
t-2 -77.5v-23q0 -52 2 -85t9 -52.5t20 -27t35 -7.5t35 7.5t20 27t9 52.5t2 85v23zM128 627v69h274v-69h-274z" />
    <glyph glyph-name="Obreve" unicode="&#x14e;" horiz-adv-x="584" 
d="M292 -9q-87 0 -134.5 24.5t-69 73t-25.5 121t-4 169.5t3.5 170t25.5 122t69.5 74t134.5 25q88 0 135.5 -25t69.5 -74t25.5 -122t3.5 -170t-4 -169.5t-26 -121t-69.5 -73t-134.5 -24.5zM374 419q0 72 -1.5 118t-9.5 73t-24.5 37t-46.5 10q-29 0 -45.5 -10t-24.5 -37
t-9.5 -73t-1.5 -118v-66q0 -74 1.5 -122.5t9.5 -77t24.5 -40t45.5 -11.5q30 0 46.5 11.5t24.5 40t9.5 77t1.5 122.5v66zM453 974q-6 -75 -48 -117t-113 -42t-112.5 42t-49.5 117h61q15 -90 101 -90q87 0 102 90h59z" />
    <glyph glyph-name="obreve" unicode="&#x14f;" horiz-adv-x="530" 
d="M264 -9q-76 0 -117 21t-60.5 58.5t-23 89t-3.5 113.5q0 58 3.5 107.5t23 85.5t60.5 56t117 20t117.5 -20t61 -56t23 -85.5t3.5 -107.5q0 -62 -3.5 -113.5t-23 -89t-61 -58.5t-117.5 -21zM330 284q0 47 -2 77.5t-9 48.5t-20 25.5t-35 7.5t-35 -7.5t-20 -25.5t-9 -48.5
t-2 -77.5v-23q0 -52 2 -85t9 -52.5t20 -27t35 -7.5t35 7.5t20 27t9 52.5t2 85v23zM426 747q-6 -75 -48 -117t-113 -42t-112.5 42t-49.5 117h61q15 -90 101 -90q87 0 102 90h59z" />
    <glyph glyph-name="Ohungarumlaut" unicode="&#x150;" horiz-adv-x="584" 
d="M292 -9q-87 0 -134.5 24.5t-69 73t-25.5 121t-4 169.5t3.5 170t25.5 122t69.5 74t134.5 25q88 0 135.5 -25t69.5 -74t25.5 -122t3.5 -170t-4 -169.5t-26 -121t-69.5 -73t-134.5 -24.5zM374 419q0 72 -1.5 118t-9.5 73t-24.5 37t-46.5 10q-29 0 -45.5 -10t-24.5 -37
t-9.5 -73t-1.5 -118v-66q0 -74 1.5 -122.5t9.5 -77t24.5 -40t45.5 -11.5q30 0 46.5 11.5t24.5 40t9.5 77t1.5 122.5v66zM331 815l55 159h65l-59 -159h-61zM173 815l56 159h65l-60 -159h-61z" />
    <glyph glyph-name="ohungarumlaut" unicode="&#x151;" horiz-adv-x="530" 
d="M264 -9q-76 0 -117 21t-60.5 58.5t-23 89t-3.5 113.5q0 58 3.5 107.5t23 85.5t60.5 56t117 20t117.5 -20t61 -56t23 -85.5t3.5 -107.5q0 -62 -3.5 -113.5t-23 -89t-61 -58.5t-117.5 -21zM330 284q0 47 -2 77.5t-9 48.5t-20 25.5t-35 7.5t-35 -7.5t-20 -25.5t-9 -48.5
t-2 -77.5v-23q0 -52 2 -85t9 -52.5t20 -27t35 -7.5t35 7.5t20 27t9 52.5t2 85v23zM304 588l55 159h65l-59 -159h-61zM146 588l56 159h65l-60 -159h-61z" />
    <glyph glyph-name="OE" unicode="&#x152;" horiz-adv-x="780" 
d="M385 0q-41 -9 -93 -9q-87 0 -134.5 24.5t-69 73t-25.5 121t-4 169.5t3.5 170t25.5 122t69.5 74t134.5 25q55 0 97 -11h329v-126h-209v-170h200v-127h-200v-212h213v-124h-337zM374 419q0 72 -1.5 118t-9.5 73t-24.5 37t-46.5 10q-29 0 -45.5 -10t-24.5 -37t-9.5 -73
t-1.5 -118v-66q0 -74 1.5 -122.5t9.5 -77t24.5 -40t45.5 -11.5q30 0 46.5 11.5t24.5 40t9.5 77t1.5 122.5v66z" />
    <glyph glyph-name="oe" unicode="&#x153;" horiz-adv-x="795" 
d="M460 240q0 -36 2 -64t9 -47.5t20.5 -29.5t37.5 -10q22 0 35 5.5t20 16t9.5 26t2.5 35.5h133q-2 -53 -14 -88t-36 -55.5t-61 -29t-88 -8.5q-43 0 -76 8t-57 30q-23 -20 -56 -29t-75 -9q-76 0 -117.5 21t-60.5 58.5t-22.5 89.5t-3.5 113q0 58 3.5 107t22.5 85t59.5 56.5
t115.5 20.5q85 0 134 -37q50 37 136 37q74 0 114.5 -17.5t59 -51t22 -81t3.5 -107.5v-45h-272zM331 326q0 31 -2.5 53t-9.5 36.5t-20 21t-34 6.5q-42 0 -53.5 -27.5t-11.5 -89.5v-117q0 -32 2.5 -55t9 -37.5t19.5 -21t34 -6.5q24 0 37.5 8.5t20 27t7.5 48.5t1 73v80z
M594 315q0 33 -1.5 57t-8.5 39.5t-20 23.5t-37 8q-22 0 -35.5 -8.5t-20.5 -25t-9 -40t-2 -54.5h134z" />
    <glyph glyph-name="Racute" unicode="&#x154;" horiz-adv-x="567" 
d="M363 543q0 21 -2 39t-10 32t-23 22t-41 8h-70v-240h69q27 0 42.5 9t23 23.5t9.5 34t2 40.5v32zM376 0q-5 18 -7.5 44.5t-2.5 60.5v87q0 22 -2.5 41t-11 33t-24 22t-42.5 8h-69v-296h-150v759h220q57 0 99.5 -8.5t71 -30.5t42.5 -60t14 -97v-27q0 -91 -32 -132t-99 -49
q23 -3 46 -9.5t41 -21.5t29.5 -41.5t11.5 -69.5v-88q0 -39 2.5 -70.5t6.5 -54.5h-144zM191 823v43l225 76v-84z" />
    <glyph glyph-name="racute" unicode="&#x155;" horiz-adv-x="404" 
d="M72 0v532h136v-59q21 38 56 53.5t76 15.5q8 0 18.5 -1t18.5 -3v-118q-28 11 -55 11q-21 0 -40.5 -5t-35.5 -16.5t-26.5 -29t-11.5 -41.5v-339h-136zM109 596v43l225 76v-84z" />
    <glyph glyph-name="uni0156" unicode="&#x156;" horiz-adv-x="567" 
d="M363 543q0 21 -2 39t-10 32t-23 22t-41 8h-70v-240h69q27 0 42.5 9t23 23.5t9.5 34t2 40.5v32zM376 0q-5 18 -7.5 44.5t-2.5 60.5v87q0 22 -2.5 41t-11 33t-24 22t-42.5 8h-69v-296h-150v759h220q57 0 99.5 -8.5t71 -30.5t42.5 -60t14 -97v-27q0 -91 -32 -132t-99 -49
q23 -3 46 -9.5t41 -21.5t29.5 -41.5t11.5 -69.5v-88q0 -39 2.5 -70.5t6.5 -54.5h-144zM247 -226l31 78h-43v114h127v-98l-61 -94h-54z" />
    <glyph glyph-name="uni0157" unicode="&#x157;" horiz-adv-x="404" 
d="M72 0v532h136v-59q21 38 56 53.5t76 15.5q8 0 18.5 -1t18.5 -3v-118q-28 11 -55 11q-21 0 -40.5 -5t-35.5 -16.5t-26.5 -29t-11.5 -41.5v-339h-136zM90 -226l31 78h-43v114h127v-98l-61 -94h-54z" />
    <glyph glyph-name="Rcaron" unicode="&#x158;" horiz-adv-x="567" 
d="M363 543q0 21 -2 39t-10 32t-23 22t-41 8h-70v-240h69q27 0 42.5 9t23 23.5t9.5 34t2 40.5v32zM376 0q-5 18 -7.5 44.5t-2.5 60.5v87q0 22 -2.5 41t-11 33t-24 22t-42.5 8h-69v-296h-150v759h220q57 0 99.5 -8.5t71 -30.5t42.5 -60t14 -97v-27q0 -91 -32 -132t-99 -49
q23 -3 46 -9.5t41 -21.5t29.5 -41.5t11.5 -69.5v-88q0 -39 2.5 -70.5t6.5 -54.5h-144zM277 815l-144 110v49l144 -75l143 75v-49z" />
    <glyph glyph-name="rcaron" unicode="&#x159;" horiz-adv-x="404" 
d="M72 0v532h136v-59q21 38 56 53.5t76 15.5q8 0 18.5 -1t18.5 -3v-118q-28 11 -55 11q-21 0 -40.5 -5t-35.5 -16.5t-26.5 -29t-11.5 -41.5v-339h-136zM213 588l-144 110v49l144 -75l143 75v-49z" />
    <glyph glyph-name="Sacute" unicode="&#x15a;" horiz-adv-x="557" 
d="M350 535q1 5 1.5 12.5t0.5 24.5t-3 32.5t-11 27.5t-21.5 19t-34.5 7q-24 0 -39 -7.5t-23.5 -20t-11.5 -29t-3 -35.5q0 -33 10 -54t27.5 -34.5t40.5 -21.5t49 -17t52.5 -20.5t51.5 -30.5q41 -32 53.5 -76t12.5 -98q0 -114 -52.5 -168.5t-169.5 -54.5q-52 0 -93.5 8t-71 30
t-45 60t-15.5 97q0 26 1 39t2 18h142q-1 -3 -2 -14t-1 -19q0 -21 3 -40.5t11.5 -34.5t24 -24t41.5 -9q48 0 63 27t15 69q0 35 -11 61.5t-51 47.5q-35 18 -75.5 31.5t-75.5 36.5t-58.5 62t-23.5 108v20q0 58 15 97t43.5 63t69.5 34.5t92 10.5q43 0 81 -7t66.5 -27t45.5 -55
t17 -92q0 -25 -1 -38t-2 -16h-137zM186 823v43l225 76v-84z" />
    <glyph glyph-name="sacute" unicode="&#x15b;" horiz-adv-x="481" 
d="M285 380q1 6 1.5 11.5t0.5 10.5q0 23 -11 38.5t-40 15.5q-53 0 -53 -56q0 -31 21.5 -46.5t52 -25t64 -19t58.5 -29.5q27 -23 37 -55t10 -70q0 -55 -14.5 -87.5t-39.5 -49.5t-58.5 -22t-70.5 -5q-33 0 -67.5 3.5t-62.5 17t-45.5 41t-17.5 75.5q0 8 0.5 18.5t1.5 19.5h128
q-1 -5 -1.5 -12t-0.5 -12q0 -30 14 -45.5t47 -15.5q25 0 41.5 13t16.5 41q0 33 -18.5 49.5t-46 26.5t-59.5 18t-59.5 24.5t-46 45t-18.5 80.5t14 84t39 49.5t59 23.5t73 6q37 0 69 -5.5t56 -20t38 -39.5t14 -64v-17t-1 -16h-125zM150 596v43l225 76v-84z" />
    <glyph glyph-name="Scircumflex" unicode="&#x15c;" horiz-adv-x="557" 
d="M350 535q1 5 1.5 12.5t0.5 24.5t-3 32.5t-11 27.5t-21.5 19t-34.5 7q-24 0 -39 -7.5t-23.5 -20t-11.5 -29t-3 -35.5q0 -33 10 -54t27.5 -34.5t40.5 -21.5t49 -17t52.5 -20.5t51.5 -30.5q41 -32 53.5 -76t12.5 -98q0 -114 -52.5 -168.5t-169.5 -54.5q-52 0 -93.5 8t-71 30
t-45 60t-15.5 97q0 26 1 39t2 18h142q-1 -3 -2 -14t-1 -19q0 -21 3 -40.5t11.5 -34.5t24 -24t41.5 -9q48 0 63 27t15 69q0 35 -11 61.5t-51 47.5q-35 18 -75.5 31.5t-75.5 36.5t-58.5 62t-23.5 108v20q0 58 15 97t43.5 63t69.5 34.5t92 10.5q43 0 81 -7t66.5 -27t45.5 -55
t17 -92q0 -25 -1 -38t-2 -16h-137zM273 888l-144 -73v47l144 112l143 -112v-47z" />
    <glyph glyph-name="scircumflex" unicode="&#x15d;" horiz-adv-x="481" 
d="M285 380q1 6 1.5 11.5t0.5 10.5q0 23 -11 38.5t-40 15.5q-53 0 -53 -56q0 -31 21.5 -46.5t52 -25t64 -19t58.5 -29.5q27 -23 37 -55t10 -70q0 -55 -14.5 -87.5t-39.5 -49.5t-58.5 -22t-70.5 -5q-33 0 -67.5 3.5t-62.5 17t-45.5 41t-17.5 75.5q0 8 0.5 18.5t1.5 19.5h128
q-1 -5 -1.5 -12t-0.5 -12q0 -30 14 -45.5t47 -15.5q25 0 41.5 13t16.5 41q0 33 -18.5 49.5t-46 26.5t-59.5 18t-59.5 24.5t-46 45t-18.5 80.5t14 84t39 49.5t59 23.5t73 6q37 0 69 -5.5t56 -20t38 -39.5t14 -64v-17t-1 -16h-125zM243 661l-144 -73v47l144 112l143 -112v-47z
" />
    <glyph glyph-name="Scedilla" unicode="&#x15e;" horiz-adv-x="557" 
d="M350 535q1 5 1.5 12.5t0.5 24.5t-3 32.5t-11 27.5t-21.5 19t-34.5 7q-24 0 -39 -7.5t-23.5 -20t-11.5 -29t-3 -35.5q0 -33 10 -54t27.5 -34.5t40.5 -21.5t49 -17t52.5 -20.5t51.5 -30.5q41 -32 53.5 -76t12.5 -98q0 -114 -52.5 -168.5t-169.5 -54.5q-52 0 -93.5 8t-71 30
t-45 60t-15.5 97q0 26 1 39t2 18h142q-1 -3 -2 -14t-1 -19q0 -21 3 -40.5t11.5 -34.5t24 -24t41.5 -9q48 0 63 27t15 69q0 35 -11 61.5t-51 47.5q-35 18 -75.5 31.5t-75.5 36.5t-58.5 62t-23.5 108v20q0 58 15 97t43.5 63t69.5 34.5t92 10.5q43 0 81 -7t66.5 -27t45.5 -55
t17 -92q0 -25 -1 -38t-2 -16h-137zM227 -226l31 78h-43v114h127v-98l-61 -94h-54z" />
    <glyph glyph-name="scedilla" unicode="&#x15f;" horiz-adv-x="481" 
d="M285 380q1 6 1.5 11.5t0.5 10.5q0 23 -11 38.5t-40 15.5q-53 0 -53 -56q0 -31 21.5 -46.5t52 -25t64 -19t58.5 -29.5q27 -23 37 -55t10 -70q0 -55 -14.5 -87.5t-39.5 -49.5t-58.5 -22t-70.5 -5q-33 0 -67.5 3.5t-62.5 17t-45.5 41t-17.5 75.5q0 8 0.5 18.5t1.5 19.5h128
q-1 -5 -1.5 -12t-0.5 -12q0 -30 14 -45.5t47 -15.5q25 0 41.5 13t16.5 41q0 33 -18.5 49.5t-46 26.5t-59.5 18t-59.5 24.5t-46 45t-18.5 80.5t14 84t39 49.5t59 23.5t73 6q37 0 69 -5.5t56 -20t38 -39.5t14 -64v-17t-1 -16h-125zM191 -226l31 78h-43v114h127v-98l-61 -94
h-54z" />
    <glyph glyph-name="Scaron" unicode="&#x160;" horiz-adv-x="557" 
d="M350 535q1 5 1.5 12.5t0.5 24.5t-3 32.5t-11 27.5t-21.5 19t-34.5 7q-24 0 -39 -7.5t-23.5 -20t-11.5 -29t-3 -35.5q0 -33 10 -54t27.5 -34.5t40.5 -21.5t49 -17t52.5 -20.5t51.5 -30.5q41 -32 53.5 -76t12.5 -98q0 -114 -52.5 -168.5t-169.5 -54.5q-52 0 -93.5 8t-71 30
t-45 60t-15.5 97q0 26 1 39t2 18h142q-1 -3 -2 -14t-1 -19q0 -21 3 -40.5t11.5 -34.5t24 -24t41.5 -9q48 0 63 27t15 69q0 35 -11 61.5t-51 47.5q-35 18 -75.5 31.5t-75.5 36.5t-58.5 62t-23.5 108v20q0 58 15 97t43.5 63t69.5 34.5t92 10.5q43 0 81 -7t66.5 -27t45.5 -55
t17 -92q0 -25 -1 -38t-2 -16h-137zM279 815l-144 110v49l144 -75l143 75v-49z" />
    <glyph glyph-name="scaron" unicode="&#x161;" horiz-adv-x="481" 
d="M285 380q1 6 1.5 11.5t0.5 10.5q0 23 -11 38.5t-40 15.5q-53 0 -53 -56q0 -31 21.5 -46.5t52 -25t64 -19t58.5 -29.5q27 -23 37 -55t10 -70q0 -55 -14.5 -87.5t-39.5 -49.5t-58.5 -22t-70.5 -5q-33 0 -67.5 3.5t-62.5 17t-45.5 41t-17.5 75.5q0 8 0.5 18.5t1.5 19.5h128
q-1 -5 -1.5 -12t-0.5 -12q0 -30 14 -45.5t47 -15.5q25 0 41.5 13t16.5 41q0 33 -18.5 49.5t-46 26.5t-59.5 18t-59.5 24.5t-46 45t-18.5 80.5t14 84t39 49.5t59 23.5t73 6q37 0 69 -5.5t56 -20t38 -39.5t14 -64v-17t-1 -16h-125zM233 588l-144 110v49l144 -75l143 75v-49z
" />
    <glyph glyph-name="uni0162" unicode="&#x162;" horiz-adv-x="499" 
d="M176 0v638h-153v121h453v-121h-153v-638h-147zM198 -226l31 78h-43v114h127v-98l-61 -94h-54z" />
    <glyph glyph-name="uni0163" unicode="&#x163;" horiz-adv-x="337" 
d="M296 -2q-17 -3 -39.5 -5t-46.5 -2q-39 0 -65 10t-41 26t-21 36.5t-6 42.5v331h-57v95h57v160h136v-160h90v-95h-90v-292q0 -25 8 -41t37 -16q9 0 20 1t18 3v-94zM127 -226l31 78h-43v114h127v-98l-61 -94h-54z" />
    <glyph glyph-name="Tcaron" unicode="&#x164;" horiz-adv-x="499" 
d="M176 0v638h-153v121h453v-121h-153v-638h-147zM250 815l-144 110v49l144 -75l143 75v-49z" />
    <glyph glyph-name="tcaron" unicode="&#x165;" horiz-adv-x="458" 
d="M296 -2q-17 -3 -39.5 -5t-46.5 -2q-39 0 -65 10t-41 26t-21 36.5t-6 42.5v331h-57v95h57v160h136v-160h90v-95h-90v-292q0 -25 8 -41t37 -16q9 0 20 1t18 3v-94zM357 508l22 107h-42v144h127v-122l-52 -129h-55z" />
    <glyph glyph-name="Tbar" unicode="&#x166;" horiz-adv-x="499" 
d="M176 0v300h-69v96h69v242h-153v121h453v-121h-153v-242h69v-96h-69v-300h-147z" />
    <glyph glyph-name="tbar" unicode="&#x167;" horiz-adv-x="337" 
d="M296 -2q-17 -3 -39.5 -5t-46.5 -2q-39 0 -65 10t-41 26t-21 36.5t-6 42.5v154h-53v96h53v81h-57v95h57v160h136v-160h90v-95h-90v-81h85v-96h-85v-115q0 -25 8 -41t37 -16q9 0 20 1t18 3v-94z" />
    <glyph glyph-name="Utilde" unicode="&#x168;" horiz-adv-x="587" 
d="M375 759h148v-560q0 -63 -15.5 -103.5t-45 -64t-72 -32t-96.5 -8.5q-57 0 -100 8.5t-72.5 32t-44 64t-14.5 103.5v560h148v-560q0 -57 21 -75.5t61 -18.5q43 0 62.5 19t19.5 75v560zM431 872q-31 -32 -72 -32q-17 0 -33 6t-32.5 12.5t-33 12.5t-35.5 6q-25 0 -39 -9.5
t-30 -29.5v73q17 17 34.5 24t36.5 7q18 0 34.5 -6t32.5 -12.5t33 -12.5t35 -6q25 0 39.5 10t29.5 30v-73z" />
    <glyph glyph-name="utilde" unicode="&#x169;" horiz-adv-x="520" 
d="M311 0v59q-17 -34 -48.5 -51t-70.5 -17q-38 0 -62.5 9.5t-38.5 26.5t-19 42t-5 56v407h136v-376q0 -12 1 -24t6 -21.5t15.5 -15t29.5 -5.5q18 0 29 6t16.5 15.5t7.5 21t3 23.5v376h137v-532h-137zM397 645q-31 -32 -72 -32q-17 0 -33 6t-32.5 12.5t-33 12.5t-35.5 6
q-25 0 -39 -9.5t-30 -29.5v73q17 17 34.5 24t36.5 7q18 0 34.5 -6t32.5 -12.5t33 -12.5t35 -6q25 0 39.5 10t29.5 30v-73z" />
    <glyph glyph-name="Umacron" unicode="&#x16a;" horiz-adv-x="587" 
d="M375 759h148v-560q0 -63 -15.5 -103.5t-45 -64t-72 -32t-96.5 -8.5q-57 0 -100 8.5t-72.5 32t-44 64t-14.5 103.5v560h148v-560q0 -57 21 -75.5t61 -18.5q43 0 62.5 19t19.5 75v560zM156 854v69h274v-69h-274z" />
    <glyph glyph-name="umacron" unicode="&#x16b;" horiz-adv-x="520" 
d="M311 0v59q-17 -34 -48.5 -51t-70.5 -17q-38 0 -62.5 9.5t-38.5 26.5t-19 42t-5 56v407h136v-376q0 -12 1 -24t6 -21.5t15.5 -15t29.5 -5.5q18 0 29 6t16.5 15.5t7.5 21t3 23.5v376h137v-532h-137zM123 627v69h274v-69h-274z" />
    <glyph glyph-name="Ubreve" unicode="&#x16c;" horiz-adv-x="587" 
d="M375 759h148v-560q0 -63 -15.5 -103.5t-45 -64t-72 -32t-96.5 -8.5q-57 0 -100 8.5t-72.5 32t-44 64t-14.5 103.5v560h148v-560q0 -57 21 -75.5t61 -18.5q43 0 62.5 19t19.5 75v560zM455 974q-6 -75 -48 -117t-113 -42t-112.5 42t-49.5 117h61q15 -90 101 -90
q87 0 102 90h59z" />
    <glyph glyph-name="ubreve" unicode="&#x16d;" horiz-adv-x="520" 
d="M311 0v59q-17 -34 -48.5 -51t-70.5 -17q-38 0 -62.5 9.5t-38.5 26.5t-19 42t-5 56v407h136v-376q0 -12 1 -24t6 -21.5t15.5 -15t29.5 -5.5q18 0 29 6t16.5 15.5t7.5 21t3 23.5v376h137v-532h-137zM421 747q-6 -75 -48 -117t-113 -42t-112.5 42t-49.5 117h61
q15 -90 101 -90q87 0 102 90h59z" />
    <glyph glyph-name="Uring" unicode="&#x16e;" horiz-adv-x="587" 
d="M375 759h148v-560q0 -63 -15.5 -103.5t-45 -64t-72 -32t-96.5 -8.5q-57 0 -100 8.5t-72.5 32t-44 64t-14.5 103.5v560h148v-560q0 -57 21 -75.5t61 -18.5q43 0 62.5 19t19.5 75v560zM385 883q0 -15 -2.5 -31t-12 -29t-27.5 -21.5t-49 -8.5t-49 8.5t-27.5 21.5t-12.5 29
t-3 31t3 31.5t12.5 29.5t27.5 21.5t49 8.5t49 -8.5t27.5 -21.5t12 -29.5t2.5 -31.5zM294 827q33 0 41 17.5t8 38.5q0 10 -1.5 20.5t-6.5 18.5t-15 13t-26 5q-17 0 -27 -5t-15 -13t-6.5 -18.5t-1.5 -20.5q0 -11 1.5 -21t6.5 -17.5t15 -12.5t27 -5z" />
    <glyph glyph-name="uring" unicode="&#x16f;" horiz-adv-x="520" 
d="M311 0v59q-17 -34 -48.5 -51t-70.5 -17q-38 0 -62.5 9.5t-38.5 26.5t-19 42t-5 56v407h136v-376q0 -12 1 -24t6 -21.5t15.5 -15t29.5 -5.5q18 0 29 6t16.5 15.5t7.5 21t3 23.5v376h137v-532h-137zM351 656q0 -15 -2.5 -31t-12 -29t-27.5 -21.5t-49 -8.5t-49 8.5
t-27.5 21.5t-12.5 29t-3 31t3 31.5t12.5 29.5t27.5 21.5t49 8.5t49 -8.5t27.5 -21.5t12 -29.5t2.5 -31.5zM260 600q33 0 41 17.5t8 38.5q0 10 -1.5 20.5t-6.5 18.5t-15 13t-26 5q-17 0 -27 -5t-15 -13t-6.5 -18.5t-1.5 -20.5q0 -11 1.5 -21t6.5 -17.5t15 -12.5t27 -5z" />
    <glyph glyph-name="Uhungarumlaut" unicode="&#x170;" horiz-adv-x="587" 
d="M375 759h148v-560q0 -63 -15.5 -103.5t-45 -64t-72 -32t-96.5 -8.5q-57 0 -100 8.5t-72.5 32t-44 64t-14.5 103.5v560h148v-560q0 -57 21 -75.5t61 -18.5q43 0 62.5 19t19.5 75v560zM332 815l55 159h65l-59 -159h-61zM174 815l56 159h65l-60 -159h-61z" />
    <glyph glyph-name="uhungarumlaut" unicode="&#x171;" horiz-adv-x="520" 
d="M311 0v59q-17 -34 -48.5 -51t-70.5 -17q-38 0 -62.5 9.5t-38.5 26.5t-19 42t-5 56v407h136v-376q0 -12 1 -24t6 -21.5t15.5 -15t29.5 -5.5q18 0 29 6t16.5 15.5t7.5 21t3 23.5v376h137v-532h-137zM299 588l55 159h65l-59 -159h-61zM141 588l56 159h65l-60 -159h-61z" />
    <glyph glyph-name="Uogonek" unicode="&#x172;" horiz-adv-x="587" 
d="M316 -226q-25 0 -48 4.5t-40 16t-27.5 31.5t-10.5 50q0 24 9 43t24 33t33.5 23.5t37.5 15.5q-57 0 -100 8.5t-72.5 32t-44 64t-14.5 103.5v560h148v-560q0 -57 21 -75.5t61 -18.5q43 0 62.5 19t19.5 75v560h148v-560q0 -47 -9 -81t-25.5 -57.5t-41 -38t-55.5 -22.5
q-68 -17 -97.5 -34t-29.5 -51q0 -42 56 -42h75v-99h-80z" />
    <glyph glyph-name="uogonek" unicode="&#x173;" horiz-adv-x="520" 
d="M368 -226q-25 0 -48 4.5t-40 16t-27.5 31.5t-10.5 50q0 37 20 61t49 39v83q-17 -34 -48.5 -51t-70.5 -17q-38 0 -62.5 9.5t-38.5 26.5t-19 42t-5 56v407h136v-376q0 -12 1 -24t6 -21.5t15.5 -15t29.5 -5.5q18 0 29 6t16.5 15.5t7.5 21t3 23.5v376h137v-532l-97 -32
q-20 -7 -27 -21t-7 -32q0 -42 56 -42h75v-99h-80z" />
    <glyph glyph-name="Wcircumflex" unicode="&#x174;" horiz-adv-x="851" 
d="M525 0l-72 429q-6 36 -10 64.5t-7 52.5t-5 46t-4 45q-2 -23 -4.5 -45t-5.5 -46t-7.5 -52.5t-10.5 -64.5l-75 -429h-179q-5 31 -15 91t-21.5 133.5t-24.5 154.5t-25 155t-21.5 133.5t-14.5 91.5h142l60 -448q9 -74 12 -118.5t5 -78.5q2 34 6.5 78.5t16.5 118.5l74 448h181
l72 -448q12 -74 16 -118.5t6 -78.5q1 34 4 78.5t13 118.5l58 448h139l-121 -759h-182zM426 888l-144 -73v47l144 112l143 -112v-47z" />
    <glyph glyph-name="wcircumflex" unicode="&#x175;" horiz-adv-x="725" 
d="M433 0l-43 230q-6 35 -10.5 61t-8 48t-6 41.5t-4.5 42.5q-2 -23 -4.5 -42.5t-5.5 -41.5t-8 -48t-12 -61l-45 -230h-166l-95 532h124l43 -299q4 -27 6 -46.5t3.5 -36.5t2.5 -33t2 -34q2 18 4 34t4.5 33t5.5 36.5t8 46.5l55 299h159l52 -302q4 -26 7.5 -45t6 -35.5t4 -32
t3.5 -34.5q0 19 1 34.5t2.5 32t4.5 35.5t7 45l46 302h121q-4 -22 -12 -64t-17.5 -94t-20 -108.5t-20 -108t-17.5 -93.5t-12 -64h-165zM363 661l-144 -73v47l144 112l143 -112v-47z" />
    <glyph glyph-name="Ycircumflex" unicode="&#x176;" horiz-adv-x="557" 
d="M201 0v256l-177 503h149l67 -222q9 -29 15 -51t10.5 -40t7.5 -34l6 -32q3 16 5.5 32t7 34t10.5 40t15 51l71 222h144l-184 -503v-256h-147zM279 888l-144 -73v47l144 112l143 -112v-47z" />
    <glyph glyph-name="ycircumflex" unicode="&#x177;" horiz-adv-x="500" 
d="M147 -226l54 192l-171 566h134l61 -252q7 -30 12.5 -52.5t9.5 -41.5t7 -36t5 -35q2 18 4.5 35t5.5 36t8 41.5t11 51.5l54 253h135l-200 -758h-130zM260 661l-144 -73v47l144 112l143 -112v-47z" />
    <glyph glyph-name="Ydieresis" unicode="&#x178;" horiz-adv-x="557" 
d="M201 0v256l-177 503h149l67 -222q9 -29 15 -51t10.5 -40t7.5 -34l6 -32q3 16 5.5 32t7 34t10.5 40t15 51l71 222h144l-184 -503v-256h-147zM332 824v118h98v-118h-98zM126 824v118h98v-118h-98z" />
    <glyph glyph-name="Zacute" unicode="&#x179;" horiz-adv-x="493" 
d="M38 0v132l260 507h-242v120h394v-120l-264 -521h268v-118h-416zM154 823v43l225 76v-84z" />
    <glyph glyph-name="zacute" unicode="&#x17a;" horiz-adv-x="436" 
d="M45 0v106l205 331h-196v95h331v-95l-200 -343h204v-94h-344zM125 596v43l225 76v-84z" />
    <glyph glyph-name="Zdotaccent" unicode="&#x17b;" horiz-adv-x="493" 
d="M38 0v132l260 507h-242v120h394v-120l-264 -521h268v-118h-416zM207 824v118h99v-118h-99z" />
    <glyph glyph-name="zdotaccent" unicode="&#x17c;" horiz-adv-x="436" 
d="M45 0v106l205 331h-196v95h331v-95l-200 -343h204v-94h-344zM174 597v118h99v-118h-99z" />
    <glyph glyph-name="Zcaron" unicode="&#x17d;" horiz-adv-x="493" 
d="M38 0v132l260 507h-242v120h394v-120l-264 -521h268v-118h-416zM257 815l-144 110v49l144 -75l143 75v-49z" />
    <glyph glyph-name="zcaron" unicode="&#x17e;" horiz-adv-x="436" 
d="M45 0v106l205 331h-196v95h331v-95l-200 -343h204v-94h-344zM228 588l-144 110v49l144 -75l143 75v-49z" />
    <glyph glyph-name="florin" unicode="&#x192;" 
d="M32 -152v123h41q31 0 44 12t18 45l60 426h-60v111h75l6 39q8 45 22 74.5t38 47.5t61 25.5t91 7.5h43v-123h-54q-24 0 -34.5 -9.5t-13.5 -31.5l-4 -30h81v-111h-96l-62 -445q-7 -48 -21 -79t-39 -49t-62 -25.5t-89 -7.5h-45z" />
    <glyph glyph-name="Ohorn" unicode="&#x1a0;" horiz-adv-x="649" 
d="M292 -9q-87 0 -134.5 24.5t-69 73t-25.5 121t-4 169.5t3.5 170t25.5 122t69.5 74t134.5 25q89 0 137 -25t69 -76q11 -26 28 -37t40 -11q25 0 34.5 15t9.5 47v76h91v-82q0 -25 -4 -48t-15 -40.5t-30.5 -28t-49.5 -10.5q-25 0 -47 9t-37 25q5 -42 6.5 -93t1.5 -112
q0 -97 -4 -169.5t-26 -121t-69.5 -73t-134.5 -24.5zM374 419q0 72 -1.5 118t-9.5 73t-24.5 37t-46.5 10q-29 0 -45.5 -10t-24.5 -37t-9.5 -73t-1.5 -118v-66q0 -74 1.5 -122.5t9.5 -77t24.5 -40t45.5 -11.5q30 0 46.5 11.5t24.5 40t9.5 77t1.5 122.5v66z" />
    <glyph glyph-name="ohorn" unicode="&#x1a1;" horiz-adv-x="604" 
d="M264 -9q-76 0 -117 21t-60.5 58.5t-23 89t-3.5 113.5q0 58 3.5 107.5t23 85.5t60.5 56t117 20q46 0 78.5 -7.5t55 -21.5t36 -34t21.5 -45q11 -22 28 -31t38 -9q24 0 34 15t10 46v77h91v-83q0 -25 -4 -48t-15.5 -40t-31 -27.5t-49.5 -10.5q-28 0 -51 11.5t-39 31.5
q3 -42 3 -93q0 -62 -3.5 -113.5t-23 -89t-61 -58.5t-117.5 -21zM330 284q0 47 -2 77.5t-9 48.5t-20 25.5t-35 7.5t-35 -7.5t-20 -25.5t-9 -48.5t-2 -77.5v-23q0 -52 2 -85t9 -52.5t20 -27t35 -7.5t35 7.5t20 27t9 52.5t2 85v23z" />
    <glyph glyph-name="Uhorn" unicode="&#x1af;" horiz-adv-x="681" 
d="M375 759h148v-87q11 -26 29 -38.5t41 -12.5q25 0 35 15t10 47v76h91v-82q0 -25 -4 -48t-15.5 -40.5t-31 -28t-49.5 -10.5q-36 0 -64 19t-42 48v-418q0 -63 -15.5 -103.5t-45 -64t-72 -32t-96.5 -8.5q-57 0 -100 8.5t-72.5 32t-44 64t-14.5 103.5v560h148v-560
q0 -57 21 -75.5t61 -18.5q43 0 62.5 19t19.5 75v560z" />
    <glyph glyph-name="uhorn" unicode="&#x1b0;" horiz-adv-x="602" 
d="M311 0v59q-17 -34 -48.5 -51t-70.5 -17q-38 0 -62.5 9.5t-38.5 26.5t-19 42t-5 56v407h136v-376q0 -12 1 -24t6 -21.5t15.5 -15t29.5 -5.5q18 0 29 6t16.5 15.5t7.5 21t3 23.5v376h137v-86q19 -52 68 -52q25 0 35 15t10 47v76h91v-82q0 -25 -4 -48t-15.5 -40.5t-31 -28
t-49.5 -10.5q-36 0 -63 19.5t-41 48.5v-391h-137z" />
    <glyph glyph-name="uni0218" unicode="&#x218;" horiz-adv-x="557" 
d="M350 535q1 5 1.5 12.5t0.5 24.5t-3 32.5t-11 27.5t-21.5 19t-34.5 7q-24 0 -39 -7.5t-23.5 -20t-11.5 -29t-3 -35.5q0 -33 10 -54t27.5 -34.5t40.5 -21.5t49 -17t52.5 -20.5t51.5 -30.5q41 -32 53.5 -76t12.5 -98q0 -114 -52.5 -168.5t-169.5 -54.5q-52 0 -93.5 8t-71 30
t-45 60t-15.5 97q0 26 1 39t2 18h142q-1 -3 -2 -14t-1 -19q0 -21 3 -40.5t11.5 -34.5t24 -24t41.5 -9q48 0 63 27t15 69q0 35 -11 61.5t-51 47.5q-35 18 -75.5 31.5t-75.5 36.5t-58.5 62t-23.5 108v20q0 58 15 97t43.5 63t69.5 34.5t92 10.5q43 0 81 -7t66.5 -27t45.5 -55
t17 -92q0 -25 -1 -38t-2 -16h-137zM227 -226l31 78h-43v114h127v-98l-61 -94h-54z" />
    <glyph glyph-name="uni0219" unicode="&#x219;" horiz-adv-x="486" 
d="M285 380q1 6 1.5 11.5t0.5 10.5q0 23 -11 38.5t-40 15.5q-53 0 -53 -56q0 -31 21.5 -46.5t52 -25t64 -19t58.5 -29.5q27 -23 37 -55t10 -70q0 -55 -14.5 -87.5t-39.5 -49.5t-58.5 -22t-70.5 -5q-33 0 -67.5 3.5t-62.5 17t-45.5 41t-17.5 75.5q0 8 0.5 18.5t1.5 19.5h128
q-1 -5 -1.5 -12t-0.5 -12q0 -30 14 -45.5t47 -15.5q25 0 41.5 13t16.5 41q0 33 -18.5 49.5t-46 26.5t-59.5 18t-59.5 24.5t-46 45t-18.5 80.5t14 84t39 49.5t59 23.5t73 6q37 0 69 -5.5t56 -20t38 -39.5t14 -64v-17t-1 -16h-125zM191 -226l31 78h-43v114h127v-98l-61 -94
h-54z" />
    <glyph glyph-name="uni021A" unicode="&#x21a;" horiz-adv-x="499" 
d="M176 0v638h-153v121h453v-121h-153v-638h-147zM198 -226l31 78h-43v114h127v-98l-61 -94h-54z" />
    <glyph glyph-name="uni021B" unicode="&#x21b;" horiz-adv-x="337" 
d="M296 -2q-17 -3 -39.5 -5t-46.5 -2q-39 0 -65 10t-41 26t-21 36.5t-6 42.5v331h-57v95h57v160h136v-160h90v-95h-90v-292q0 -25 8 -41t37 -16q9 0 20 1t18 3v-94zM127 -226l31 78h-43v114h127v-98l-61 -94h-54z" />
    <glyph glyph-name="uni0237" unicode="&#x237;" horiz-adv-x="302" 
d="M6 -122q6 -2 12 -3t12 -1q58 0 58 64v594h136v-585q0 -38 -6.5 -69.5t-23.5 -54.5t-46 -36t-74 -13q-20 0 -36.5 1.5t-31.5 6.5v96z" />
    <glyph glyph-name="circumflex" unicode="&#x2c6;" horiz-adv-x="421" 
d="M211 661l-144 -73v47l144 112l143 -112v-47z" />
    <glyph glyph-name="caron" unicode="&#x2c7;" horiz-adv-x="421" 
d="M211 588l-144 110v49l144 -75l143 75v-49z" />
    <glyph glyph-name="uni02C9" unicode="&#x2c9;" horiz-adv-x="408" 
d="M67 627v69h274v-69h-274z" />
    <glyph glyph-name="breve" unicode="&#x2d8;" horiz-adv-x="460" 
d="M390 747q-6 -75 -48 -117t-113 -42t-112.5 42t-49.5 117h61q15 -90 101 -90q87 0 102 90h59z" />
    <glyph glyph-name="dotaccent" unicode="&#x2d9;" horiz-adv-x="235" 
d="M67 597v118h99v-118h-99z" />
    <glyph glyph-name="ring" unicode="&#x2da;" horiz-adv-x="318" 
d="M250 656q0 -15 -2.5 -31t-12 -29t-27.5 -21.5t-49 -8.5t-49 8.5t-27.5 21.5t-12.5 29t-3 31t3 31.5t12.5 29.5t27.5 21.5t49 8.5t49 -8.5t27.5 -21.5t12 -29.5t2.5 -31.5zM159 600q33 0 41 17.5t8 38.5q0 10 -1.5 20.5t-6.5 18.5t-15 13t-26 5q-17 0 -27 -5t-15 -13
t-6.5 -18.5t-1.5 -20.5q0 -11 1.5 -21t6.5 -17.5t15 -12.5t27 -5z" />
    <glyph glyph-name="ogonek" unicode="&#x2db;" horiz-adv-x="341" 
d="M193 -226q-25 0 -48 4.5t-40 16t-27.5 31.5t-10.5 50q0 31 14.5 53t36.5 36.5t49 23t53 11.5h53q-35 -9 -60 -17t-41 -17.5t-23 -21.5t-7 -29q0 -42 56 -42h75v-99h-80z" />
    <glyph glyph-name="tilde" unicode="&#x2dc;" horiz-adv-x="410" 
d="M342 645q-31 -32 -72 -32q-17 0 -33 6t-32.5 12.5t-33 12.5t-35.5 6q-25 0 -39 -9.5t-30 -29.5v73q17 17 34.5 24t36.5 7q18 0 34.5 -6t32.5 -12.5t33 -12.5t35 -6q25 0 39.5 10t29.5 30v-73z" />
    <glyph glyph-name="hungarumlaut" unicode="&#x2dd;" horiz-adv-x="414" 
d="M215 588l55 159h65l-59 -159h-61zM57 588l56 159h65l-60 -159h-61z" />
    <glyph glyph-name="tildecomb" unicode="&#x303;" horiz-adv-x="384" 
d="M311 696q-26 -26 -63 -26q-16 0 -30 5t-28 10.5t-28.5 10.5t-30.5 5q-23 0 -35.5 -7.5t-25.5 -22.5v49q25 24 63 24q16 0 30 -4.5t28 -10.5t28 -10.5t31 -4.5q23 0 36 7.5t25 22.5v-48zM71 565v29l119 72l121 -72v-29l-121 49z" />
    <glyph glyph-name="hookabovecomb" unicode="&#x309;" horiz-adv-x="293" 
d="M120 566v6q0 23 8.5 36t28.5 29q11 10 15 18t4 18q0 17 -6 27t-24 10q-22 0 -26 -12t-4 -24v-9h-51v9q0 15 1.5 28.5t10 23t25.5 15.5t47 6t47 -5.5t25 -14.5t9.5 -19.5t1.5 -19.5q0 -28 -10 -44t-22.5 -27.5t-22.5 -22.5t-10 -28h-47z" />
    <glyph glyph-name="dotbelowcomb" unicode="&#x323;" horiz-adv-x="233" 
d="M69 -226v118h94v-118h-94z" />
    <glyph glyph-name="uni037E" unicode="&#x37e;" horiz-adv-x="264" 
d="M90 -107l20 107h-42v143h126v-122l-52 -128h-52zM68 386v143h126v-143h-126z" />
    <glyph glyph-name="uni0394" unicode="&#x394;" horiz-adv-x="574" 
d="M30 0l153 759h214l148 -759h-515zM319 449q-5 29 -9.5 54.5t-8 49.5t-6.5 48.5t-6 50.5q-6 -53 -13.5 -99.5t-17.5 -103.5l-59 -331h173z" />
    <glyph glyph-name="uni03A9" unicode="&#x3a9;" horiz-adv-x="665" 
d="M372 0v108q37 51 54 139.5t17 201.5q0 50 -2 86t-12.5 59t-32.5 34t-63 11q-42 0 -64.5 -11t-33 -34t-12 -59t-1.5 -86q0 -113 16.5 -201.5t53.5 -139.5v-108h-218v121h90q-21 19 -39.5 53t-32 76.5t-21.5 91t-8 98.5q0 76 4 137t29.5 104t80.5 66t156 23t155.5 -23
t80 -66t29.5 -104t4 -137q0 -50 -8 -98.5t-21.5 -91t-32 -76.5t-39.5 -53h89v-121h-218z" />
    <glyph glyph-name="uni03BC" unicode="&#x3bc;" horiz-adv-x="518" 
d="M313 0v58q-14 -23 -39.5 -39.5t-69.5 -20.5v-224h-135v758h135v-376q0 -12 1 -24t6.5 -21.5t16 -15.5t28.5 -6q19 0 30 6t16.5 16t7.5 21.5t3 23.5v376h137v-532h-137z" />
    <glyph glyph-name="pi" unicode="&#x3c0;" horiz-adv-x="585" 
d="M558 -2q-17 -3 -39.5 -5t-47.5 -2q-38 0 -63.5 9t-40.5 25t-21.5 37t-6.5 44v331h-129v-437h-136v532h401v-387q0 -24 7.5 -40.5t37.5 -16.5q9 0 19.5 1t18.5 3v-94z" />
    <glyph glyph-name="Wgrave" unicode="&#x1e80;" horiz-adv-x="851" 
d="M525 0l-72 429q-6 36 -10 64.5t-7 52.5t-5 46t-4 45q-2 -23 -4.5 -45t-5.5 -46t-7.5 -52.5t-10.5 -64.5l-75 -429h-179q-5 31 -15 91t-21.5 133.5t-24.5 154.5t-25 155t-21.5 133.5t-14.5 91.5h142l60 -448q9 -74 12 -118.5t5 -78.5q2 34 6.5 78.5t16.5 118.5l74 448h181
l72 -448q12 -74 16 -118.5t6 -78.5q1 34 4 78.5t13 118.5l58 448h139l-121 -759h-182zM293 858v84l225 -76v-43z" />
    <glyph glyph-name="wgrave" unicode="&#x1e81;" horiz-adv-x="725" 
d="M433 0l-43 230q-6 35 -10.5 61t-8 48t-6 41.5t-4.5 42.5q-2 -23 -4.5 -42.5t-5.5 -41.5t-8 -48t-12 -61l-45 -230h-166l-95 532h124l43 -299q4 -27 6 -46.5t3.5 -36.5t2.5 -33t2 -34q2 18 4 34t4.5 33t5.5 36.5t8 46.5l55 299h159l52 -302q4 -26 7.5 -45t6 -35.5t4 -32
t3.5 -34.5q0 19 1 34.5t2.5 32t4.5 35.5t7 45l46 302h121q-4 -22 -12 -64t-17.5 -94t-20 -108.5t-20 -108t-17.5 -93.5t-12 -64h-165zM230 631v84l225 -76v-43z" />
    <glyph glyph-name="Wacute" unicode="&#x1e82;" horiz-adv-x="851" 
d="M525 0l-72 429q-6 36 -10 64.5t-7 52.5t-5 46t-4 45q-2 -23 -4.5 -45t-5.5 -46t-7.5 -52.5t-10.5 -64.5l-75 -429h-179q-5 31 -15 91t-21.5 133.5t-24.5 154.5t-25 155t-21.5 133.5t-14.5 91.5h142l60 -448q9 -74 12 -118.5t5 -78.5q2 34 6.5 78.5t16.5 118.5l74 448h181
l72 -448q12 -74 16 -118.5t6 -78.5q1 34 4 78.5t13 118.5l58 448h139l-121 -759h-182zM333 823v43l225 76v-84z" />
    <glyph glyph-name="wacute" unicode="&#x1e83;" horiz-adv-x="725" 
d="M433 0l-43 230q-6 35 -10.5 61t-8 48t-6 41.5t-4.5 42.5q-2 -23 -4.5 -42.5t-5.5 -41.5t-8 -48t-12 -61l-45 -230h-166l-95 532h124l43 -299q4 -27 6 -46.5t3.5 -36.5t2.5 -33t2 -34q2 18 4 34t4.5 33t5.5 36.5t8 46.5l55 299h159l52 -302q4 -26 7.5 -45t6 -35.5t4 -32
t3.5 -34.5q0 19 1 34.5t2.5 32t4.5 35.5t7 45l46 302h121q-4 -22 -12 -64t-17.5 -94t-20 -108.5t-20 -108t-17.5 -93.5t-12 -64h-165zM270 596v43l225 76v-84z" />
    <glyph glyph-name="Wdieresis" unicode="&#x1e84;" horiz-adv-x="851" 
d="M525 0l-72 429q-6 36 -10 64.5t-7 52.5t-5 46t-4 45q-2 -23 -4.5 -45t-5.5 -46t-7.5 -52.5t-10.5 -64.5l-75 -429h-179q-5 31 -15 91t-21.5 133.5t-24.5 154.5t-25 155t-21.5 133.5t-14.5 91.5h142l60 -448q9 -74 12 -118.5t5 -78.5q2 34 6.5 78.5t16.5 118.5l74 448h181
l72 -448q12 -74 16 -118.5t6 -78.5q1 34 4 78.5t13 118.5l58 448h139l-121 -759h-182zM479 824v118h98v-118h-98zM273 824v118h98v-118h-98z" />
    <glyph glyph-name="wdieresis" unicode="&#x1e85;" horiz-adv-x="725" 
d="M433 0l-43 230q-6 35 -10.5 61t-8 48t-6 41.5t-4.5 42.5q-2 -23 -4.5 -42.5t-5.5 -41.5t-8 -48t-12 -61l-45 -230h-166l-95 532h124l43 -299q4 -27 6 -46.5t3.5 -36.5t2.5 -33t2 -34q2 18 4 34t4.5 33t5.5 36.5t8 46.5l55 299h159l52 -302q4 -26 7.5 -45t6 -35.5t4 -32
t3.5 -34.5q0 19 1 34.5t2.5 32t4.5 35.5t7 45l46 302h121q-4 -22 -12 -64t-17.5 -94t-20 -108.5t-20 -108t-17.5 -93.5t-12 -64h-165zM416 597v118h98v-118h-98zM210 597v118h98v-118h-98z" />
    <glyph glyph-name="uni1EA0" unicode="&#x1ea0;" horiz-adv-x="583" 
d="M391 0l-28 169h-154l-29 -169h-150l153 759h214l148 -759h-154zM318 449q-6 35 -10.5 61.5t-7.5 49t-5.5 44.5t-5.5 48q-3 -26 -6 -48t-6.5 -44.5t-8 -49t-10.5 -61.5l-31 -166h119zM243 -226v118h94v-118h-94z" />
    <glyph glyph-name="uni1EA1" unicode="&#x1ea1;" horiz-adv-x="529" 
d="M329 0q-2 14 -3 29.5t-2 31.5q-20 -39 -54.5 -54.5t-76.5 -15.5q-44 0 -71 13t-41.5 36t-19.5 54.5t-5 68.5q0 44 8.5 76t28 52.5t50.5 30.5t77 10q30 0 53 -4.5t46 -12.5v54q0 17 -1.5 32.5t-7.5 27t-18.5 18.5t-33.5 7q-32 0 -46.5 -15.5t-14.5 -41.5q0 -10 1 -14h-124
q0 56 16.5 88t42.5 47.5t58 19.5t64 4q18 0 39 -1.5t42 -5.5t41 -11.5t36 -19.5q15 -12 22.5 -29t11.5 -35.5t4.5 -37t0.5 -33.5v-276q0 -23 3.5 -48t8.5 -45h-135zM319 234q-23 13 -52 13q-40 0 -57 -17t-17 -68q0 -41 13 -58.5t45 -17.5q24 0 42 10.5t26 32.5v105z
M216 -226v118h94v-118h-94z" />
    <glyph glyph-name="uni1EA2" unicode="&#x1ea2;" horiz-adv-x="583" 
d="M391 0l-28 169h-154l-29 -169h-150l153 759h214l148 -759h-154zM318 449q-6 35 -10.5 61.5t-7.5 49t-5.5 44.5t-5.5 48q-3 -26 -6 -48t-6.5 -44.5t-8 -49t-10.5 -61.5l-31 -166h119zM264 793v6q0 23 8.5 36t28.5 29q11 10 15 18t4 18q0 17 -6 27t-24 10q-22 0 -26 -12
t-4 -24v-9h-51v9q0 15 1.5 28.5t10 23t25.5 15.5t47 6t47 -5.5t25 -14.5t9.5 -19.5t1.5 -19.5q0 -28 -10 -44t-22.5 -27.5t-22.5 -22.5t-10 -28h-47z" />
    <glyph glyph-name="uni1EA3" unicode="&#x1ea3;" horiz-adv-x="529" 
d="M329 0q-2 14 -3 29.5t-2 31.5q-20 -39 -54.5 -54.5t-76.5 -15.5q-44 0 -71 13t-41.5 36t-19.5 54.5t-5 68.5q0 44 8.5 76t28 52.5t50.5 30.5t77 10q30 0 53 -4.5t46 -12.5v54q0 17 -1.5 32.5t-7.5 27t-18.5 18.5t-33.5 7q-32 0 -46.5 -15.5t-14.5 -41.5q0 -10 1 -14h-124
q0 56 16.5 88t42.5 47.5t58 19.5t64 4q18 0 39 -1.5t42 -5.5t41 -11.5t36 -19.5q15 -12 22.5 -29t11.5 -35.5t4.5 -37t0.5 -33.5v-276q0 -23 3.5 -48t8.5 -45h-135zM319 234q-23 13 -52 13q-40 0 -57 -17t-17 -68q0 -41 13 -58.5t45 -17.5q24 0 42 10.5t26 32.5v105z
M236 566v6q0 23 8.5 36t28.5 29q11 10 15 18t4 18q0 17 -6 27t-24 10q-22 0 -26 -12t-4 -24v-9h-51v9q0 15 1.5 28.5t10 23t25.5 15.5t47 6t47 -5.5t25 -14.5t9.5 -19.5t1.5 -19.5q0 -28 -10 -44t-22.5 -27.5t-22.5 -22.5t-10 -28h-47z" />
    <glyph glyph-name="uni1EA4" unicode="&#x1ea4;" horiz-adv-x="583" 
d="M391 0l-28 169h-154l-29 -169h-150l153 759h214l148 -759h-154zM318 449q-6 35 -10.5 61.5t-7.5 49t-5.5 44.5t-5.5 48q-3 -26 -6 -48t-6.5 -44.5t-8 -49t-10.5 -61.5l-31 -166h119zM365 869v31l171 64v-61zM292 841l-120 -49v29l120 72l121 -72v-29z" />
    <glyph glyph-name="uni1EA5" unicode="&#x1ea5;" horiz-adv-x="529" 
d="M329 0q-2 14 -3 29.5t-2 31.5q-20 -39 -54.5 -54.5t-76.5 -15.5q-44 0 -71 13t-41.5 36t-19.5 54.5t-5 68.5q0 44 8.5 76t28 52.5t50.5 30.5t77 10q30 0 53 -4.5t46 -12.5v54q0 17 -1.5 32.5t-7.5 27t-18.5 18.5t-33.5 7q-32 0 -46.5 -15.5t-14.5 -41.5q0 -10 1 -14h-124
q0 56 16.5 88t42.5 47.5t58 19.5t64 4q18 0 39 -1.5t42 -5.5t41 -11.5t36 -19.5q15 -12 22.5 -29t11.5 -35.5t4.5 -37t0.5 -33.5v-276q0 -23 3.5 -48t8.5 -45h-135zM319 234q-23 13 -52 13q-40 0 -57 -17t-17 -68q0 -41 13 -58.5t45 -17.5q24 0 42 10.5t26 32.5v105z
M341 642v31l171 64v-61zM268 614l-120 -49v29l120 72l121 -72v-29z" />
    <glyph glyph-name="uni1EA6" unicode="&#x1ea6;" horiz-adv-x="583" 
d="M391 0l-28 169h-154l-29 -169h-150l153 759h214l148 -759h-154zM318 449q-6 35 -10.5 61.5t-7.5 49t-5.5 44.5t-5.5 48q-3 -26 -6 -48t-6.5 -44.5t-8 -49t-10.5 -61.5l-31 -166h119zM54 904v60l171 -64v-31zM298 841l-121 -49v29l121 73l119 -73v-29z" />
    <glyph glyph-name="uni1EA7" unicode="&#x1ea7;" horiz-adv-x="529" 
d="M329 0q-2 14 -3 29.5t-2 31.5q-20 -39 -54.5 -54.5t-76.5 -15.5q-44 0 -71 13t-41.5 36t-19.5 54.5t-5 68.5q0 44 8.5 76t28 52.5t50.5 30.5t77 10q30 0 53 -4.5t46 -12.5v54q0 17 -1.5 32.5t-7.5 27t-18.5 18.5t-33.5 7q-32 0 -46.5 -15.5t-14.5 -41.5q0 -10 1 -14h-124
q0 56 16.5 88t42.5 47.5t58 19.5t64 4q18 0 39 -1.5t42 -5.5t41 -11.5t36 -19.5q15 -12 22.5 -29t11.5 -35.5t4.5 -37t0.5 -33.5v-276q0 -23 3.5 -48t8.5 -45h-135zM319 234q-23 13 -52 13q-40 0 -57 -17t-17 -68q0 -41 13 -58.5t45 -17.5q24 0 42 10.5t26 32.5v105zM31 677
v60l171 -64v-31zM275 614l-121 -49v29l121 73l119 -73v-29z" />
    <glyph glyph-name="uni1EA8" unicode="&#x1ea8;" horiz-adv-x="583" 
d="M391 0l-28 169h-154l-29 -169h-150l153 759h214l148 -759h-154zM318 449q-6 35 -10.5 61.5t-7.5 49t-5.5 44.5t-5.5 48q-3 -26 -6 -48t-6.5 -44.5t-8 -49t-10.5 -61.5l-31 -166h119zM438 793v9q1 22 10.5 34t19.5 20.5t18.5 17.5t8.5 26q0 20 -6.5 28.5t-24.5 8.5
q-22 0 -25.5 -12t-3.5 -24v-9h-52v9q0 15 1.5 28.5t10 23t25.5 15.5t47 6t47 -5.5t25 -14.5t9.5 -19.5t1.5 -19.5q0 -28 -10 -44t-22.5 -27.5t-22.5 -22.5t-10 -28h-47zM293 841l-120 -49v29l120 72l121 -72v-29z" />
    <glyph glyph-name="uni1EA9" unicode="&#x1ea9;" horiz-adv-x="529" 
d="M329 0q-2 14 -3 29.5t-2 31.5q-20 -39 -54.5 -54.5t-76.5 -15.5q-44 0 -71 13t-41.5 36t-19.5 54.5t-5 68.5q0 44 8.5 76t28 52.5t50.5 30.5t77 10q30 0 53 -4.5t46 -12.5v54q0 17 -1.5 32.5t-7.5 27t-18.5 18.5t-33.5 7q-32 0 -46.5 -15.5t-14.5 -41.5q0 -10 1 -14h-124
q0 56 16.5 88t42.5 47.5t58 19.5t64 4q18 0 39 -1.5t42 -5.5t41 -11.5t36 -19.5q15 -12 22.5 -29t11.5 -35.5t4.5 -37t0.5 -33.5v-276q0 -23 3.5 -48t8.5 -45h-135zM319 234q-23 13 -52 13q-40 0 -57 -17t-17 -68q0 -41 13 -58.5t45 -17.5q24 0 42 10.5t26 32.5v105z
M417 566v9q1 22 10.5 34t19.5 20.5t18.5 17.5t8.5 26q0 20 -6.5 28.5t-24.5 8.5q-22 0 -25.5 -12t-3.5 -24v-9h-52v9q0 15 1.5 28.5t10 23t25.5 15.5t47 6t47 -5.5t25 -14.5t9.5 -19.5t1.5 -19.5q0 -28 -10 -44t-22.5 -27.5t-22.5 -22.5t-10 -28h-47zM272 614l-120 -49v29
l120 72l121 -72v-29z" />
    <glyph glyph-name="uni1EAA" unicode="&#x1eaa;" horiz-adv-x="583" 
d="M391 0l-28 169h-154l-29 -169h-150l153 759h214l148 -759h-154zM318 449q-6 35 -10.5 61.5t-7.5 49t-5.5 44.5t-5.5 48q-3 -26 -6 -48t-6.5 -44.5t-8 -49t-10.5 -61.5l-31 -166h119zM411 923q-26 -26 -63 -26q-16 0 -30 5t-28 10.5t-28.5 10.5t-30.5 5q-23 0 -35.5 -7.5
t-25.5 -22.5v49q25 24 63 24q16 0 30 -4.5t28 -10.5t28 -10.5t31 -4.5q23 0 36 7.5t25 22.5v-48zM171 792v29l119 72l121 -72v-29l-121 49z" />
    <glyph glyph-name="uni1EAB" unicode="&#x1eab;" horiz-adv-x="529" 
d="M329 0q-2 14 -3 29.5t-2 31.5q-20 -39 -54.5 -54.5t-76.5 -15.5q-44 0 -71 13t-41.5 36t-19.5 54.5t-5 68.5q0 44 8.5 76t28 52.5t50.5 30.5t77 10q30 0 53 -4.5t46 -12.5v54q0 17 -1.5 32.5t-7.5 27t-18.5 18.5t-33.5 7q-32 0 -46.5 -15.5t-14.5 -41.5q0 -10 1 -14h-124
q0 56 16.5 88t42.5 47.5t58 19.5t64 4q18 0 39 -1.5t42 -5.5t41 -11.5t36 -19.5q15 -12 22.5 -29t11.5 -35.5t4.5 -37t0.5 -33.5v-276q0 -23 3.5 -48t8.5 -45h-135zM319 234q-23 13 -52 13q-40 0 -57 -17t-17 -68q0 -41 13 -58.5t45 -17.5q24 0 42 10.5t26 32.5v105z
M384 696q-26 -26 -63 -26q-16 0 -30 5t-28 10.5t-28.5 10.5t-30.5 5q-23 0 -35.5 -7.5t-25.5 -22.5v49q25 24 63 24q16 0 30 -4.5t28 -10.5t28 -10.5t31 -4.5q23 0 36 7.5t25 22.5v-48zM144 565v29l119 72l121 -72v-29l-121 49z" />
    <glyph glyph-name="uni1EAC" unicode="&#x1eac;" horiz-adv-x="583" 
d="M391 0l-28 169h-154l-29 -169h-150l153 759h214l148 -759h-154zM318 449q-6 35 -10.5 61.5t-7.5 49t-5.5 44.5t-5.5 48q-3 -26 -6 -48t-6.5 -44.5t-8 -49t-10.5 -61.5l-31 -166h119zM288 888l-144 -73v47l144 112l143 -112v-47zM244 -226v118h94v-118h-94z" />
    <glyph glyph-name="uni1EAD" unicode="&#x1ead;" horiz-adv-x="529" 
d="M329 0q-2 14 -3 29.5t-2 31.5q-20 -39 -54.5 -54.5t-76.5 -15.5q-44 0 -71 13t-41.5 36t-19.5 54.5t-5 68.5q0 44 8.5 76t28 52.5t50.5 30.5t77 10q30 0 53 -4.5t46 -12.5v54q0 17 -1.5 32.5t-7.5 27t-18.5 18.5t-33.5 7q-32 0 -46.5 -15.5t-14.5 -41.5q0 -10 1 -14h-124
q0 56 16.5 88t42.5 47.5t58 19.5t64 4q18 0 39 -1.5t42 -5.5t41 -11.5t36 -19.5q15 -12 22.5 -29t11.5 -35.5t4.5 -37t0.5 -33.5v-276q0 -23 3.5 -48t8.5 -45h-135zM319 234q-23 13 -52 13q-40 0 -57 -17t-17 -68q0 -41 13 -58.5t45 -17.5q24 0 42 10.5t26 32.5v105z
M269 661l-144 -73v47l144 112l143 -112v-47zM216 -226v118h94v-118h-94z" />
    <glyph glyph-name="uni1EAE" unicode="&#x1eae;" horiz-adv-x="583" 
d="M391 0l-28 169h-154l-29 -169h-150l153 759h214l148 -759h-154zM318 449q-6 35 -10.5 61.5t-7.5 49t-5.5 44.5t-5.5 48q-3 -26 -6 -48t-6.5 -44.5t-8 -49t-10.5 -61.5l-31 -166h119zM422 899q-5 -50 -38.5 -78t-92.5 -28q-57 0 -90 28t-40 78h45q13 -63 85 -63
q35 0 57.5 15.5t28.5 47.5h45zM245 892v26l175 56v-49z" />
    <glyph glyph-name="uni1EAF" unicode="&#x1eaf;" horiz-adv-x="529" 
d="M329 0q-2 14 -3 29.5t-2 31.5q-20 -39 -54.5 -54.5t-76.5 -15.5q-44 0 -71 13t-41.5 36t-19.5 54.5t-5 68.5q0 44 8.5 76t28 52.5t50.5 30.5t77 10q30 0 53 -4.5t46 -12.5v54q0 17 -1.5 32.5t-7.5 27t-18.5 18.5t-33.5 7q-32 0 -46.5 -15.5t-14.5 -41.5q0 -10 1 -14h-124
q0 56 16.5 88t42.5 47.5t58 19.5t64 4q18 0 39 -1.5t42 -5.5t41 -11.5t36 -19.5q15 -12 22.5 -29t11.5 -35.5t4.5 -37t0.5 -33.5v-276q0 -23 3.5 -48t8.5 -45h-135zM319 234q-23 13 -52 13q-40 0 -57 -17t-17 -68q0 -41 13 -58.5t45 -17.5q24 0 42 10.5t26 32.5v105z
M394 672q-5 -50 -38.5 -78t-92.5 -28q-57 0 -90 28t-40 78h45q13 -63 85 -63q35 0 57.5 15.5t28.5 47.5h45zM217 665v26l175 56v-49z" />
    <glyph glyph-name="uni1EB0" unicode="&#x1eb0;" horiz-adv-x="583" 
d="M391 0l-28 169h-154l-29 -169h-150l153 759h214l148 -759h-154zM318 449q-6 35 -10.5 61.5t-7.5 49t-5.5 44.5t-5.5 48q-3 -26 -6 -48t-6.5 -44.5t-8 -49t-10.5 -61.5l-31 -166h119zM207 899q5 -32 27.5 -47.5t57.5 -15.5q72 0 85 63h45q-6 -50 -39.5 -78t-90.5 -28
q-59 0 -92 28t-38 78h45zM163 925v49l175 -56v-26z" />
    <glyph glyph-name="uni1EB1" unicode="&#x1eb1;" horiz-adv-x="529" 
d="M329 0q-2 14 -3 29.5t-2 31.5q-20 -39 -54.5 -54.5t-76.5 -15.5q-44 0 -71 13t-41.5 36t-19.5 54.5t-5 68.5q0 44 8.5 76t28 52.5t50.5 30.5t77 10q30 0 53 -4.5t46 -12.5v54q0 17 -1.5 32.5t-7.5 27t-18.5 18.5t-33.5 7q-32 0 -46.5 -15.5t-14.5 -41.5q0 -10 1 -14h-124
q0 56 16.5 88t42.5 47.5t58 19.5t64 4q18 0 39 -1.5t42 -5.5t41 -11.5t36 -19.5q15 -12 22.5 -29t11.5 -35.5t4.5 -37t0.5 -33.5v-276q0 -23 3.5 -48t8.5 -45h-135zM319 234q-23 13 -52 13q-40 0 -57 -17t-17 -68q0 -41 13 -58.5t45 -17.5q24 0 42 10.5t26 32.5v105z
M179 672q5 -32 27.5 -47.5t57.5 -15.5q72 0 85 63h45q-6 -50 -39.5 -78t-90.5 -28q-59 0 -92 28t-38 78h45zM135 698v49l175 -56v-26z" />
    <glyph glyph-name="uni1EB2" unicode="&#x1eb2;" horiz-adv-x="583" 
d="M391 0l-28 169h-154l-29 -169h-150l153 759h214l148 -759h-154zM318 449q-6 35 -10.5 61.5t-7.5 49t-5.5 44.5t-5.5 48q-3 -26 -6 -48t-6.5 -44.5t-8 -49t-10.5 -61.5l-31 -166h119zM268 852q0 18 6.5 27t14.5 15.5t14.5 12.5t6.5 17q0 6 -2.5 15.5t-18.5 9.5
q-17 0 -20 -8t-3 -16v-6h-37v8q0 10 1.5 18.5t7.5 15t18.5 10t33.5 3.5q22 0 34 -4t18 -10t7 -13t1 -13q0 -19 -7 -29t-16 -17.5t-16 -15t-7 -20.5h-36zM208 899q5 -32 27.5 -47.5t57.5 -15.5q72 0 85 63h45q-6 -50 -39.5 -78t-90.5 -28q-59 0 -92 28t-38 78h45z" />
    <glyph glyph-name="uni1EB3" unicode="&#x1eb3;" horiz-adv-x="529" 
d="M329 0q-2 14 -3 29.5t-2 31.5q-20 -39 -54.5 -54.5t-76.5 -15.5q-44 0 -71 13t-41.5 36t-19.5 54.5t-5 68.5q0 44 8.5 76t28 52.5t50.5 30.5t77 10q30 0 53 -4.5t46 -12.5v54q0 17 -1.5 32.5t-7.5 27t-18.5 18.5t-33.5 7q-32 0 -46.5 -15.5t-14.5 -41.5q0 -10 1 -14h-124
q0 56 16.5 88t42.5 47.5t58 19.5t64 4q18 0 39 -1.5t42 -5.5t41 -11.5t36 -19.5q15 -12 22.5 -29t11.5 -35.5t4.5 -37t0.5 -33.5v-276q0 -23 3.5 -48t8.5 -45h-135zM319 234q-23 13 -52 13q-40 0 -57 -17t-17 -68q0 -41 13 -58.5t45 -17.5q24 0 42 10.5t26 32.5v105z
M240 625q0 18 6.5 27t14.5 15.5t14.5 12.5t6.5 17q0 6 -2.5 15.5t-18.5 9.5q-17 0 -20 -8t-3 -16v-6h-37v8q0 10 1.5 18.5t7.5 15t18.5 10t33.5 3.5q22 0 34 -4t18 -10t7 -13t1 -13q0 -19 -7 -29t-16 -17.5t-16 -15t-7 -20.5h-36zM180 672q5 -32 27.5 -47.5t57.5 -15.5
q72 0 85 63h45q-6 -50 -39.5 -78t-90.5 -28q-59 0 -92 28t-38 78h45z" />
    <glyph glyph-name="uni1EB4" unicode="&#x1eb4;" horiz-adv-x="583" 
d="M391 0l-28 169h-154l-29 -169h-150l153 759h214l148 -759h-154zM318 449q-6 35 -10.5 61.5t-7.5 49t-5.5 44.5t-5.5 48q-3 -26 -6 -48t-6.5 -44.5t-8 -49t-10.5 -61.5l-31 -166h119zM208 899q5 -32 27.5 -47.5t57.5 -15.5q72 0 85 63h45q-6 -50 -39.5 -78t-90.5 -28
q-59 0 -92 28t-38 78h45zM415 922q-14 -14 -30 -19t-33 -5q-16 0 -30 4.5t-28 10.5t-28.5 10.5t-30.5 4.5q-23 0 -35.5 -6t-25.5 -21v49q14 13 29.5 17t33.5 4q16 0 30 -4.5t28 -10t28 -10t31 -4.5q23 0 36 6t25 21v-47z" />
    <glyph glyph-name="uni1EB5" unicode="&#x1eb5;" horiz-adv-x="529" 
d="M329 0q-2 14 -3 29.5t-2 31.5q-20 -39 -54.5 -54.5t-76.5 -15.5q-44 0 -71 13t-41.5 36t-19.5 54.5t-5 68.5q0 44 8.5 76t28 52.5t50.5 30.5t77 10q30 0 53 -4.5t46 -12.5v54q0 17 -1.5 32.5t-7.5 27t-18.5 18.5t-33.5 7q-32 0 -46.5 -15.5t-14.5 -41.5q0 -10 1 -14h-124
q0 56 16.5 88t42.5 47.5t58 19.5t64 4q18 0 39 -1.5t42 -5.5t41 -11.5t36 -19.5q15 -12 22.5 -29t11.5 -35.5t4.5 -37t0.5 -33.5v-276q0 -23 3.5 -48t8.5 -45h-135zM319 234q-23 13 -52 13q-40 0 -57 -17t-17 -68q0 -41 13 -58.5t45 -17.5q24 0 42 10.5t26 32.5v105z
M180 672q5 -32 27.5 -47.5t57.5 -15.5q72 0 85 63h45q-6 -50 -39.5 -78t-90.5 -28q-59 0 -92 28t-38 78h45zM387 695q-14 -14 -30 -19t-33 -5q-16 0 -30 4.5t-28 10.5t-28.5 10.5t-30.5 4.5q-23 0 -35.5 -6t-25.5 -21v49q14 13 29.5 17t33.5 4q16 0 30 -4.5t28 -10t28 -10
t31 -4.5q23 0 36 6t25 21v-47z" />
    <glyph glyph-name="uni1EB6" unicode="&#x1eb6;" horiz-adv-x="583" 
d="M391 0l-28 169h-154l-29 -169h-150l153 759h214l148 -759h-154zM318 449q-6 35 -10.5 61.5t-7.5 49t-5.5 44.5t-5.5 48q-3 -26 -6 -48t-6.5 -44.5t-8 -49t-10.5 -61.5l-31 -166h119zM448 974q-6 -75 -48 -117t-113 -42t-112.5 42t-49.5 117h61q15 -90 101 -90
q87 0 102 90h59zM244 -226v118h94v-118h-94z" />
    <glyph glyph-name="uni1EB7" unicode="&#x1eb7;" horiz-adv-x="529" 
d="M329 0q-2 14 -3 29.5t-2 31.5q-20 -39 -54.5 -54.5t-76.5 -15.5q-44 0 -71 13t-41.5 36t-19.5 54.5t-5 68.5q0 44 8.5 76t28 52.5t50.5 30.5t77 10q30 0 53 -4.5t46 -12.5v54q0 17 -1.5 32.5t-7.5 27t-18.5 18.5t-33.5 7q-32 0 -46.5 -15.5t-14.5 -41.5q0 -10 1 -14h-124
q0 56 16.5 88t42.5 47.5t58 19.5t64 4q18 0 39 -1.5t42 -5.5t41 -11.5t36 -19.5q15 -12 22.5 -29t11.5 -35.5t4.5 -37t0.5 -33.5v-276q0 -23 3.5 -48t8.5 -45h-135zM319 234q-23 13 -52 13q-40 0 -57 -17t-17 -68q0 -41 13 -58.5t45 -17.5q24 0 42 10.5t26 32.5v105z
M428 747q-6 -75 -48 -117t-113 -42t-112.5 42t-49.5 117h61q15 -90 101 -90q87 0 102 90h59zM216 -226v118h94v-118h-94z" />
    <glyph glyph-name="uni1EB8" unicode="&#x1eb8;" horiz-adv-x="513" 
d="M67 0v759h378v-126h-240v-170h230v-127h-230v-212h244v-124h-382zM222 -226v118h94v-118h-94z" />
    <glyph glyph-name="uni1EB9" unicode="&#x1eb9;" horiz-adv-x="533" 
d="M193 240q0 -38 2 -66.5t9 -47.5t20 -28t36 -9q21 0 34.5 4t21 13.5t10.5 25.5t3 40h133q-1 -42 -8 -75.5t-28 -57t-60 -36t-104 -12.5q-76 0 -117 21t-60 58.5t-22 89t-3 113.5q0 58 3 107.5t22 85.5t60 56t117 20t117 -17t60 -49.5t22.5 -80.5t3.5 -110v-45h-272z
M327 315q0 33 -1.5 57t-8.5 39.5t-20 23.5t-37 8q-22 0 -35.5 -8.5t-20.5 -25t-9 -40t-2 -54.5h134zM218 -226v118h94v-118h-94z" />
    <glyph glyph-name="uni1EBA" unicode="&#x1eba;" horiz-adv-x="513" 
d="M67 0v759h378v-126h-240v-170h230v-127h-230v-212h244v-124h-382zM242 793v6q0 23 8.5 36t28.5 29q11 10 15 18t4 18q0 17 -6 27t-24 10q-22 0 -26 -12t-4 -24v-9h-51v9q0 15 1.5 28.5t10 23t25.5 15.5t47 6t47 -5.5t25 -14.5t9.5 -19.5t1.5 -19.5q0 -28 -10 -44
t-22.5 -27.5t-22.5 -22.5t-10 -28h-47z" />
    <glyph glyph-name="uni1EBB" unicode="&#x1ebb;" horiz-adv-x="533" 
d="M193 240q0 -38 2 -66.5t9 -47.5t20 -28t36 -9q21 0 34.5 4t21 13.5t10.5 25.5t3 40h133q-1 -42 -8 -75.5t-28 -57t-60 -36t-104 -12.5q-76 0 -117 21t-60 58.5t-22 89t-3 113.5q0 58 3 107.5t22 85.5t60 56t117 20t117 -17t60 -49.5t22.5 -80.5t3.5 -110v-45h-272z
M327 315q0 33 -1.5 57t-8.5 39.5t-20 23.5t-37 8q-22 0 -35.5 -8.5t-20.5 -25t-9 -40t-2 -54.5h134zM244 566v6q0 23 8.5 36t28.5 29q11 10 15 18t4 18q0 17 -6 27t-24 10q-22 0 -26 -12t-4 -24v-9h-51v9q0 15 1.5 28.5t10 23t25.5 15.5t47 6t47 -5.5t25 -14.5t9.5 -19.5
t1.5 -19.5q0 -28 -10 -44t-22.5 -27.5t-22.5 -22.5t-10 -28h-47z" />
    <glyph glyph-name="uni1EBC" unicode="&#x1ebc;" horiz-adv-x="513" 
d="M67 0v759h378v-126h-240v-170h230v-127h-230v-212h244v-124h-382zM396 872q-31 -32 -72 -32q-17 0 -33 6t-32.5 12.5t-33 12.5t-35.5 6q-25 0 -39 -9.5t-30 -29.5v73q17 17 34.5 24t36.5 7q18 0 34.5 -6t32.5 -12.5t33 -12.5t35 -6q25 0 39.5 10t29.5 30v-73z" />
    <glyph glyph-name="uni1EBD" unicode="&#x1ebd;" horiz-adv-x="533" 
d="M193 240q0 -38 2 -66.5t9 -47.5t20 -28t36 -9q21 0 34.5 4t21 13.5t10.5 25.5t3 40h133q-1 -42 -8 -75.5t-28 -57t-60 -36t-104 -12.5q-76 0 -117 21t-60 58.5t-22 89t-3 113.5q0 58 3 107.5t22 85.5t60 56t117 20t117 -17t60 -49.5t22.5 -80.5t3.5 -110v-45h-272z
M327 315q0 33 -1.5 57t-8.5 39.5t-20 23.5t-37 8q-22 0 -35.5 -8.5t-20.5 -25t-9 -40t-2 -54.5h134zM399 645q-31 -32 -72 -32q-17 0 -33 6t-32.5 12.5t-33 12.5t-35.5 6q-25 0 -39 -9.5t-30 -29.5v73q17 17 34.5 24t36.5 7q18 0 34.5 -6t32.5 -12.5t33 -12.5t35 -6
q25 0 39.5 10t29.5 30v-73z" />
    <glyph glyph-name="uni1EBE" unicode="&#x1ebe;" horiz-adv-x="513" 
d="M67 0v759h378v-126h-240v-170h230v-127h-230v-212h244v-124h-382zM341 869v31l171 64v-61zM268 841l-120 -49v29l120 72l121 -72v-29z" />
    <glyph glyph-name="uni1EBF" unicode="&#x1ebf;" horiz-adv-x="533" 
d="M193 240q0 -38 2 -66.5t9 -47.5t20 -28t36 -9q21 0 34.5 4t21 13.5t10.5 25.5t3 40h133q-1 -42 -8 -75.5t-28 -57t-60 -36t-104 -12.5q-76 0 -117 21t-60 58.5t-22 89t-3 113.5q0 58 3 107.5t22 85.5t60 56t117 20t117 -17t60 -49.5t22.5 -80.5t3.5 -110v-45h-272z
M327 315q0 33 -1.5 57t-8.5 39.5t-20 23.5t-37 8q-22 0 -35.5 -8.5t-20.5 -25t-9 -40t-2 -54.5h134zM343 642v31l171 64v-61zM270 614l-120 -49v29l120 72l121 -72v-29z" />
    <glyph glyph-name="uni1EC0" unicode="&#x1ec0;" horiz-adv-x="513" 
d="M67 0v759h378v-126h-240v-170h230v-127h-230v-212h244v-124h-382zM20 904v60l171 -64v-31zM264 841l-121 -49v29l121 73l119 -73v-29z" />
    <glyph glyph-name="uni1EC1" unicode="&#x1ec1;" horiz-adv-x="533" 
d="M193 240q0 -38 2 -66.5t9 -47.5t20 -28t36 -9q21 0 34.5 4t21 13.5t10.5 25.5t3 40h133q-1 -42 -8 -75.5t-28 -57t-60 -36t-104 -12.5q-76 0 -117 21t-60 58.5t-22 89t-3 113.5q0 58 3 107.5t22 85.5t60 56t117 20t117 -17t60 -49.5t22.5 -80.5t3.5 -110v-45h-272z
M327 315q0 33 -1.5 57t-8.5 39.5t-20 23.5t-37 8q-22 0 -35.5 -8.5t-20.5 -25t-9 -40t-2 -54.5h134zM31 677v60l171 -64v-31zM275 614l-121 -49v29l121 73l119 -73v-29z" />
    <glyph glyph-name="uni1EC2" unicode="&#x1ec2;" horiz-adv-x="513" 
d="M67 0v759h378v-126h-240v-170h230v-127h-230v-212h244v-124h-382zM422 793v9q1 22 10.5 34t19.5 20.5t18.5 17.5t8.5 26q0 20 -6.5 28.5t-24.5 8.5q-22 0 -25.5 -12t-3.5 -24v-9h-52v9q0 15 1.5 28.5t10 23t25.5 15.5t47 6t47 -5.5t25 -14.5t9.5 -19.5t1.5 -19.5
q0 -28 -10 -44t-22.5 -27.5t-22.5 -22.5t-10 -28h-47zM277 841l-120 -49v29l120 72l121 -72v-29z" />
    <glyph glyph-name="uni1EC3" unicode="&#x1ec3;" horiz-adv-x="533" 
d="M193 240q0 -38 2 -66.5t9 -47.5t20 -28t36 -9q21 0 34.5 4t21 13.5t10.5 25.5t3 40h133q-1 -42 -8 -75.5t-28 -57t-60 -36t-104 -12.5q-76 0 -117 21t-60 58.5t-22 89t-3 113.5q0 58 3 107.5t22 85.5t60 56t117 20t117 -17t60 -49.5t22.5 -80.5t3.5 -110v-45h-272z
M327 315q0 33 -1.5 57t-8.5 39.5t-20 23.5t-37 8q-22 0 -35.5 -8.5t-20.5 -25t-9 -40t-2 -54.5h134zM416 566v9q1 22 10.5 34t19.5 20.5t18.5 17.5t8.5 26q0 20 -6.5 28.5t-24.5 8.5q-22 0 -25.5 -12t-3.5 -24v-9h-52v9q0 15 1.5 28.5t10 23t25.5 15.5t47 6t47 -5.5
t25 -14.5t9.5 -19.5t1.5 -19.5q0 -28 -10 -44t-22.5 -27.5t-22.5 -22.5t-10 -28h-47zM271 614l-120 -49v29l120 72l121 -72v-29z" />
    <glyph glyph-name="uni1EC4" unicode="&#x1ec4;" horiz-adv-x="513" 
d="M67 0v759h378v-126h-240v-170h230v-127h-230v-212h244v-124h-382zM392 923q-26 -26 -63 -26q-16 0 -30 5t-28 10.5t-28.5 10.5t-30.5 5q-23 0 -35.5 -7.5t-25.5 -22.5v49q25 24 63 24q16 0 30 -4.5t28 -10.5t28 -10.5t31 -4.5q23 0 36 7.5t25 22.5v-48zM152 792v29
l119 72l121 -72v-29l-121 49z" />
    <glyph glyph-name="uni1EC5" unicode="&#x1ec5;" horiz-adv-x="533" 
d="M193 240q0 -38 2 -66.5t9 -47.5t20 -28t36 -9q21 0 34.5 4t21 13.5t10.5 25.5t3 40h133q-1 -42 -8 -75.5t-28 -57t-60 -36t-104 -12.5q-76 0 -117 21t-60 58.5t-22 89t-3 113.5q0 58 3 107.5t22 85.5t60 56t117 20t117 -17t60 -49.5t22.5 -80.5t3.5 -110v-45h-272z
M327 315q0 33 -1.5 57t-8.5 39.5t-20 23.5t-37 8q-22 0 -35.5 -8.5t-20.5 -25t-9 -40t-2 -54.5h134zM385 696q-26 -26 -63 -26q-16 0 -30 5t-28 10.5t-28.5 10.5t-30.5 5q-23 0 -35.5 -7.5t-25.5 -22.5v49q25 24 63 24q16 0 30 -4.5t28 -10.5t28 -10.5t31 -4.5q23 0 36 7.5
t25 22.5v-48zM145 565v29l119 72l121 -72v-29l-121 49z" />
    <glyph glyph-name="uni1EC6" unicode="&#x1ec6;" horiz-adv-x="513" 
d="M67 0v759h378v-126h-240v-170h230v-127h-230v-212h244v-124h-382zM260 888l-144 -73v47l144 112l143 -112v-47zM222 -226v118h94v-118h-94z" />
    <glyph glyph-name="uni1EC7" unicode="&#x1ec7;" horiz-adv-x="533" 
d="M193 240q0 -38 2 -66.5t9 -47.5t20 -28t36 -9q21 0 34.5 4t21 13.5t10.5 25.5t3 40h133q-1 -42 -8 -75.5t-28 -57t-60 -36t-104 -12.5q-76 0 -117 21t-60 58.5t-22 89t-3 113.5q0 58 3 107.5t22 85.5t60 56t117 20t117 -17t60 -49.5t22.5 -80.5t3.5 -110v-45h-272z
M327 315q0 33 -1.5 57t-8.5 39.5t-20 23.5t-37 8q-22 0 -35.5 -8.5t-20.5 -25t-9 -40t-2 -54.5h134zM262 661l-144 -73v47l144 112l143 -112v-47zM218 -226v118h94v-118h-94z" />
    <glyph glyph-name="uni1EC8" unicode="&#x1ec8;" horiz-adv-x="292" 
d="M74 0v759h149v-759h-149zM119 793v6q0 23 8.5 36t28.5 29q11 10 15 18t4 18q0 17 -6 27t-24 10q-22 0 -26 -12t-4 -24v-9h-51v9q0 15 1.5 28.5t10 23t25.5 15.5t47 6t47 -5.5t25 -14.5t9.5 -19.5t1.5 -19.5q0 -28 -10 -44t-22.5 -27.5t-22.5 -22.5t-10 -28h-47z" />
    <glyph glyph-name="uni1EC9" unicode="&#x1ec9;" horiz-adv-x="282" 
d="M74 0v532h137v-532h-137zM115 566v6q0 23 8.5 36t28.5 29q11 10 15 18t4 18q0 17 -6 27t-24 10q-22 0 -26 -12t-4 -24v-9h-51v9q0 15 1.5 28.5t10 23t25.5 15.5t47 6t47 -5.5t25 -14.5t9.5 -19.5t1.5 -19.5q0 -28 -10 -44t-22.5 -27.5t-22.5 -22.5t-10 -28h-47z" />
    <glyph glyph-name="uni1ECA" unicode="&#x1eca;" horiz-adv-x="292" 
d="M74 0v759h149v-759h-149zM98 -226v118h94v-118h-94z" />
    <glyph glyph-name="uni1ECB" unicode="&#x1ecb;" horiz-adv-x="282" 
d="M74 0v532h137v-532h-137zM74 638v121h137v-121h-137zM93 -226v118h94v-118h-94z" />
    <glyph glyph-name="uni1ECC" unicode="&#x1ecc;" horiz-adv-x="594" 
d="M292 -9q-87 0 -134.5 24.5t-69 73t-25.5 121t-4 169.5t3.5 170t25.5 122t69.5 74t134.5 25q88 0 135.5 -25t69.5 -74t25.5 -122t3.5 -170t-4 -169.5t-26 -121t-69.5 -73t-134.5 -24.5zM374 419q0 72 -1.5 118t-9.5 73t-24.5 37t-46.5 10q-29 0 -45.5 -10t-24.5 -37
t-9.5 -73t-1.5 -118v-66q0 -74 1.5 -122.5t9.5 -77t24.5 -40t45.5 -11.5q30 0 46.5 11.5t24.5 40t9.5 77t1.5 122.5v66zM249 -226v118h94v-118h-94z" />
    <glyph glyph-name="uni1ECD" unicode="&#x1ecd;" horiz-adv-x="539" 
d="M264 -9q-76 0 -117 21t-60.5 58.5t-23 89t-3.5 113.5q0 58 3.5 107.5t23 85.5t60.5 56t117 20t117.5 -20t61 -56t23 -85.5t3.5 -107.5q0 -62 -3.5 -113.5t-23 -89t-61 -58.5t-117.5 -21zM330 284q0 47 -2 77.5t-9 48.5t-20 25.5t-35 7.5t-35 -7.5t-20 -25.5t-9 -48.5
t-2 -77.5v-23q0 -52 2 -85t9 -52.5t20 -27t35 -7.5t35 7.5t20 27t9 52.5t2 85v23zM221 -226v118h94v-118h-94z" />
    <glyph glyph-name="uni1ECE" unicode="&#x1ece;" horiz-adv-x="594" 
d="M292 -9q-87 0 -134.5 24.5t-69 73t-25.5 121t-4 169.5t3.5 170t25.5 122t69.5 74t134.5 25q88 0 135.5 -25t69.5 -74t25.5 -122t3.5 -170t-4 -169.5t-26 -121t-69.5 -73t-134.5 -24.5zM374 419q0 72 -1.5 118t-9.5 73t-24.5 37t-46.5 10q-29 0 -45.5 -10t-24.5 -37
t-9.5 -73t-1.5 -118v-66q0 -74 1.5 -122.5t9.5 -77t24.5 -40t45.5 -11.5q30 0 46.5 11.5t24.5 40t9.5 77t1.5 122.5v66zM277 793v6q0 23 8.5 36t28.5 29q11 10 15 18t4 18q0 17 -6 27t-24 10q-22 0 -26 -12t-4 -24v-9h-51v9q0 15 1.5 28.5t10 23t25.5 15.5t47 6t47 -5.5
t25 -14.5t9.5 -19.5t1.5 -19.5q0 -28 -10 -44t-22.5 -27.5t-22.5 -22.5t-10 -28h-47z" />
    <glyph glyph-name="uni1ECF" unicode="&#x1ecf;" horiz-adv-x="539" 
d="M264 -9q-76 0 -117 21t-60.5 58.5t-23 89t-3.5 113.5q0 58 3.5 107.5t23 85.5t60.5 56t117 20t117.5 -20t61 -56t23 -85.5t3.5 -107.5q0 -62 -3.5 -113.5t-23 -89t-61 -58.5t-117.5 -21zM330 284q0 47 -2 77.5t-9 48.5t-20 25.5t-35 7.5t-35 -7.5t-20 -25.5t-9 -48.5
t-2 -77.5v-23q0 -52 2 -85t9 -52.5t20 -27t35 -7.5t35 7.5t20 27t9 52.5t2 85v23zM248 566v6q0 23 8.5 36t28.5 29q11 10 15 18t4 18q0 17 -6 27t-24 10q-22 0 -26 -12t-4 -24v-9h-51v9q0 15 1.5 28.5t10 23t25.5 15.5t47 6t47 -5.5t25 -14.5t9.5 -19.5t1.5 -19.5
q0 -28 -10 -44t-22.5 -27.5t-22.5 -22.5t-10 -28h-47z" />
    <glyph glyph-name="uni1ED0" unicode="&#x1ed0;" horiz-adv-x="594" 
d="M292 -9q-87 0 -134.5 24.5t-69 73t-25.5 121t-4 169.5t3.5 170t25.5 122t69.5 74t134.5 25q88 0 135.5 -25t69.5 -74t25.5 -122t3.5 -170t-4 -169.5t-26 -121t-69.5 -73t-134.5 -24.5zM374 419q0 72 -1.5 118t-9.5 73t-24.5 37t-46.5 10q-29 0 -45.5 -10t-24.5 -37
t-9.5 -73t-1.5 -118v-66q0 -74 1.5 -122.5t9.5 -77t24.5 -40t45.5 -11.5q30 0 46.5 11.5t24.5 40t9.5 77t1.5 122.5v66zM373 869v31l171 64v-61zM300 841l-120 -49v29l120 72l121 -72v-29z" />
    <glyph glyph-name="uni1ED1" unicode="&#x1ed1;" horiz-adv-x="539" 
d="M264 -9q-76 0 -117 21t-60.5 58.5t-23 89t-3.5 113.5q0 58 3.5 107.5t23 85.5t60.5 56t117 20t117.5 -20t61 -56t23 -85.5t3.5 -107.5q0 -62 -3.5 -113.5t-23 -89t-61 -58.5t-117.5 -21zM330 284q0 47 -2 77.5t-9 48.5t-20 25.5t-35 7.5t-35 -7.5t-20 -25.5t-9 -48.5
t-2 -77.5v-23q0 -52 2 -85t9 -52.5t20 -27t35 -7.5t35 7.5t20 27t9 52.5t2 85v23zM350 642v31l171 64v-61zM277 614l-120 -49v29l120 72l121 -72v-29z" />
    <glyph glyph-name="uni1ED2" unicode="&#x1ed2;" horiz-adv-x="594" 
d="M292 -9q-87 0 -134.5 24.5t-69 73t-25.5 121t-4 169.5t3.5 170t25.5 122t69.5 74t134.5 25q88 0 135.5 -25t69.5 -74t25.5 -122t3.5 -170t-4 -169.5t-26 -121t-69.5 -73t-134.5 -24.5zM374 419q0 72 -1.5 118t-9.5 73t-24.5 37t-46.5 10q-29 0 -45.5 -10t-24.5 -37
t-9.5 -73t-1.5 -118v-66q0 -74 1.5 -122.5t9.5 -77t24.5 -40t45.5 -11.5q30 0 46.5 11.5t24.5 40t9.5 77t1.5 122.5v66zM62 904v60l171 -64v-31zM306 841l-121 -49v29l121 73l119 -73v-29z" />
    <glyph glyph-name="uni1ED3" unicode="&#x1ed3;" horiz-adv-x="539" 
d="M264 -9q-76 0 -117 21t-60.5 58.5t-23 89t-3.5 113.5q0 58 3.5 107.5t23 85.5t60.5 56t117 20t117.5 -20t61 -56t23 -85.5t3.5 -107.5q0 -62 -3.5 -113.5t-23 -89t-61 -58.5t-117.5 -21zM330 284q0 47 -2 77.5t-9 48.5t-20 25.5t-35 7.5t-35 -7.5t-20 -25.5t-9 -48.5
t-2 -77.5v-23q0 -52 2 -85t9 -52.5t20 -27t35 -7.5t35 7.5t20 27t9 52.5t2 85v23zM29 677v60l171 -64v-31zM273 614l-121 -49v29l121 73l119 -73v-29z" />
    <glyph glyph-name="uni1ED4" unicode="&#x1ed4;" horiz-adv-x="594" 
d="M292 -9q-87 0 -134.5 24.5t-69 73t-25.5 121t-4 169.5t3.5 170t25.5 122t69.5 74t134.5 25q88 0 135.5 -25t69.5 -74t25.5 -122t3.5 -170t-4 -169.5t-26 -121t-69.5 -73t-134.5 -24.5zM374 419q0 72 -1.5 118t-9.5 73t-24.5 37t-46.5 10q-29 0 -45.5 -10t-24.5 -37
t-9.5 -73t-1.5 -118v-66q0 -74 1.5 -122.5t9.5 -77t24.5 -40t45.5 -11.5q30 0 46.5 11.5t24.5 40t9.5 77t1.5 122.5v66zM447 793v9q1 22 10.5 34t19.5 20.5t18.5 17.5t8.5 26q0 20 -6.5 28.5t-24.5 8.5q-22 0 -25.5 -12t-3.5 -24v-9h-52v9q0 15 1.5 28.5t10 23t25.5 15.5
t47 6t47 -5.5t25 -14.5t9.5 -19.5t1.5 -19.5q0 -28 -10 -44t-22.5 -27.5t-22.5 -22.5t-10 -28h-47zM302 841l-120 -49v29l120 72l121 -72v-29z" />
    <glyph glyph-name="uni1ED5" unicode="&#x1ed5;" horiz-adv-x="539" 
d="M264 -9q-76 0 -117 21t-60.5 58.5t-23 89t-3.5 113.5q0 58 3.5 107.5t23 85.5t60.5 56t117 20t117.5 -20t61 -56t23 -85.5t3.5 -107.5q0 -62 -3.5 -113.5t-23 -89t-61 -58.5t-117.5 -21zM330 284q0 47 -2 77.5t-9 48.5t-20 25.5t-35 7.5t-35 -7.5t-20 -25.5t-9 -48.5
t-2 -77.5v-23q0 -52 2 -85t9 -52.5t20 -27t35 -7.5t35 7.5t20 27t9 52.5t2 85v23zM414 566v9q1 22 10.5 34t19.5 20.5t18.5 17.5t8.5 26q0 20 -6.5 28.5t-24.5 8.5q-22 0 -25.5 -12t-3.5 -24v-9h-52v9q0 15 1.5 28.5t10 23t25.5 15.5t47 6t47 -5.5t25 -14.5t9.5 -19.5
t1.5 -19.5q0 -28 -10 -44t-22.5 -27.5t-22.5 -22.5t-10 -28h-47zM269 614l-120 -49v29l120 72l121 -72v-29z" />
    <glyph glyph-name="uni1ED6" unicode="&#x1ed6;" horiz-adv-x="594" 
d="M292 -9q-87 0 -134.5 24.5t-69 73t-25.5 121t-4 169.5t3.5 170t25.5 122t69.5 74t134.5 25q88 0 135.5 -25t69.5 -74t25.5 -122t3.5 -170t-4 -169.5t-26 -121t-69.5 -73t-134.5 -24.5zM374 419q0 72 -1.5 118t-9.5 73t-24.5 37t-46.5 10q-29 0 -45.5 -10t-24.5 -37
t-9.5 -73t-1.5 -118v-66q0 -74 1.5 -122.5t9.5 -77t24.5 -40t45.5 -11.5q30 0 46.5 11.5t24.5 40t9.5 77t1.5 122.5v66zM416 923q-26 -26 -63 -26q-16 0 -30 5t-28 10.5t-28.5 10.5t-30.5 5q-23 0 -35.5 -7.5t-25.5 -22.5v49q25 24 63 24q16 0 30 -4.5t28 -10.5t28 -10.5
t31 -4.5q23 0 36 7.5t25 22.5v-48zM176 792v29l119 72l121 -72v-29l-121 49z" />
    <glyph glyph-name="uni1ED7" unicode="&#x1ed7;" horiz-adv-x="539" 
d="M264 -9q-76 0 -117 21t-60.5 58.5t-23 89t-3.5 113.5q0 58 3.5 107.5t23 85.5t60.5 56t117 20t117.5 -20t61 -56t23 -85.5t3.5 -107.5q0 -62 -3.5 -113.5t-23 -89t-61 -58.5t-117.5 -21zM330 284q0 47 -2 77.5t-9 48.5t-20 25.5t-35 7.5t-35 -7.5t-20 -25.5t-9 -48.5
t-2 -77.5v-23q0 -52 2 -85t9 -52.5t20 -27t35 -7.5t35 7.5t20 27t9 52.5t2 85v23zM388 696q-26 -26 -63 -26q-16 0 -30 5t-28 10.5t-28.5 10.5t-30.5 5q-23 0 -35.5 -7.5t-25.5 -22.5v49q25 24 63 24q16 0 30 -4.5t28 -10.5t28 -10.5t31 -4.5q23 0 36 7.5t25 22.5v-48z
M148 565v29l119 72l121 -72v-29l-121 49z" />
    <glyph glyph-name="uni1ED8" unicode="&#x1ed8;" horiz-adv-x="594" 
d="M292 -9q-87 0 -134.5 24.5t-69 73t-25.5 121t-4 169.5t3.5 170t25.5 122t69.5 74t134.5 25q88 0 135.5 -25t69.5 -74t25.5 -122t3.5 -170t-4 -169.5t-26 -121t-69.5 -73t-134.5 -24.5zM374 419q0 72 -1.5 118t-9.5 73t-24.5 37t-46.5 10q-29 0 -45.5 -10t-24.5 -37
t-9.5 -73t-1.5 -118v-66q0 -74 1.5 -122.5t9.5 -77t24.5 -40t45.5 -11.5q30 0 46.5 11.5t24.5 40t9.5 77t1.5 122.5v66zM293 888l-144 -73v47l144 112l143 -112v-47zM249 -226v118h94v-118h-94z" />
    <glyph glyph-name="uni1ED9" unicode="&#x1ed9;" horiz-adv-x="539" 
d="M264 -9q-76 0 -117 21t-60.5 58.5t-23 89t-3.5 113.5q0 58 3.5 107.5t23 85.5t60.5 56t117 20t117.5 -20t61 -56t23 -85.5t3.5 -107.5q0 -62 -3.5 -113.5t-23 -89t-61 -58.5t-117.5 -21zM330 284q0 47 -2 77.5t-9 48.5t-20 25.5t-35 7.5t-35 -7.5t-20 -25.5t-9 -48.5
t-2 -77.5v-23q0 -52 2 -85t9 -52.5t20 -27t35 -7.5t35 7.5t20 27t9 52.5t2 85v23zM265 661l-144 -73v47l144 112l143 -112v-47zM221 -226v118h94v-118h-94z" />
    <glyph glyph-name="uni1EDA" unicode="&#x1eda;" horiz-adv-x="649" 
d="M292 -9q-87 0 -134.5 24.5t-69 73t-25.5 121t-4 169.5t3.5 170t25.5 122t69.5 74t134.5 25q89 0 137 -25t69 -76q11 -26 28 -37t40 -11q25 0 34.5 15t9.5 47v76h91v-82q0 -25 -4 -48t-15 -40.5t-30.5 -28t-49.5 -10.5q-25 0 -47 9t-37 25q5 -42 6.5 -93t1.5 -112
q0 -97 -4 -169.5t-26 -121t-69.5 -73t-134.5 -24.5zM374 419q0 72 -1.5 118t-9.5 73t-24.5 37t-46.5 10q-29 0 -45.5 -10t-24.5 -37t-9.5 -73t-1.5 -118v-66q0 -74 1.5 -122.5t9.5 -77t24.5 -40t45.5 -11.5q30 0 46.5 11.5t24.5 40t9.5 77t1.5 122.5v66zM201 823v43l225 76
v-84z" />
    <glyph glyph-name="uni1EDB" unicode="&#x1edb;" horiz-adv-x="604" 
d="M176 596v43l225 76v-84zM264 -9q-76 0 -117 21t-60.5 58.5t-23 89t-3.5 113.5q0 58 3.5 107.5t23 85.5t60.5 56t117 20q46 0 78.5 -7.5t55 -21.5t36 -34t21.5 -45q11 -22 28 -31t38 -9q24 0 34 15t10 46v77h91v-83q0 -25 -4 -48t-15.5 -40t-31 -27.5t-49.5 -10.5
q-28 0 -51 11.5t-39 31.5q3 -42 3 -93q0 -62 -3.5 -113.5t-23 -89t-61 -58.5t-117.5 -21zM330 284q0 47 -2 77.5t-9 48.5t-20 25.5t-35 7.5t-35 -7.5t-20 -25.5t-9 -48.5t-2 -77.5v-23q0 -52 2 -85t9 -52.5t20 -27t35 -7.5t35 7.5t20 27t9 52.5t2 85v23z" />
    <glyph glyph-name="uni1EDC" unicode="&#x1edc;" horiz-adv-x="649" 
d="M292 -9q-87 0 -134.5 24.5t-69 73t-25.5 121t-4 169.5t3.5 170t25.5 122t69.5 74t134.5 25q89 0 137 -25t69 -76q11 -26 28 -37t40 -11q25 0 34.5 15t9.5 47v76h91v-82q0 -25 -4 -48t-15 -40.5t-30.5 -28t-49.5 -10.5q-25 0 -47 9t-37 25q5 -42 6.5 -93t1.5 -112
q0 -97 -4 -169.5t-26 -121t-69.5 -73t-134.5 -24.5zM374 419q0 72 -1.5 118t-9.5 73t-24.5 37t-46.5 10q-29 0 -45.5 -10t-24.5 -37t-9.5 -73t-1.5 -118v-66q0 -74 1.5 -122.5t9.5 -77t24.5 -40t45.5 -11.5q30 0 46.5 11.5t24.5 40t9.5 77t1.5 122.5v66zM159 858v84l225 -76
v-43z" />
    <glyph glyph-name="uni1EDD" unicode="&#x1edd;" horiz-adv-x="604" 
d="M133 631v84l225 -76v-43zM264 -9q-76 0 -117 21t-60.5 58.5t-23 89t-3.5 113.5q0 58 3.5 107.5t23 85.5t60.5 56t117 20q46 0 78.5 -7.5t55 -21.5t36 -34t21.5 -45q11 -22 28 -31t38 -9q24 0 34 15t10 46v77h91v-83q0 -25 -4 -48t-15.5 -40t-31 -27.5t-49.5 -10.5
q-28 0 -51 11.5t-39 31.5q3 -42 3 -93q0 -62 -3.5 -113.5t-23 -89t-61 -58.5t-117.5 -21zM330 284q0 47 -2 77.5t-9 48.5t-20 25.5t-35 7.5t-35 -7.5t-20 -25.5t-9 -48.5t-2 -77.5v-23q0 -52 2 -85t9 -52.5t20 -27t35 -7.5t35 7.5t20 27t9 52.5t2 85v23z" />
    <glyph glyph-name="uni1EDE" unicode="&#x1ede;" horiz-adv-x="649" 
d="M292 -9q-87 0 -134.5 24.5t-69 73t-25.5 121t-4 169.5t3.5 170t25.5 122t69.5 74t134.5 25q89 0 137 -25t69 -76q11 -26 28 -37t40 -11q25 0 34.5 15t9.5 47v76h91v-82q0 -25 -4 -48t-15 -40.5t-30.5 -28t-49.5 -10.5q-25 0 -47 9t-37 25q5 -42 6.5 -93t1.5 -112
q0 -97 -4 -169.5t-26 -121t-69.5 -73t-134.5 -24.5zM374 419q0 72 -1.5 118t-9.5 73t-24.5 37t-46.5 10q-29 0 -45.5 -10t-24.5 -37t-9.5 -73t-1.5 -118v-66q0 -74 1.5 -122.5t9.5 -77t24.5 -40t45.5 -11.5q30 0 46.5 11.5t24.5 40t9.5 77t1.5 122.5v66zM275 793v6
q0 23 8.5 36t28.5 29q11 10 15 18t4 18q0 17 -6 27t-24 10q-22 0 -26 -12t-4 -24v-9h-51v9q0 15 1.5 28.5t10 23t25.5 15.5t47 6t47 -5.5t25 -14.5t9.5 -19.5t1.5 -19.5q0 -28 -10 -44t-22.5 -27.5t-22.5 -22.5t-10 -28h-47z" />
    <glyph glyph-name="uni1EDF" unicode="&#x1edf;" horiz-adv-x="604" 
d="M264 -9q-76 0 -117 21t-60.5 58.5t-23 89t-3.5 113.5q0 58 3.5 107.5t23 85.5t60.5 56t117 20q46 0 78.5 -7.5t55 -21.5t36 -34t21.5 -45q11 -22 28 -31t38 -9q24 0 34 15t10 46v77h91v-83q0 -25 -4 -48t-15.5 -40t-31 -27.5t-49.5 -10.5q-28 0 -51 11.5t-39 31.5
q3 -42 3 -93q0 -62 -3.5 -113.5t-23 -89t-61 -58.5t-117.5 -21zM330 284q0 47 -2 77.5t-9 48.5t-20 25.5t-35 7.5t-35 -7.5t-20 -25.5t-9 -48.5t-2 -77.5v-23q0 -52 2 -85t9 -52.5t20 -27t35 -7.5t35 7.5t20 27t9 52.5t2 85v23zM245 566v6q0 23 8.5 36t28.5 29q11 10 15 18
t4 18q0 17 -6 27t-24 10q-22 0 -26 -12t-4 -24v-9h-51v9q0 15 1.5 28.5t10 23t25.5 15.5t47 6t47 -5.5t25 -14.5t9.5 -19.5t1.5 -19.5q0 -28 -10 -44t-22.5 -27.5t-22.5 -22.5t-10 -28h-47z" />
    <glyph glyph-name="uni1EE0" unicode="&#x1ee0;" horiz-adv-x="649" 
d="M292 -9q-87 0 -134.5 24.5t-69 73t-25.5 121t-4 169.5t3.5 170t25.5 122t69.5 74t134.5 25q89 0 137 -25t69 -76q11 -26 28 -37t40 -11q25 0 34.5 15t9.5 47v76h91v-82q0 -25 -4 -48t-15 -40.5t-30.5 -28t-49.5 -10.5q-25 0 -47 9t-37 25q5 -42 6.5 -93t1.5 -112
q0 -97 -4 -169.5t-26 -121t-69.5 -73t-134.5 -24.5zM374 419q0 72 -1.5 118t-9.5 73t-24.5 37t-46.5 10q-29 0 -45.5 -10t-24.5 -37t-9.5 -73t-1.5 -118v-66q0 -74 1.5 -122.5t9.5 -77t24.5 -40t45.5 -11.5q30 0 46.5 11.5t24.5 40t9.5 77t1.5 122.5v66zM432 872
q-31 -32 -72 -32q-17 0 -33 6t-32.5 12.5t-33 12.5t-35.5 6q-25 0 -39 -9.5t-30 -29.5v73q17 17 34.5 24t36.5 7q18 0 34.5 -6t32.5 -12.5t33 -12.5t35 -6q25 0 39.5 10t29.5 30v-73z" />
    <glyph glyph-name="uni1EE1" unicode="&#x1ee1;" horiz-adv-x="604" 
d="M264 -9q-76 0 -117 21t-60.5 58.5t-23 89t-3.5 113.5q0 58 3.5 107.5t23 85.5t60.5 56t117 20q46 0 78.5 -7.5t55 -21.5t36 -34t21.5 -45q11 -22 28 -31t38 -9q24 0 34 15t10 46v77h91v-83q0 -25 -4 -48t-15.5 -40t-31 -27.5t-49.5 -10.5q-28 0 -51 11.5t-39 31.5
q3 -42 3 -93q0 -62 -3.5 -113.5t-23 -89t-61 -58.5t-117.5 -21zM330 284q0 47 -2 77.5t-9 48.5t-20 25.5t-35 7.5t-35 -7.5t-20 -25.5t-9 -48.5t-2 -77.5v-23q0 -52 2 -85t9 -52.5t20 -27t35 -7.5t35 7.5t20 27t9 52.5t2 85v23zM405 645q-31 -32 -72 -32q-17 0 -33 6
t-32.5 12.5t-33 12.5t-35.5 6q-25 0 -39 -9.5t-30 -29.5v73q17 17 34.5 24t36.5 7q18 0 34.5 -6t32.5 -12.5t33 -12.5t35 -6q25 0 39.5 10t29.5 30v-73z" />
    <glyph glyph-name="uni1EE2" unicode="&#x1ee2;" horiz-adv-x="649" 
d="M292 -9q-87 0 -134.5 24.5t-69 73t-25.5 121t-4 169.5t3.5 170t25.5 122t69.5 74t134.5 25q89 0 137 -25t69 -76q11 -26 28 -37t40 -11q25 0 34.5 15t9.5 47v76h91v-82q0 -25 -4 -48t-15 -40.5t-30.5 -28t-49.5 -10.5q-25 0 -47 9t-37 25q5 -42 6.5 -93t1.5 -112
q0 -97 -4 -169.5t-26 -121t-69.5 -73t-134.5 -24.5zM374 419q0 72 -1.5 118t-9.5 73t-24.5 37t-46.5 10q-29 0 -45.5 -10t-24.5 -37t-9.5 -73t-1.5 -118v-66q0 -74 1.5 -122.5t9.5 -77t24.5 -40t45.5 -11.5q30 0 46.5 11.5t24.5 40t9.5 77t1.5 122.5v66zM251 -226v118h94
v-118h-94z" />
    <glyph glyph-name="uni1EE3" unicode="&#x1ee3;" horiz-adv-x="604" 
d="M264 -9q-76 0 -117 21t-60.5 58.5t-23 89t-3.5 113.5q0 58 3.5 107.5t23 85.5t60.5 56t117 20q46 0 78.5 -7.5t55 -21.5t36 -34t21.5 -45q11 -22 28 -31t38 -9q24 0 34 15t10 46v77h91v-83q0 -25 -4 -48t-15.5 -40t-31 -27.5t-49.5 -10.5q-28 0 -51 11.5t-39 31.5
q3 -42 3 -93q0 -62 -3.5 -113.5t-23 -89t-61 -58.5t-117.5 -21zM330 284q0 47 -2 77.5t-9 48.5t-20 25.5t-35 7.5t-35 -7.5t-20 -25.5t-9 -48.5t-2 -77.5v-23q0 -52 2 -85t9 -52.5t20 -27t35 -7.5t35 7.5t20 27t9 52.5t2 85v23zM222 -226v118h94v-118h-94z" />
    <glyph glyph-name="uni1EE4" unicode="&#x1ee4;" horiz-adv-x="596" 
d="M375 759h148v-560q0 -63 -15.5 -103.5t-45 -64t-72 -32t-96.5 -8.5q-57 0 -100 8.5t-72.5 32t-44 64t-14.5 103.5v560h148v-560q0 -57 21 -75.5t61 -18.5q43 0 62.5 19t19.5 75v560zM250 -226v118h94v-118h-94z" />
    <glyph glyph-name="uni1EE5" unicode="&#x1ee5;" horiz-adv-x="529" 
d="M311 0v59q-17 -34 -48.5 -51t-70.5 -17q-38 0 -62.5 9.5t-38.5 26.5t-19 42t-5 56v407h136v-376q0 -12 1 -24t6 -21.5t15.5 -15t29.5 -5.5q18 0 29 6t16.5 15.5t7.5 21t3 23.5v376h137v-532h-137zM216 -226v118h94v-118h-94z" />
    <glyph glyph-name="uni1EE6" unicode="&#x1ee6;" horiz-adv-x="596" 
d="M375 759h148v-560q0 -63 -15.5 -103.5t-45 -64t-72 -32t-96.5 -8.5q-57 0 -100 8.5t-72.5 32t-44 64t-14.5 103.5v560h148v-560q0 -57 21 -75.5t61 -18.5q43 0 62.5 19t19.5 75v560zM276 793v6q0 23 8.5 36t28.5 29q11 10 15 18t4 18q0 17 -6 27t-24 10q-22 0 -26 -12
t-4 -24v-9h-51v9q0 15 1.5 28.5t10 23t25.5 15.5t47 6t47 -5.5t25 -14.5t9.5 -19.5t1.5 -19.5q0 -28 -10 -44t-22.5 -27.5t-22.5 -22.5t-10 -28h-47z" />
    <glyph glyph-name="uni1EE7" unicode="&#x1ee7;" horiz-adv-x="529" 
d="M311 0v59q-17 -34 -48.5 -51t-70.5 -17q-38 0 -62.5 9.5t-38.5 26.5t-19 42t-5 56v407h136v-376q0 -12 1 -24t6 -21.5t15.5 -15t29.5 -5.5q18 0 29 6t16.5 15.5t7.5 21t3 23.5v376h137v-532h-137zM240 566v6q0 23 8.5 36t28.5 29q11 10 15 18t4 18q0 17 -6 27t-24 10
q-22 0 -26 -12t-4 -24v-9h-51v9q0 15 1.5 28.5t10 23t25.5 15.5t47 6t47 -5.5t25 -14.5t9.5 -19.5t1.5 -19.5q0 -28 -10 -44t-22.5 -27.5t-22.5 -22.5t-10 -28h-47z" />
    <glyph glyph-name="uni1EE8" unicode="&#x1ee8;" horiz-adv-x="681" 
d="M375 759h148v-87q11 -26 29 -38.5t41 -12.5q25 0 35 15t10 47v76h91v-82q0 -25 -4 -48t-15.5 -40.5t-31 -28t-49.5 -10.5q-36 0 -64 19t-42 48v-418q0 -63 -15.5 -103.5t-45 -64t-72 -32t-96.5 -8.5q-57 0 -100 8.5t-72.5 32t-44 64t-14.5 103.5v560h148v-560
q0 -57 21 -75.5t61 -18.5q43 0 62.5 19t19.5 75v560zM209 823v43l225 76v-84z" />
    <glyph glyph-name="uni1EE9" unicode="&#x1ee9;" horiz-adv-x="602" 
d="M171 596v43l225 76v-84zM311 0v59q-17 -34 -48.5 -51t-70.5 -17q-38 0 -62.5 9.5t-38.5 26.5t-19 42t-5 56v407h136v-376q0 -12 1 -24t6 -21.5t15.5 -15t29.5 -5.5q18 0 29 6t16.5 15.5t7.5 21t3 23.5v376h137v-86q19 -52 68 -52q25 0 35 15t10 47v76h91v-82
q0 -25 -4 -48t-15.5 -40.5t-31 -28t-49.5 -10.5q-36 0 -63 19.5t-41 48.5v-391h-137z" />
    <glyph glyph-name="uni1EEA" unicode="&#x1eea;" horiz-adv-x="681" 
d="M375 759h148v-87q11 -26 29 -38.5t41 -12.5q25 0 35 15t10 47v76h91v-82q0 -25 -4 -48t-15.5 -40.5t-31 -28t-49.5 -10.5q-36 0 -64 19t-42 48v-418q0 -63 -15.5 -103.5t-45 -64t-72 -32t-96.5 -8.5q-57 0 -100 8.5t-72.5 32t-44 64t-14.5 103.5v560h148v-560
q0 -57 21 -75.5t61 -18.5q43 0 62.5 19t19.5 75v560zM162 858v84l225 -76v-43z" />
    <glyph glyph-name="uni1EEB" unicode="&#x1eeb;" horiz-adv-x="602" 
d="M125 631v84l225 -76v-43zM311 0v59q-17 -34 -48.5 -51t-70.5 -17q-38 0 -62.5 9.5t-38.5 26.5t-19 42t-5 56v407h136v-376q0 -12 1 -24t6 -21.5t15.5 -15t29.5 -5.5q18 0 29 6t16.5 15.5t7.5 21t3 23.5v376h137v-86q19 -52 68 -52q25 0 35 15t10 47v76h91v-82
q0 -25 -4 -48t-15.5 -40.5t-31 -28t-49.5 -10.5q-36 0 -63 19.5t-41 48.5v-391h-137z" />
    <glyph glyph-name="uni1EEC" unicode="&#x1eec;" horiz-adv-x="681" 
d="M375 759h148v-87q11 -26 29 -38.5t41 -12.5q25 0 35 15t10 47v76h91v-82q0 -25 -4 -48t-15.5 -40.5t-31 -28t-49.5 -10.5q-36 0 -64 19t-42 48v-418q0 -63 -15.5 -103.5t-45 -64t-72 -32t-96.5 -8.5q-57 0 -100 8.5t-72.5 32t-44 64t-14.5 103.5v560h148v-560
q0 -57 21 -75.5t61 -18.5q43 0 62.5 19t19.5 75v560zM275 793v6q0 23 8.5 36t28.5 29q11 10 15 18t4 18q0 17 -6 27t-24 10q-22 0 -26 -12t-4 -24v-9h-51v9q0 15 1.5 28.5t10 23t25.5 15.5t47 6t47 -5.5t25 -14.5t9.5 -19.5t1.5 -19.5q0 -28 -10 -44t-22.5 -27.5
t-22.5 -22.5t-10 -28h-47z" />
    <glyph glyph-name="uni1EED" unicode="&#x1eed;" horiz-adv-x="602" 
d="M311 0v59q-17 -34 -48.5 -51t-70.5 -17q-38 0 -62.5 9.5t-38.5 26.5t-19 42t-5 56v407h136v-376q0 -12 1 -24t6 -21.5t15.5 -15t29.5 -5.5q18 0 29 6t16.5 15.5t7.5 21t3 23.5v376h137v-86q19 -52 68 -52q25 0 35 15t10 47v76h91v-82q0 -25 -4 -48t-15.5 -40.5t-31 -28
t-49.5 -10.5q-36 0 -63 19.5t-41 48.5v-391h-137zM238 566v6q0 23 8.5 36t28.5 29q11 10 15 18t4 18q0 17 -6 27t-24 10q-22 0 -26 -12t-4 -24v-9h-51v9q0 15 1.5 28.5t10 23t25.5 15.5t47 6t47 -5.5t25 -14.5t9.5 -19.5t1.5 -19.5q0 -28 -10 -44t-22.5 -27.5t-22.5 -22.5
t-10 -28h-47z" />
    <glyph glyph-name="uni1EEE" unicode="&#x1eee;" horiz-adv-x="681" 
d="M375 759h148v-87q11 -26 29 -38.5t41 -12.5q25 0 35 15t10 47v76h91v-82q0 -25 -4 -48t-15.5 -40.5t-31 -28t-49.5 -10.5q-36 0 -64 19t-42 48v-418q0 -63 -15.5 -103.5t-45 -64t-72 -32t-96.5 -8.5q-57 0 -100 8.5t-72.5 32t-44 64t-14.5 103.5v560h148v-560
q0 -57 21 -75.5t61 -18.5q43 0 62.5 19t19.5 75v560zM437 872q-31 -32 -72 -32q-17 0 -33 6t-32.5 12.5t-33 12.5t-35.5 6q-25 0 -39 -9.5t-30 -29.5v73q17 17 34.5 24t36.5 7q18 0 34.5 -6t32.5 -12.5t33 -12.5t35 -6q25 0 39.5 10t29.5 30v-73z" />
    <glyph glyph-name="uni1EEF" unicode="&#x1eef;" horiz-adv-x="602" 
d="M399 645q-31 -32 -72 -32q-17 0 -33 6t-32.5 12.5t-33 12.5t-35.5 6q-25 0 -39 -9.5t-30 -29.5v73q17 17 34.5 24t36.5 7q18 0 34.5 -6t32.5 -12.5t33 -12.5t35 -6q25 0 39.5 10t29.5 30v-73zM311 0v59q-17 -34 -48.5 -51t-70.5 -17q-38 0 -62.5 9.5t-38.5 26.5t-19 42
t-5 56v407h136v-376q0 -12 1 -24t6 -21.5t15.5 -15t29.5 -5.5q18 0 29 6t16.5 15.5t7.5 21t3 23.5v376h137v-86q19 -52 68 -52q25 0 35 15t10 47v76h91v-82q0 -25 -4 -48t-15.5 -40.5t-31 -28t-49.5 -10.5q-36 0 -63 19.5t-41 48.5v-391h-137z" />
    <glyph glyph-name="uni1EF0" unicode="&#x1ef0;" horiz-adv-x="681" 
d="M375 759h148v-87q11 -26 29 -38.5t41 -12.5q25 0 35 15t10 47v76h91v-82q0 -25 -4 -48t-15.5 -40.5t-31 -28t-49.5 -10.5q-36 0 -64 19t-42 48v-418q0 -63 -15.5 -103.5t-45 -64t-72 -32t-96.5 -8.5q-57 0 -100 8.5t-72.5 32t-44 64t-14.5 103.5v560h148v-560
q0 -57 21 -75.5t61 -18.5q43 0 62.5 19t19.5 75v560zM252 -226v118h94v-118h-94z" />
    <glyph glyph-name="uni1EF1" unicode="&#x1ef1;" horiz-adv-x="602" 
d="M311 0v59q-17 -34 -48.5 -51t-70.5 -17q-38 0 -62.5 9.5t-38.5 26.5t-19 42t-5 56v407h136v-376q0 -12 1 -24t6 -21.5t15.5 -15t29.5 -5.5q18 0 29 6t16.5 15.5t7.5 21t3 23.5v376h137v-86q19 -52 68 -52q25 0 35 15t10 47v76h91v-82q0 -25 -4 -48t-15.5 -40.5t-31 -28
t-49.5 -10.5q-36 0 -63 19.5t-41 48.5v-391h-137zM216 -226v118h94v-118h-94z" />
    <glyph glyph-name="Ygrave" unicode="&#x1ef2;" horiz-adv-x="557" 
d="M201 0v256l-177 503h149l67 -222q9 -29 15 -51t10.5 -40t7.5 -34l6 -32q3 16 5.5 32t7 34t10.5 40t15 51l71 222h144l-184 -503v-256h-147zM146 858v84l225 -76v-43z" />
    <glyph glyph-name="ygrave" unicode="&#x1ef3;" horiz-adv-x="500" 
d="M147 -226l54 192l-171 566h134l61 -252q7 -30 12.5 -52.5t9.5 -41.5t7 -36t5 -35q2 18 4.5 35t5.5 36t8 41.5t11 51.5l54 253h135l-200 -758h-130zM127 631v84l225 -76v-43z" />
    <glyph glyph-name="endash" unicode="&#x2013;" horiz-adv-x="524" 
d="M37 260v96h448v-96h-448z" />
    <glyph glyph-name="emdash" unicode="&#x2014;" horiz-adv-x="855" 
d="M37 260v96h780v-96h-780z" />
    <glyph glyph-name="quoteleft" unicode="&#x2018;" horiz-adv-x="219" 
d="M98 508l-52 129v122h127v-144h-42l21 -107h-54z" />
    <glyph glyph-name="quoteright" unicode="&#x2019;" horiz-adv-x="219" 
d="M66 508l22 107h-42v144h127v-122l-52 -129h-55z" />
    <glyph glyph-name="quotesinglbase" unicode="&#x201a;" horiz-adv-x="219" 
d="M66 -107l22 107h-42v143h127v-122l-52 -128h-55z" />
    <glyph glyph-name="quotedblleft" unicode="&#x201c;" horiz-adv-x="438" 
d="M98 508l-52 129v122h127v-144h-42l21 -107h-54zM317 508l-52 129v122h127v-144h-42l21 -107h-54z" />
    <glyph glyph-name="quotedblright" unicode="&#x201d;" horiz-adv-x="438" 
d="M66 508l22 107h-42v144h127v-122l-52 -129h-55zM285 508l22 107h-42v144h127v-122l-52 -129h-55z" />
    <glyph glyph-name="quotedblbase" unicode="&#x201e;" horiz-adv-x="438" 
d="M66 -107l22 107h-42v143h127v-122l-52 -128h-55zM285 -107l22 107h-42v143h127v-122l-52 -128h-55z" />
    <glyph glyph-name="dagger" unicode="&#x2020;" horiz-adv-x="373" 
d="M225 577v-70q0 -147 -12.5 -274t-26.5 -244q-15 117 -27 243.5t-12 274.5v70h-86v38l86 20v124h78v-124l87 -20v-38h-87z" />
    <glyph glyph-name="daggerdbl" unicode="&#x2021;" horiz-adv-x="373" 
d="M147 0v124l-86 19v38h86v67q0 35 4.5 68t9.5 63q-5 31 -9.5 63.5t-4.5 68.5v66h-86v38l86 20v124h78v-124l87 -20v-38h-87v-66q0 -36 -3.5 -68.5t-10.5 -63.5q14 -62 14 -131v-67h87v-38l-87 -19v-124h-78z" />
    <glyph glyph-name="bullet" unicode="&#x2022;" horiz-adv-x="364" 
d="M328 363q0 -32 -11.5 -58.5t-31.5 -45.5t-46.5 -30t-56.5 -11q-31 0 -57.5 11t-46 30t-30.5 45.5t-11 58.5t11 58.5t30.5 45.5t46 29.5t57.5 10.5q30 0 56.5 -10.5t46.5 -29.5t31.5 -45.5t11.5 -58.5z" />
    <glyph glyph-name="ellipsis" unicode="&#x2026;" horiz-adv-x="922" 
d="M67 0v143h127v-143h-127zM393 0v143h127v-143h-127zM719 0v143h127v-143h-127z" />
    <glyph glyph-name="perthousand" unicode="&#x2030;" horiz-adv-x="966" 
d="M175 384q-36 0 -57 9t-31.5 31.5t-13.5 60t-3 94.5t3 94.5t13.5 60t31.5 31.5t57 9q37 0 58 -9t31.5 -31.5t13.5 -60t3 -94.5t-3 -94.5t-13.5 -60t-31.5 -31.5t-58 -9zM212 627q0 51 -6 74t-31 23t-31 -23t-6 -74v-76q0 -62 5 -90t32 -28t32 28t5 90v76zM116 -21l378 801
h80l-377 -801h-81zM517 -15q-36 0 -57 9t-31.5 31.5t-13.5 60t-3 94.5t3 94.5t13.5 60t31.5 31.5t57 9q37 0 58 -9t31.5 -31.5t13.5 -60t3 -94.5t-3 -94.5t-13.5 -60t-31.5 -31.5t-58 -9zM554 228q0 51 -6 74t-31 23t-31 -23t-6 -74v-76q0 -62 5 -90t32 -28t32 28t5 90v76z
M789 -15q-36 0 -57 9t-31.5 31.5t-13.5 60t-3 94.5t3 94.5t13.5 60t31.5 31.5t57 9q37 0 58 -9t31.5 -31.5t13.5 -60t3 -94.5t-3 -94.5t-13.5 -60t-31.5 -31.5t-58 -9zM826 228q0 51 -6 74t-31 23t-31 -23t-6 -74v-76q0 -62 5 -90t32 -28t32 28t5 90v76z" />
    <glyph glyph-name="guilsinglleft" unicode="&#x2039;" horiz-adv-x="309" 
d="M216 91l-178 232l178 231l53 -50l-135 -181l137 -179z" />
    <glyph glyph-name="guilsinglright" unicode="&#x203a;" horiz-adv-x="309" 
d="M38 144l137 179l-135 181l53 50l178 -231l-178 -232z" />
    <glyph glyph-name="fraction" unicode="&#x2044;" horiz-adv-x="178" 
d="M-140 -21l378 801h80l-377 -801h-81z" />
    <glyph glyph-name="uni2070" unicode="&#x2070;" horiz-adv-x="302" 
d="M151 384q-36 0 -57 9t-31.5 31.5t-13.5 60t-3 94.5t3 94.5t13.5 60t31.5 31.5t57 9q37 0 58 -9t31.5 -31.5t13.5 -60t3 -94.5t-3 -94.5t-13.5 -60t-31.5 -31.5t-58 -9zM188 627q0 51 -6 74t-31 23t-31 -23t-6 -74v-76q0 -62 5 -90t32 -28t32 28t5 90v76z" />
    <glyph glyph-name="uni2074" unicode="&#x2074;" horiz-adv-x="302" 
d="M169 389v68h-128v62l97 249h96v-259h28v-52h-28v-68h-65zM172 625q0 51 1 78t3 41q-5 -14 -13 -40t-25 -74l-44 -121h78v116z" />
    <glyph glyph-name="uni2075" unicode="&#x2075;" horiz-adv-x="303" 
d="M187 533q0 13 -0.5 25.5t-4 22t-10.5 15t-20 5.5q-21 0 -29 -12t-10 -28h-58l12 207h182v-52h-124l-6 -104q9 19 24 27.5t35 8.5q29 0 45 -12.5t23.5 -32.5t8.5 -46t1 -53q0 -22 -1.5 -43.5t-12 -38.5t-32.5 -27.5t-62 -10.5q-22 0 -40 3.5t-31 13.5t-20 26.5t-7 43.5v15
h65v-8q0 -17 6.5 -31t27.5 -14q14 0 22 6t11.5 15t4 20.5t0.5 23.5v35z" />
    <glyph glyph-name="uni2076" unicode="&#x2076;" horiz-adv-x="303" 
d="M190 679v5q0 7 -1 14.5t-4.5 13.5t-11 9.5t-20.5 3.5q-14 0 -22 -6t-11.5 -17t-4 -27t-0.5 -36v-48q11 21 26.5 29t36.5 8q49 0 64.5 -27.5t15.5 -89.5q0 -34 -3.5 -58t-15 -39.5t-32.5 -22.5t-56 -7q-39 0 -60 11t-31 35t-11.5 62t-1.5 93q0 42 1.5 76.5t11.5 59.5
t32 39t62 14q37 0 57 -8t29.5 -21t11 -29t1.5 -32v-5h-63zM191 520q0 11 -1 22t-4.5 20t-11 14.5t-20.5 5.5q-14 0 -22 -7.5t-12 -20t-5 -28.5t-1 -34q0 -26 6.5 -42.5t32.5 -16.5q27 0 32.5 15.5t5.5 41.5v30z" />
    <glyph glyph-name="uni2077" unicode="&#x2077;" horiz-adv-x="303" 
d="M92 389q15 85 41 170.5t61 156.5h-144v52h204v-53q-33 -74 -55 -158.5t-33 -167.5h-74z" />
    <glyph glyph-name="uni2078" unicode="&#x2078;" horiz-adv-x="302" 
d="M199 591q39 -11 49.5 -37.5t10.5 -66.5q0 -23 -3.5 -41.5t-15 -32t-33 -21t-56.5 -7.5t-56 7.5t-32.5 21t-15.5 32t-4 41.5q0 40 11 66.5t49 37.5q-33 8 -44 27.5t-11 54.5q0 19 2.5 37.5t12.5 32.5t31 22.5t57 8.5t57 -8.5t31.5 -22.5t13 -32.5t2.5 -37.5
q0 -35 -11.5 -54.5t-44.5 -27.5zM151 433q28 0 33 16t5 45q0 34 -5 52t-33 18q-26 0 -32 -18t-6 -52q0 -29 5 -45t33 -16zM151 612q23 0 30 15.5t7 44.5q0 22 -4.5 37t-32.5 15q-27 0 -31.5 -14.5t-4.5 -37.5q0 -29 6.5 -44.5t29.5 -15.5z" />
    <glyph glyph-name="uni2079" unicode="&#x2079;" horiz-adv-x="303" 
d="M188 576q-10 -20 -25 -28t-38 -8q-49 0 -65 28t-16 86q0 31 4 54t15.5 37.5t32.5 21.5t56 7q39 0 59.5 -11t30.5 -35t11.5 -62t1.5 -92q0 -42 -1.5 -77t-11.5 -60t-31.5 -39t-61.5 -14q-37 0 -57 8t-29.5 20.5t-11 28.5t-1.5 32v6h63v-5q0 -14 5.5 -28t31.5 -14
q28 0 33 23.5t5 63.5v57zM112 647q0 -27 5.5 -44t31.5 -17q23 0 30 16.5t9 42.5q0 38 -4.5 58.5t-32.5 20.5q-26 0 -32.5 -13.5t-6.5 -36.5v-27z" />
    <glyph glyph-name="uni2080" unicode="&#x2080;" horiz-adv-x="302" 
d="M151 -15q-36 0 -57 9t-31.5 31.5t-13.5 60t-3 94.5t3 94.5t13.5 60t31.5 31.5t57 9q37 0 58 -9t31.5 -31.5t13.5 -60t3 -94.5t-3 -94.5t-13.5 -60t-31.5 -31.5t-58 -9zM188 228q0 51 -6 74t-31 23t-31 -23t-6 -74v-76q0 -62 5 -90t32 -28t32 28t5 90v76z" />
    <glyph glyph-name="uni2081" unicode="&#x2081;" horiz-adv-x="292" 
d="M136 -10v262q0 15 0.5 31t1.5 28q-7 -9 -16.5 -20.5t-18.5 -22.5l-37 -42l-36 34l99 109h77v-379h-70z" />
    <glyph glyph-name="uni2082" unicode="&#x2082;" horiz-adv-x="303" 
d="M47 -10v54q0 30 7 51t20 37.5t31 30t40 27.5q27 17 34 36t7 50q0 8 -0.5 16.5t-3.5 15t-10 11t-19 4.5q-22 0 -29 -14.5t-7 -37.5v-16h-66v21q0 54 22.5 76.5t77.5 22.5q49 0 76 -20t27 -75q0 -35 -7.5 -63.5t-27.5 -48.5q-15 -14 -33 -23.5t-34 -20.5t-27 -26t-11 -40
v-17h141v-51h-208z" />
    <glyph glyph-name="uni2083" unicode="&#x2083;" horiz-adv-x="302" 
d="M110 88q0 -23 7 -38.5t33 -15.5q28 0 34 15t6 39q0 14 -1.5 27t-5.5 23.5t-12 16.5t-20 6h-46v52h46q13 0 20 6t11 15t5 20.5t1 22.5q0 20 -6 34t-32 14q-27 0 -32.5 -14t-5.5 -34v-10h-63v7q0 19 2 37t12 32.5t30.5 23t57.5 8.5t57.5 -8.5t31 -22.5t13 -32.5t2.5 -37.5
q0 -35 -11.5 -55t-44.5 -28q39 -11 49.5 -37t10.5 -66q0 -23 -3.5 -41.5t-15 -32t-33 -21t-56.5 -7.5t-56.5 7.5t-32.5 21t-14.5 32t-3.5 41.5v17h66v-17z" />
    <glyph glyph-name="uni2084" unicode="&#x2084;" horiz-adv-x="302" 
d="M169 -10v68h-128v62l97 249h96v-259h28v-52h-28v-68h-65zM172 226q0 51 1 78t3 41q-5 -14 -13 -40t-25 -74l-44 -121h78v116z" />
    <glyph glyph-name="uni2085" unicode="&#x2085;" horiz-adv-x="303" 
d="M187 134q0 13 -0.5 25.5t-4 22t-10.5 15t-20 5.5q-21 0 -29 -12t-10 -28h-58l12 207h182v-52h-124l-6 -104q9 19 24 27.5t35 8.5q29 0 45 -12.5t23.5 -32.5t8.5 -46t1 -53q0 -22 -1.5 -43.5t-12 -38.5t-32.5 -27.5t-62 -10.5q-22 0 -40 3.5t-31 13.5t-20 26.5t-7 43.5v15
h65v-8q0 -17 6.5 -31t27.5 -14q14 0 22 6t11.5 15t4 20.5t0.5 23.5v35z" />
    <glyph glyph-name="uni2086" unicode="&#x2086;" horiz-adv-x="303" 
d="M190 280v5q0 7 -1 14.5t-4.5 13.5t-11 9.5t-20.5 3.5q-14 0 -22 -6t-11.5 -17t-4 -27t-0.5 -36v-48q11 21 26.5 29t36.5 8q49 0 64.5 -27.5t15.5 -89.5q0 -34 -3.5 -58t-15 -39.5t-32.5 -22.5t-56 -7q-39 0 -60 11t-31 35t-11.5 62t-1.5 93q0 42 1.5 76.5t11.5 59.5
t32 39t62 14q37 0 57 -8t29.5 -21t11 -29t1.5 -32v-5h-63zM191 121q0 11 -1 22t-4.5 20t-11 14.5t-20.5 5.5q-14 0 -22 -7.5t-12 -20t-5 -28.5t-1 -34q0 -26 6.5 -42.5t32.5 -16.5q27 0 32.5 15.5t5.5 41.5v30z" />
    <glyph glyph-name="uni2087" unicode="&#x2087;" horiz-adv-x="303" 
d="M92 -10q15 85 41 170.5t61 156.5h-144v52h204v-53q-33 -74 -55 -158.5t-33 -167.5h-74z" />
    <glyph glyph-name="uni2088" unicode="&#x2088;" horiz-adv-x="302" 
d="M199 192q39 -11 49.5 -37.5t10.5 -66.5q0 -23 -3.5 -41.5t-15 -32t-33 -21t-56.5 -7.5t-56 7.5t-32.5 21t-15.5 32t-4 41.5q0 40 11 66.5t49 37.5q-33 8 -44 27.5t-11 54.5q0 19 2.5 37.5t12.5 32.5t31 22.5t57 8.5t57 -8.5t31.5 -22.5t13 -32.5t2.5 -37.5
q0 -35 -11.5 -54.5t-44.5 -27.5zM151 34q28 0 33 16t5 45q0 34 -5 52t-33 18q-26 0 -32 -18t-6 -52q0 -29 5 -45t33 -16zM151 213q23 0 30 15.5t7 44.5q0 22 -4.5 37t-32.5 15q-27 0 -31.5 -14.5t-4.5 -37.5q0 -29 6.5 -44.5t29.5 -15.5z" />
    <glyph glyph-name="uni2089" unicode="&#x2089;" horiz-adv-x="303" 
d="M188 177q-10 -20 -25 -28t-38 -8q-49 0 -65 28t-16 86q0 31 4 54t15.5 37.5t32.5 21.5t56 7q39 0 59.5 -11t30.5 -35t11.5 -62t1.5 -92q0 -42 -1.5 -77t-11.5 -60t-31.5 -39t-61.5 -14q-37 0 -57 8t-29.5 20.5t-11 28.5t-1.5 32v6h63v-5q0 -14 5.5 -28t31.5 -14
q28 0 33 23.5t5 63.5v57zM112 248q0 -27 5.5 -44t31.5 -17q23 0 30 16.5t9 42.5q0 38 -4.5 58.5t-32.5 20.5q-26 0 -32.5 -13.5t-6.5 -36.5v-27z" />
    <glyph glyph-name="dong" unicode="&#x20ab;" horiz-adv-x="473" 
d="M295 105v55q-20 -36 -45.5 -49.5t-65.5 -13.5q-45 0 -70 20t-36 54.5t-13 79t-2 94.5q0 49 1.5 90.5t12.5 71.5t34.5 47t67.5 17q39 0 66 -17t45 -46v122h-76v54h76v75h111v-75h52v-54h-52v-525h-106zM290 384q0 55 -11 82t-49 27q-22 0 -34 -9t-17.5 -28t-6.5 -49
t-1 -72t1 -72t6.5 -50t17.5 -29.5t34 -9.5q32 0 45 22.5t15 73.5v114zM36 0v58h395v-58h-395z" />
    <glyph glyph-name="Euro" unicode="&#x20ac;" 
d="M476 172q0 -41 -6.5 -74.5t-26 -57t-56.5 -36.5t-99 -13t-101 12.5t-61.5 43.5t-31.5 82.5t-12 129.5h-55l19 69h35v83h-54l19 69h36q1 84 10 139.5t31.5 89t62 47.5t102.5 14q22 0 50 -2t54 -5.5t48.5 -9.5t34.5 -14l-36 -120q-11 10 -27.5 18t-35.5 13.5t-38.5 8.5
t-36.5 3q-27 0 -42 -11t-22.5 -33.5t-9.5 -57t-2 -80.5h174l-19 -69h-155v-83h131l-21 -69h-110q0 -42 2.5 -72.5t10.5 -50.5t22.5 -29.5t39.5 -9.5q29 0 48 15.5t20 59.5h108z" />
    <glyph glyph-name="trademark" unicode="&#x2122;" horiz-adv-x="779" 
d="M119 341v346h-85v72h247v-72h-83v-346h-79zM652 341v266l-72 -262h-84l-77 262v-266h-72v418h113l79 -301l77 301h110v-418h-74z" />
    <glyph glyph-name="Omega" unicode="&#x2126;" horiz-adv-x="665" 
d="M372 0v108q37 51 54 139.5t17 201.5q0 50 -2 86t-12.5 59t-32.5 34t-63 11q-42 0 -64.5 -11t-33 -34t-12 -59t-1.5 -86q0 -113 16.5 -201.5t53.5 -139.5v-108h-218v121h90q-21 19 -39.5 53t-32 76.5t-21.5 91t-8 98.5q0 76 4 137t29.5 104t80.5 66t156 23t155.5 -23
t80 -66t29.5 -104t4 -137q0 -50 -8 -98.5t-21.5 -91t-32 -76.5t-39.5 -53h89v-121h-218z" />
    <glyph glyph-name="onethird" unicode="&#x2153;" horiz-adv-x="802" 
d="M176 389v262q0 15 0.5 31t1.5 28q-7 -9 -16.5 -20.5t-18.5 -22.5l-37 -42l-36 34l99 109h77v-379h-70zM172 -21l378 801h80l-377 -801h-81zM582 88q0 -23 7 -38.5t33 -15.5q28 0 34 15t6 39q0 14 -1.5 27t-5.5 23.5t-12 16.5t-20 6h-46v52h46q13 0 20 6t11 15t5 20.5
t1 22.5q0 20 -6 34t-32 14q-27 0 -32.5 -14t-5.5 -34v-10h-63v7q0 19 2 37t12 32.5t30.5 23t57.5 8.5t57.5 -8.5t31 -22.5t13 -32.5t2.5 -37.5q0 -35 -11.5 -55t-44.5 -28q39 -11 49.5 -37t10.5 -66q0 -23 -3.5 -41.5t-15 -32t-33 -21t-56.5 -7.5t-56.5 7.5t-32.5 21
t-14.5 32t-3.5 41.5v17h66v-17z" />
    <glyph glyph-name="twothirds" unicode="&#x2154;" horiz-adv-x="746" 
d="M70 389v54q0 30 7 51t20 37.5t31 30t40 27.5q27 17 34 36t7 50q0 8 -0.5 16.5t-3.5 15t-10 11t-19 4.5q-22 0 -29 -14.5t-7 -37.5v-16h-66v21q0 54 22.5 76.5t77.5 22.5q49 0 76 -20t27 -75q0 -35 -7.5 -63.5t-27.5 -48.5q-15 -14 -33 -23.5t-34 -20.5t-27 -26t-11 -40
v-17h141v-51h-208zM146 -21l378 801h80l-377 -801h-81zM526 88q0 -23 7 -38.5t33 -15.5q28 0 34 15t6 39q0 14 -1.5 27t-5.5 23.5t-12 16.5t-20 6h-46v52h46q13 0 20 6t11 15t5 20.5t1 22.5q0 20 -6 34t-32 14q-27 0 -32.5 -14t-5.5 -34v-10h-63v7q0 19 2 37t12 32.5
t30.5 23t57.5 8.5t57.5 -8.5t31 -22.5t13 -32.5t2.5 -37.5q0 -35 -11.5 -55t-44.5 -28q39 -11 49.5 -37t10.5 -66q0 -23 -3.5 -41.5t-15 -32t-33 -21t-56.5 -7.5t-56.5 7.5t-32.5 21t-14.5 32t-3.5 41.5v17h66v-17z" />
    <glyph glyph-name="oneeighth" unicode="&#x215b;" horiz-adv-x="792" 
d="M176 389v262q0 15 0.5 31t1.5 28q-7 -9 -16.5 -20.5t-18.5 -22.5l-37 -42l-36 34l99 109h77v-379h-70zM162 -21l378 801h80l-377 -801h-81zM661 192q39 -11 49.5 -37.5t10.5 -66.5q0 -23 -3.5 -41.5t-15 -32t-33 -21t-56.5 -7.5t-56 7.5t-32.5 21t-15.5 32t-4 41.5
q0 40 11 66.5t49 37.5q-33 8 -44 27.5t-11 54.5q0 19 2.5 37.5t12.5 32.5t31 22.5t57 8.5t57 -8.5t31.5 -22.5t13 -32.5t2.5 -37.5q0 -35 -11.5 -54.5t-44.5 -27.5zM613 34q28 0 33 16t5 45q0 34 -5 52t-33 18q-26 0 -32 -18t-6 -52q0 -29 5 -45t33 -16zM613 213
q23 0 30 15.5t7 44.5q0 22 -4.5 37t-32.5 15q-27 0 -31.5 -14.5t-4.5 -37.5q0 -29 6.5 -44.5t29.5 -15.5z" />
    <glyph glyph-name="threeeighths" unicode="&#x215c;" horiz-adv-x="768" 
d="M136 487q0 -23 7 -38.5t33 -15.5q28 0 34 15t6 39q0 14 -1.5 27t-5.5 23.5t-12 16.5t-20 6h-46v52h46q13 0 20 6t11 15t5 20.5t1 22.5q0 20 -6 34t-32 14q-27 0 -32.5 -14t-5.5 -34v-10h-63v7q0 19 2 37t12 32.5t30.5 23t57.5 8.5t57.5 -8.5t31 -22.5t13 -32.5t2.5 -37.5
q0 -35 -11.5 -55t-44.5 -28q39 -11 49.5 -37t10.5 -66q0 -23 -3.5 -41.5t-15 -32t-33 -21t-56.5 -7.5t-56.5 7.5t-32.5 21t-14.5 32t-3.5 41.5v17h66v-17zM158 -21l378 801h80l-377 -801h-81zM637 192q39 -11 49.5 -37.5t10.5 -66.5q0 -23 -3.5 -41.5t-15 -32t-33 -21
t-56.5 -7.5t-56 7.5t-32.5 21t-15.5 32t-4 41.5q0 40 11 66.5t49 37.5q-33 8 -44 27.5t-11 54.5q0 19 2.5 37.5t12.5 32.5t31 22.5t57 8.5t57 -8.5t31.5 -22.5t13 -32.5t2.5 -37.5q0 -35 -11.5 -54.5t-44.5 -27.5zM589 34q28 0 33 16t5 45q0 34 -5 52t-33 18q-26 0 -32 -18
t-6 -52q0 -29 5 -45t33 -16zM589 213q23 0 30 15.5t7 44.5q0 22 -4.5 37t-32.5 15q-27 0 -31.5 -14.5t-4.5 -37.5q0 -29 6.5 -44.5t29.5 -15.5z" />
    <glyph glyph-name="fiveeighths" unicode="&#x215d;" horiz-adv-x="753" 
d="M207 533q0 13 -0.5 25.5t-4 22t-10.5 15t-20 5.5q-21 0 -29 -12t-10 -28h-58l12 207h182v-52h-124l-6 -104q9 19 24 27.5t35 8.5q29 0 45 -12.5t23.5 -32.5t8.5 -46t1 -53q0 -22 -1.5 -43.5t-12 -38.5t-32.5 -27.5t-62 -10.5q-22 0 -40 3.5t-31 13.5t-20 26.5t-7 43.5v15
h65v-8q0 -17 6.5 -31t27.5 -14q14 0 22 6t11.5 15t4 20.5t0.5 23.5v35zM143 -21l378 801h80l-377 -801h-81zM622 192q39 -11 49.5 -37.5t10.5 -66.5q0 -23 -3.5 -41.5t-15 -32t-33 -21t-56.5 -7.5t-56 7.5t-32.5 21t-15.5 32t-4 41.5q0 40 11 66.5t49 37.5q-33 8 -44 27.5
t-11 54.5q0 19 2.5 37.5t12.5 32.5t31 22.5t57 8.5t57 -8.5t31.5 -22.5t13 -32.5t2.5 -37.5q0 -35 -11.5 -54.5t-44.5 -27.5zM574 34q28 0 33 16t5 45q0 34 -5 52t-33 18q-26 0 -32 -18t-6 -52q0 -29 5 -45t33 -16zM574 213q23 0 30 15.5t7 44.5q0 22 -4.5 37t-32.5 15
q-27 0 -31.5 -14.5t-4.5 -37.5q0 -29 6.5 -44.5t29.5 -15.5z" />
    <glyph glyph-name="seveneighths" unicode="&#x215e;" horiz-adv-x="763" 
d="M112 389q15 85 41 170.5t61 156.5h-144v52h204v-53q-33 -74 -55 -158.5t-33 -167.5h-74zM143 -21l378 801h80l-377 -801h-81zM632 192q39 -11 49.5 -37.5t10.5 -66.5q0 -23 -3.5 -41.5t-15 -32t-33 -21t-56.5 -7.5t-56 7.5t-32.5 21t-15.5 32t-4 41.5q0 40 11 66.5
t49 37.5q-33 8 -44 27.5t-11 54.5q0 19 2.5 37.5t12.5 32.5t31 22.5t57 8.5t57 -8.5t31.5 -22.5t13 -32.5t2.5 -37.5q0 -35 -11.5 -54.5t-44.5 -27.5zM584 34q28 0 33 16t5 45q0 34 -5 52t-33 18q-26 0 -32 -18t-6 -52q0 -29 5 -45t33 -16zM584 213q23 0 30 15.5t7 44.5
q0 22 -4.5 37t-32.5 15q-27 0 -31.5 -14.5t-4.5 -37.5q0 -29 6.5 -44.5t29.5 -15.5z" />
    <glyph glyph-name="partialdiff" unicode="&#x2202;" 
d="M214 761q9 5 26.5 7t46.5 2q41 0 71 -15t50 -39.5t32 -56t18 -65.5t8 -67.5t2 -61.5q0 -45 -4 -98t-15 -106.5t-30.5 -103.5t-49.5 -88.5t-72.5 -61.5t-99.5 -23q-43 0 -73.5 16t-50.5 44t-29.5 65.5t-9.5 79.5q0 51 13.5 96t40.5 79.5t67.5 54.5t93.5 20q28 0 54.5 -11
t45.5 -33q1 17 1.5 38.5t0.5 41.5q0 30 -3.5 59.5t-13.5 53t-27.5 38t-45.5 14.5q-13 0 -25 -2t-22 -7v130zM332 296q-14 20 -34.5 32.5t-39.5 12.5q-53 0 -79.5 -36t-26.5 -101q0 -90 66 -90q28 0 47 15t32 40t21 58t14 69z" />
    <glyph glyph-name="Delta" unicode="&#x2206;" horiz-adv-x="574" 
d="M30 0l153 759h214l148 -759h-515zM319 449q-5 29 -9.5 54.5t-8 49.5t-6.5 48.5t-6 50.5q-6 -53 -13.5 -99.5t-17.5 -103.5l-59 -331h173z" />
    <glyph glyph-name="product" unicode="&#x220f;" 
d="M341 -183v833h-182v-833h-129v942h442v-942h-131z" />
    <glyph glyph-name="summation" unicode="&#x2211;" 
d="M42 -129v93l185 351l-185 350v94h419v-128h-252l154 -316l-154 -318h252v-126h-419z" />
    <glyph glyph-name="minus" unicode="&#x2212;" 
d="M30 322v95h442v-95h-442z" />
    <glyph glyph-name="radical" unicode="&#x221a;" 
d="M160 0l-63 290h-80v94h177l38 -224l131 599h122l-181 -759h-144z" />
    <glyph glyph-name="infinity" unicode="&#x221e;" 
d="M252 282q-5 -28 -14.5 -45.5t-22.5 -27.5t-30 -13.5t-37 -3.5q-25 0 -47 4t-38.5 21.5t-26.5 53.5t-10 100q0 63 10 98.5t26.5 53.5t38.5 22t47 4q20 0 37 -3.5t30 -13t22.5 -27.5t14.5 -47q5 29 14 47t22 27.5t29.5 13t36.5 3.5q25 0 47.5 -4t39 -22t26 -53.5t9.5 -98.5
q0 -64 -9.5 -100t-26 -53.5t-39 -21.5t-47.5 -4q-20 0 -36.5 3.5t-29.5 13.5t-22 27.5t-14 45.5zM351 317q12 0 22.5 1t18 6.5t12 16t4.5 30.5q0 19 -4 29.5t-11.5 15.5t-17.5 6t-22 1h-13q-11 0 -21.5 -1t-19 -6t-13.5 -15.5t-5 -29.5q0 -20 5 -30.5t13.5 -16t19 -6.5
t21.5 -1h11zM162 317q10 0 21 1t19.5 6.5t14 16t5.5 30.5q0 19 -5 29.5t-13.5 15.5t-19.5 6t-22 1h-12q-12 0 -22 -1t-17.5 -6t-11.5 -15.5t-4 -29.5q0 -20 4 -30.5t11.5 -16t17.5 -6.5t22 -1h12z" />
    <glyph glyph-name="integral" unicode="&#x222b;" 
d="M68 -226v134h65q20 0 26.5 15.5t6.5 47.5v598q0 52 14.5 88t41 58.5t63.5 33t82 10.5h67v-133h-67q-19 0 -25.5 -15.5t-6.5 -47.5v-599q0 -52 -14.5 -88t-41 -58.5t-63.5 -33t-82 -10.5h-66z" />
    <glyph glyph-name="approxequal" unicode="&#x2248;" 
d="M472 217q-50 -42 -114 -42q-28 0 -54 7.5t-52.5 16t-53.5 16t-57 7.5q-40 0 -63.5 -12t-47.5 -39v94q26 22 54.5 31.5t60.5 9.5q28 0 54.5 -7t53 -15.5t53 -15.5t56.5 -7q40 0 63 11.5t47 38.5v-94zM472 436q-50 -42 -114 -42q-28 0 -54 7.5t-52.5 16t-53.5 16t-57 7.5
q-40 0 -63.5 -12t-47.5 -39v94q26 22 54.5 31.5t60.5 9.5q28 0 54.5 -7t53 -15.5t53 -15.5t56.5 -7q40 0 63 11.5t47 38.5v-94z" />
    <glyph glyph-name="notequal" unicode="&#x2260;" 
d="M215 217l-112 -238h-81l112 238h-104v94h149l55 117h-204v94h248l122 258h80l-122 -258h114v-94h-158l-55 -117h213v-94h-257z" />
    <glyph glyph-name="lessequal" unicode="&#x2264;" 
d="M30 336v75l442 247v-115l-316 -169l316 -170v-115zM30 -19v95h442v-95h-442z" />
    <glyph glyph-name="greaterequal" unicode="&#x2265;" 
d="M30 89v115l319 170l-319 169v115l442 -247v-75zM30 -19v95h442v-95h-442z" />
    <glyph glyph-name="dotmath" unicode="&#x22c5;" horiz-adv-x="263" 
d="M67 313v143h127v-143h-127z" />
    <glyph glyph-name="lozenge" unicode="&#x25ca;" 
d="M175 0l-162 379l162 380h164l152 -380l-152 -379h-164zM342 379l-88 223l-85 -223l85 -221z" />
    <glyph glyph-name="uniE000" unicode="&#xe000;" horiz-adv-x="530" 
d="M266 -9q-72 0 -113 18t-62 62.5t-26.5 119.5t-5.5 189t5.5 189.5t26.5 120t62 62.5t113 18t113 -18t61.5 -62.5t26 -120t5.5 -189.5t-5.5 -189t-26 -119.5t-61.5 -62.5t-113 -18zM328 468q0 49 -1.5 85.5t-7.5 60.5t-18.5 36t-34.5 12t-34.5 -12t-18.5 -36t-7.5 -60.5
t-1.5 -85.5v-156q0 -56 1 -96.5t7 -66.5t18.5 -39t35.5 -13t35.5 13t18.5 39t7 66.5t1 96.5v156z" />
    <glyph glyph-name="uniE001" unicode="&#xe001;" horiz-adv-x="402" 
d="M190 0v524q0 37 1.5 62.5t2.5 46.5q-11 -16 -26 -37.5t-37 -45.5l-36 -40l-76 75l157 174h162v-759h-148z" />
    <glyph glyph-name="uniE002" unicode="&#xe002;" horiz-adv-x="522" 
d="M59 0v108q0 57 11.5 103t43.5 88q30 37 62.5 58t69.5 45q25 16 40 33.5t22.5 38t9.5 45t2 53.5q0 12 -1 27t-6 28t-16 21.5t-31 8.5t-32 -8t-18 -21t-8 -30t-2 -36v-32h-138q0 9 -0.5 21t-0.5 22q0 55 10.5 92.5t33.5 60.5t60.5 33.5t91.5 10.5q47 0 84 -9t62.5 -30.5
t39 -58t13.5 -91.5q0 -66 -11.5 -125t-53.5 -104q-26 -28 -60 -47.5t-64.5 -40.5t-51.5 -49.5t-21 -74.5v-28h264v-112h-405z" />
    <glyph glyph-name="uniE003" unicode="&#xe003;" horiz-adv-x="537" 
d="M199 195q0 -20 2 -38t9 -31.5t20 -21t35 -7.5q24 0 37 7.5t20 20.5t8.5 31t1.5 39q0 27 -1 52.5t-7 46t-19 32.5t-37 12h-91v112h91q23 0 35.5 11.5t18 29.5t6.5 40t1 42q0 19 -1.5 35t-8 28t-19.5 19t-35 7t-34.5 -7t-19 -19t-8 -28.5t-1.5 -34.5v-19h-133v14q0 39 4 75
t23.5 64.5t59.5 45.5t112 17t112.5 -17t60.5 -45t24.5 -64.5t4.5 -75.5q0 -33 -4 -59.5t-15.5 -47.5t-31.5 -35.5t-51 -22.5q37 -12 59.5 -31.5t33.5 -46.5t14.5 -59.5t3.5 -69.5q0 -45 -7 -82.5t-29.5 -64.5t-64 -42t-110.5 -15t-110.5 15t-63.5 42t-28.5 64.5t-6.5 82.5
v35h140v-36z" />
    <glyph glyph-name="uniE004" unicode="&#xe004;" horiz-adv-x="492" 
d="M275 0v133h-244v145l177 481h204v-513h52v-113h-52v-133h-137zM275 476q0 50 1 85.5t2.5 62t4 47t4.5 39.5q-4 -19 -9 -38.5t-12.5 -45t-18 -59.5t-25.5 -81l-78 -240h131v230z" />
    <glyph glyph-name="uniE005" unicode="&#xe005;" horiz-adv-x="520" 
d="M316 294q0 20 -1 41.5t-6.5 39.5t-17.5 29.5t-34 11.5q-18 0 -30 -6t-19.5 -16.5t-11 -23.5t-5.5 -28h-122l24 417h355v-113h-233l-12 -194q17 35 45.5 50.5t64.5 15.5q56 0 86 -24.5t44 -65t16.5 -92t2.5 -105.5q0 -45 -3.5 -88t-23 -76.5t-62.5 -54.5t-122 -21
q-44 0 -79.5 7t-60.5 26.5t-38.5 53t-13.5 86.5v31h138v-15q0 -15 1.5 -30t7.5 -27t17 -19.5t30 -7.5q24 0 36.5 11t18.5 28.5t7 39t1 42.5v77z" />
    <glyph glyph-name="uniE006" unicode="&#xe006;" horiz-adv-x="529" 
d="M328 581v9q0 13 -1.5 26.5t-7.5 24t-18.5 17.5t-34.5 7q-24 0 -37 -10.5t-19 -30.5t-7 -48.5t-1 -64.5v-98q21 37 48.5 51t66.5 14q47 0 77 -13.5t47 -42t23.5 -72.5t6.5 -105q0 -67 -7 -115t-29.5 -79t-64 -45.5t-109.5 -14.5q-70 0 -110.5 21t-60.5 68t-25.5 124
t-5.5 188q0 83 3.5 152.5t23 119.5t62 78t120.5 28q72 0 111.5 -16t57.5 -41.5t21 -57.5t3 -64v-10h-133zM330 263q0 21 -1.5 42t-7.5 37t-19 26t-35 10q-25 0 -38.5 -11.5t-19.5 -32.5t-7 -50t-1 -63q0 -30 1.5 -53t8 -38.5t19.5 -24t36 -8.5t36 7.5t19 21t7.5 32t1.5 41.5
v64z" />
    <glyph glyph-name="uniE007" unicode="&#xe007;" horiz-adv-x="458" 
d="M107 0q15 82 34.5 167t44.5 167.5t54 161.5t63 150h-272v113h399v-115q-63 -151 -103 -316.5t-62 -327.5h-158z" />
    <glyph glyph-name="uniE008" unicode="&#xe008;" horiz-adv-x="540" 
d="M371 404q37 -12 59.5 -32t33.5 -46.5t14.5 -59.5t3.5 -70q0 -45 -7 -82.5t-29.5 -64.5t-64 -42t-110.5 -15t-111 15t-64.5 42t-29.5 64.5t-7 82.5q0 37 3.5 70t15 59.5t33.5 46.5t60 32q-32 8 -52 22.5t-31.5 35t-15.5 47t-4 59.5q0 39 5 75.5t25 64.5t61 45t112 17
t111.5 -17t60.5 -45t25 -64.5t5 -75.5q0 -33 -4 -59.5t-15.5 -47t-31.5 -35t-51 -22.5zM271 97q24 0 37 8.5t19 24t7 37t1 46.5q0 31 -1.5 56t-7.5 42t-19 26t-36 9t-36 -9t-19 -26t-7.5 -42t-1.5 -56q0 -25 1 -46.5t7 -37t19 -24t37 -8.5zM271 451q22 0 34.5 8.5t18.5 24.5
t7 37t1 47q0 20 -1 37t-7 30t-18.5 20t-34.5 7t-34.5 -7t-18.5 -20t-7 -30t-1 -37q0 -26 1 -47t7 -37t18 -24.5t35 -8.5z" />
    <glyph glyph-name="uniE009" unicode="&#xe009;" horiz-adv-x="529" 
d="M330 366q-20 -35 -47 -49t-70 -14q-47 0 -76.5 14t-47 42.5t-24 71.5t-6.5 100q0 63 7.5 108t30 74t64 43t109.5 14q75 0 116 -22t60 -70t22 -124t3 -185q0 -84 -3.5 -153.5t-23 -119.5t-61.5 -77.5t-120 -27.5q-72 0 -111 16t-57 41.5t-21 57t-3 63.5v11h132v-10
q0 -13 1.5 -26.5t7.5 -24.5t18.5 -18t35.5 -7q24 0 37 10.5t19 31t7 49t1 64.5v117zM202 517q0 -24 1.5 -45t7.5 -36.5t18.5 -24t35.5 -8.5q22 0 35 8.5t20 26t8.5 43t1.5 58.5q0 27 -1.5 49.5t-8 39t-19 25.5t-34.5 9q-23 0 -36 -7t-19.5 -19.5t-8 -30t-1.5 -37.5v-51z" />
    <glyph glyph-name="uniE00A" unicode="&#xe00a;" horiz-adv-x="487" 
d="M244 -9q-66 0 -104 14t-57.5 49t-24.5 93.5t-5 147.5q0 90 5 148.5t24.5 93.5t57.5 49t104 14t103.5 -14t57 -49t24.5 -93.5t5 -148.5q0 -89 -5 -147.5t-24.5 -93.5t-57 -49t-103.5 -14zM305 345q0 40 -1 68.5t-7 47.5t-18.5 28t-34.5 9q-23 0 -35.5 -9t-18.5 -28
t-7 -47.5t-1 -68.5v-94q0 -41 1 -70.5t7 -49t18.5 -29t35.5 -9.5q22 0 34.5 9.5t18.5 29t7 49t1 70.5v94z" />
    <glyph glyph-name="uniE00B" unicode="&#xe00b;" horiz-adv-x="349" 
d="M159 0v365q0 29 1.5 57.5t3.5 48.5q-9 -17 -22.5 -37t-29.5 -39l-15 -18l-69 72l119 141h144v-590h-132z" />
    <glyph glyph-name="uniE00C" unicode="&#xe00c;" horiz-adv-x="480" 
d="M53 0v84q0 51 9.5 95t48.5 81q25 28 57 42.5t60.5 29.5t48.5 38.5t20 68.5q0 32 -15 43t-38 11q-28 0 -44 -12.5t-16 -41.5q0 -7 0.5 -13.5t0.5 -12.5h-124q0 8 -0.5 17t-0.5 18q0 51 15 81t39.5 46t57 20.5t68.5 4.5q39 0 79 -5.5t66 -29.5q25 -23 32 -53t7 -65
q0 -45 -9.5 -79t-38.5 -64q-24 -24 -57.5 -40t-65 -33t-53.5 -40t-22 -60v-23h248v-108h-373z" />
    <glyph glyph-name="uniE00D" unicode="&#xe00d;" horiz-adv-x="492" 
d="M177 15q0 -19 2.5 -35.5t9.5 -29t20 -19.5t34 -7q23 0 36 8t19.5 21.5t8 32.5t1.5 41q0 28 -1.5 54t-8 46.5t-19.5 32.5t-35 12h-82v107h82q22 0 34.5 11.5t18.5 30t7 40.5t1 43q0 19 -1.5 36t-8 29.5t-19 20t-33.5 7.5q-22 0 -34.5 -7.5t-19 -20t-8 -29.5t-1.5 -36v-20
h-118v15q0 39 4 75.5t21.5 64t54 44.5t102.5 17t103.5 -17t56 -44.5t23 -64t4.5 -75.5q0 -34 -4 -61t-15 -47.5t-29.5 -35t-48.5 -21.5q35 -11 55.5 -30.5t31.5 -46t14.5 -59.5t3.5 -71q0 -45 -6.5 -82.5t-27.5 -64.5t-59.5 -42t-101.5 -15t-100.5 15t-58 42t-26.5 64.5
t-6 82.5v34h124v-46z" />
    <glyph glyph-name="uniE00E" unicode="&#xe00e;" horiz-adv-x="452" 
d="M254 -168v169h-227v142l168 447h181v-481h49v-108h-49v-169h-122zM254 304q0 48 0.5 82.5t1.5 61.5t2.5 50.5t3.5 48.5q-5 -24 -10.5 -46.5t-13 -48.5t-17.5 -58t-24 -75l-71 -210h128v195z" />
    <glyph glyph-name="uniE00F" unicode="&#xe00f;" horiz-adv-x="477" 
d="M176 11q0 -14 2.5 -29.5t8.5 -28t16.5 -21t27.5 -8.5q23 0 35.5 11.5t18.5 31.5t7 46t1 56q0 48 -1 81.5t-6.5 55t-18 31t-34.5 9.5q-18 0 -29.5 -6.5t-18.5 -16.5t-10.5 -22.5t-4.5 -25.5h-108l22 415h326v-108h-217l-12 -202q16 37 43 53t61 16q52 0 80 -24.5t41 -63.5
t15 -88t2 -98t-3 -94.5t-21 -80.5t-57.5 -56t-111.5 -21q-40 0 -72.5 7t-56 26.5t-36 53t-12.5 86.5v30h123v-15z" />
    <glyph glyph-name="uniE010" unicode="&#xe010;" horiz-adv-x="486" 
d="M304 580v10q0 14 -1.5 28t-7.5 25.5t-18 18.5t-33 7q-24 0 -37.5 -11.5t-19.5 -32.5t-7 -51.5t-1 -68.5v-96q20 39 46 53.5t64 14.5q43 0 71 -13.5t44 -42t22 -72.5t6 -105q0 -69 -6.5 -117t-27 -78t-58.5 -44t-101 -14q-70 0 -107.5 21.5t-55 69.5t-20.5 124t-3 185
q0 83 3 152.5t21 119.5t56.5 78t110.5 28q66 0 102 -16t52.5 -41.5t19.5 -57.5t3 -64v-10h-117zM179 265q0 -47 1 -80t7 -53.5t19 -30t37 -9.5q22 0 35 8t19 22t7.5 34.5t1.5 44.5q0 47 -1 81.5t-6.5 56.5t-18 32.5t-35.5 10.5q-21 0 -33 -9t-19 -24.5t-10 -37t-4 -46.5z
" />
    <glyph glyph-name="uniE011" unicode="&#xe011;" horiz-adv-x="421" 
d="M100 -169q13 84 31.5 169.5t41 169t50 162.5t58.5 150h-254v108h366v-110q-29 -74 -52.5 -154t-42.5 -163t-34 -166.5t-25 -165.5h-139z" />
    <glyph glyph-name="uniE012" unicode="&#xe012;" horiz-adv-x="496" 
d="M338 404q35 -11 55.5 -30.5t31.5 -46t14.5 -59.5t3.5 -71q0 -45 -6.5 -83t-27 -65t-59 -42t-102.5 -15t-102.5 15t-59 42t-27 65t-6.5 83q0 38 3.5 71t14.5 59.5t31.5 46t55.5 30.5q-29 7 -48 21.5t-29.5 35t-14.5 47.5t-4 61q0 39 4.5 75.5t22.5 64t55.5 44.5t103.5 17
t103.5 -17t55.5 -44.5t22.5 -64t4.5 -75.5q0 -34 -4 -61t-14.5 -47.5t-29.5 -35t-48 -21.5zM312 219q0 31 -2 55t-8.5 40.5t-19 25.5t-34.5 9t-34.5 -9t-19 -25.5t-8.5 -40.5t-2 -55v-20q0 -19 1 -38t7 -34t19 -24.5t37 -9.5t37 9.5t19 24.5t7 34t1 38v20zM309 581
q0 18 -2 33.5t-8.5 27.5t-18.5 18.5t-32 6.5t-32 -6.5t-18.5 -18.5t-8.5 -27.5t-2 -33.5v-34q0 -21 2 -39t8.5 -31t18.5 -20.5t32 -7.5t32 7.5t18.5 20.5t8.5 31t2 39v34z" />
    <glyph glyph-name="uniE013" unicode="&#xe013;" horiz-adv-x="486" 
d="M306 200q-20 -38 -46 -52.5t-64 -14.5q-43 0 -71 14t-44 42.5t-22 71.5t-6 100q0 63 6.5 108t27 74.5t58.5 43t101 13.5q70 0 107.5 -21.5t55 -69.5t20.5 -124t3 -185q0 -83 -3 -152.5t-21 -119.5t-56.5 -77.5t-110.5 -27.5q-66 0 -102 15.5t-52.5 41t-19.5 57t-3 63.5
v10h117v-10q0 -13 1.5 -27t7.5 -25.5t18.5 -19t34.5 -7.5q24 0 36.5 11.5t18.5 33t7 52t1 68.5v114zM306 345q0 43 -1 72t-7 47t-18.5 25.5t-35.5 7.5q-24 0 -37.5 -9.5t-19.5 -28t-7 -46.5t-1 -65q0 -26 1.5 -47.5t8 -37.5t19 -24.5t34.5 -8.5q20 0 32 8.5t18.5 23.5t9 36
t4.5 47z" />
    <glyph glyph-name="uniF8FF" unicode="&#xf8ff;" horiz-adv-x="238" 
 />
    <glyph glyph-name="uniFB01" unicode="&#xfb01;" horiz-adv-x="623" 
d="M88 0v437h-57v95h58v60q0 38 6 69.5t22.5 54.5t44.5 35.5t73 12.5q39 0 69 -8v-96q-5 1 -11 2t-13 1q-29 0 -42 -14.5t-13 -42.5v-74h76v-95h-76v-437h-137zM412 0v532h137v-532h-137zM412 638v121h137v-121h-137z" />
    <glyph glyph-name="uniFB02" unicode="&#xfb02;" horiz-adv-x="619" 
d="M88 0v437h-57v95h58v60q0 38 6 69.5t22.5 54.5t44.5 35.5t73 12.5q39 0 69 -8v-96q-5 1 -11 2t-13 1q-29 0 -42 -14.5t-13 -42.5v-74h76v-95h-76v-437h-137zM410 0v759h136v-759h-136z" />
    <glyph glyph-name="glyph516" horiz-adv-x="402" 
d="M331 672q-5 -50 -38.5 -78t-92.5 -28q-57 0 -90 28t-40 78h45q13 -63 85 -63q35 0 57.5 15.5t28.5 47.5h45zM154 665v26l175 56v-49z" />
    <glyph glyph-name="glyph517" horiz-adv-x="402" 
d="M116 672q5 -32 27.5 -47.5t57.5 -15.5q72 0 85 63h45q-6 -50 -39.5 -78t-90.5 -28q-59 0 -92 28t-38 78h45zM72 698v49l175 -56v-26z" />
    <glyph glyph-name="glyph518" horiz-adv-x="401" 
d="M176 625q0 18 6.5 27t14.5 15.5t14.5 12.5t6.5 17q0 6 -2.5 15.5t-18.5 9.5q-17 0 -20 -8t-3 -16v-6h-37v8q0 10 1.5 18.5t7.5 15t18.5 10t33.5 3.5q22 0 34 -4t18 -10t7 -13t1 -13q0 -19 -7 -29t-16 -17.5t-16 -15t-7 -20.5h-36zM116 672q5 -32 27.5 -47.5t57.5 -15.5
q72 0 85 63h45q-6 -50 -39.5 -78t-90.5 -28q-59 0 -92 28t-38 78h45z" />
    <glyph glyph-name="glyph519" horiz-adv-x="517" 
d="M334 566v9q1 22 10.5 34t19.5 20.5t18.5 17.5t8.5 26q0 20 -6.5 28.5t-24.5 8.5q-22 0 -25.5 -12t-3.5 -24v-9h-52v9q0 15 1.5 28.5t10 23t25.5 15.5t47 6t47 -5.5t25 -14.5t9.5 -19.5t1.5 -19.5q0 -28 -10 -44t-22.5 -27.5t-22.5 -22.5t-10 -28h-47zM189 614l-120 -49
v29l120 72l121 -72v-29z" />
    <glyph glyph-name="glyph520" horiz-adv-x="504" 
d="M262 642v31l171 64v-61zM189 614l-120 -49v29l120 72l121 -72v-29z" />
    <glyph glyph-name="glyph521" horiz-adv-x="504" 
d="M70 677v60l171 -64v-31zM314 614l-121 -49v29l121 73l119 -73v-29z" />
    <glyph glyph-name="glyph522" horiz-adv-x="401" 
d="M116 672q5 -32 27.5 -47.5t57.5 -15.5q72 0 85 63h45q-6 -50 -39.5 -78t-90.5 -28q-59 0 -92 28t-38 78h45zM323 695q-14 -14 -30 -19t-33 -5q-16 0 -30 4.5t-28 10.5t-28.5 10.5t-30.5 4.5q-23 0 -35.5 -6t-25.5 -21v49q14 13 29.5 17t33.5 4q16 0 30 -4.5t28 -10
t28 -10t31 -4.5q23 0 36 6t25 21v-47z" />
    </font>
</defs>
</svg>
